SplineFontDB: 3.0
FontName: Bevan
FullName: Bevan
FamilyName: Bevan
Weight: Normal
Copyright: Copyright (c) 2011 by vernon adams. All rights reserved.
Version: 1.000
FONDName: Bevan
ItalicAngle: 0
UnderlinePosition: -205
UnderlineWidth: 102
Ascent: 1638
Descent: 410
LayerCount: 2
Layer: 0 1 "Back"  1
Layer: 1 1 "Fore"  0
NeedsXUIDChange: 1
FSType: 4
OS2Version: 0
OS2_WeightWidthSlopeOnly: 0
OS2_UseTypoMetrics: 0
CreationTime: 1297338724
ModificationTime: 1297341070
PfmFamily: 17
TTFWeight: 0
TTFWidth: 1
LineGap: 0
VLineGap: 0
Panose: 2 0 0 0 0 0 0 0 0 0
OS2TypoAscent: 2385
OS2TypoAOffset: 0
OS2TypoDescent: -899
OS2TypoDOffset: 0
OS2TypoLinegap: 0
OS2WinAscent: 2385
OS2WinAOffset: 0
OS2WinDescent: -899
OS2WinDOffset: 0
HheadAscent: 2385
HheadAOffset: 0
HheadDescent: -899
HheadDOffset: 0
OS2SubXSize: 1434
OS2SubYSize: 1331
OS2SubXOff: 0
OS2SubYOff: 287
OS2SupXSize: 1434
OS2SupYSize: 1331
OS2SupXOff: 0
OS2SupYOff: 977
OS2StrikeYSize: 102
OS2StrikeYPos: 512
OS2Vendor: 'newt'
OS2CodePages: 20000001.00000000
OS2UnicodeRanges: 800000af.5000204b.00000000.00000000
MarkAttachClasses: 1
DEI: 91125
ShortTable: maxp 16
  0
  0
  0
  0
  0
  0
  0
  2
  1
  2
  22
  0
  256
  0
  0
  0
EndShort
TtTable: prep
PUSHW_1
 511
SCANCTRL
PUSHB_1
 1
SCANTYPE
SVTCA[y-axis]
MPPEM
PUSHB_1
 8
LT
IF
PUSHB_2
 1
 1
INSTCTRL
EIF
PUSHB_2
 70
 6
CALL
IF
POP
PUSHB_1
 16
EIF
MPPEM
PUSHB_1
 20
GT
IF
POP
PUSHB_1
 128
EIF
SCVTCI
PUSHB_1
 6
CALL
NOT
IF
SVTCA[y-axis]
PUSHB_1
 5
DUP
RCVT
PUSHB_1
 3
CALL
WCVTP
PUSHB_1
 11
DUP
RCVT
PUSHB_3
 5
 39
 2
CALL
PUSHB_1
 3
CALL
WCVTP
PUSHB_1
 10
DUP
RCVT
PUSHB_3
 11
 21
 2
CALL
PUSHB_1
 3
CALL
WCVTP
PUSHB_1
 9
DUP
RCVT
PUSHB_3
 10
 15
 2
CALL
PUSHB_1
 3
CALL
WCVTP
PUSHB_1
 8
DUP
RCVT
PUSHB_3
 9
 9
 2
CALL
PUSHB_1
 3
CALL
WCVTP
PUSHB_1
 7
DUP
RCVT
PUSHB_3
 8
 32
 2
CALL
PUSHB_1
 3
CALL
WCVTP
PUSHB_1
 6
DUP
RCVT
PUSHB_3
 7
 112
 2
CALL
PUSHB_1
 3
CALL
WCVTP
PUSHB_1
 12
DUP
RCVT
PUSHW_3
 5
 291
 2
CALL
PUSHB_1
 3
CALL
WCVTP
PUSHB_1
 13
DUP
RCVT
PUSHB_3
 12
 97
 2
CALL

StartChar: A
Encoding: 258 65 2
Width: 1791
VWidth: 0
Flags: W
HStem: 0 359<92 239.819 651.422 686 1592.27 1636>
LayerCount: 2
Fore
SplineSet
1273 1623 m 1,0,-1
 279 1623 l 1,1,-1
 279 1270 l 1,2,-1
 491 1270 l 1,3,-1
 319 591 l 2,4,5
 291.644860824 486.406820799 291.644860824 486.406820799 280.789268471 461.742864355 c 0,6,7
 247.56000097 386.245813647 247.56000097 386.245813647 169.649472473 367.157731863 c 0,8,9
 136.352611744 359 136.352611744 359 92 359 c 1,10,-1
 92 0 l 1,11,-1
 770 0 l 1,12,-1
 770 359 l 1,13,-1
 686 359 l 2,14,15
 665 359 665 359 654 395 c 128,-1,16
 643 431 643 431 643 459 c 1,17,18
 644 480 644 480 645 491 c 128,-1,19
 646 502 646 502 653 512.5 c 128,-1,20
 660 523 660 523 673 523 c 2,21,-1
 948 523 l 2,22,23
 1015 523 1015 523 1015 359 c 1,24,-1
 895 359 l 1,25,-1
 896 0 l 1,26,-1
 1722 0 l 1,27,-1
 1722 359 l 1,28,-1
 1636 359 l 2,29,30
 1621 359 1621 359 1610 371.5 c 128,-1,31
 1599 384 1599 384 1593.5 400 c 128,-1,32
 1588 416 1588 416 1580 447 c 2,33,-1
 1273 1623 l 1,0,-1
700 773 m 1,34,-1
 812 1281 l 1,35,-1
 929 773 l 1,36,-1
 700 773 l 1,34,-1
EndSplineSet
EndChar

StartChar: AE
Encoding: 259 198 3
Width: 3184
VWidth: 0
Flags: W
DStem2: 253 608 658 771 0.432527 0.901621<322.138 739.753>
LayerCount: 2
Fore
SplineSet
2004 970 m 1,0,-1
 2004 1623 l 1,1,-1
 434 1623 l 1,2,-1
 363 1274 l 1,3,-1
 575 1274 l 1,4,-1
 253 608 l 2,5,6
 248 597 248 597 234.5 565.5 c 128,-1,7
 221 534 221 534 215.5 522.5 c 128,-1,8
 210 511 210 511 196.5 485 c 128,-1,9
 183 459 183 459 174 448 c 128,-1,10
 165 437 165 437 149 418 c 128,-1,11
 133 399 133 399 117 390.5 c 128,-1,12
 101 382 101 382 80 372 c 128,-1,13
 59 362 59 362 34 358 c 128,-1,14
 9 354 9 354 -21 354 c 1,15,-1
 -21 -1 l 1,16,-1
 660 0 l 1,17,-1
 660 376 l 1,18,-1
 576 376 l 2,19,20
 555 376 555 376 550.5 417.5 c 128,-1,21
 546 459 546 459 552 476 c 1,22,23
 557 497 557 497 560 508 c 128,-1,24
 563 519 563 519 572 529.5 c 128,-1,25
 581 540 581 540 594 540 c 2,26,-1
 869 540 l 2,27,28
 937 540 937 540 905 376 c 1,29,-1
 785 376 l 1,30,-1
 786 0 l 1,31,-1
 2015 0 l 1,32,-1
 2015 687 l 1,33,-1
 1742 687 l 1,34,-1
 1679 420 l 1,35,-1
 1666 350 l 1,36,-1
 1447 350 l 1,37,-1
 1447 636 l 1,38,-1
 1652 636 l 1,39,-1
 1652 988 l 1,40,-1
 1447 988 l 1,41,-1
 1447 1271 l 1,42,-1
 1660 1271 l 1,43,-1
 1736 969 l 1,44,-1
 2004 970 l 1,0,-1
658 771 m 1,45,-1
 898 1292 l 1,46,-1
 897 771 l 1,47,-1
 658 771 l 1,45,-1
EndSplineSet
EndChar

StartChar: Aacute
Encoding: 260 193 4
Width: 1763
VWidth: 0
Flags: W
HStem: 0 359<92 239.819 651.422 686 1592.27 1636>
LayerCount: 2
Fore
SplineSet
1273 1623 m 1,0,-1
 279 1623 l 1,1,-1
 279 1270 l 1,2,-1
 491 1270 l 1,3,-1
 319 591 l 2,4,5
 291.64453125 486.407226562 291.64453125 486.407226562 280.7890625 461.743164062 c 0,6,7
 247.559570312 386.24609375 247.559570312 386.24609375 169.649414062 367.158203125 c 0,8,9
 136.352539062 359 136.352539062 359 92 359 c 1,10,-1
 92 0 l 1,11,-1
 770 0 l 1,12,-1
 770 359 l 1,13,-1
 686 359 l 2,14,15
 665 359 665 359 654 395 c 128,-1,16
 643 431 643 431 643 459 c 1,17,18
 644 480 644 480 645 491 c 128,-1,19
 646 502 646 502 653 512.5 c 128,-1,20
 660 523 660 523 673 523 c 2,21,-1
 948 523 l 2,22,23
 1015 523 1015 523 1015 359 c 1,24,-1
 895 359 l 1,25,-1
 896 0 l 1,26,-1
 1722 0 l 1,27,-1
 1722 359 l 1,28,-1
 1636 359 l 2,29,30
 1621 359 1621 359 1610 371.5 c 128,-1,31
 1599 384 1599 384 1593.5 400 c 128,-1,32
 1588 416 1588 416 1580 447 c 2,33,-1
 1273 1623 l 1,0,-1
700 773 m 1,34,-1
 812 1281 l 1,35,-1
 929 773 l 1,36,-1
 700 773 l 1,34,-1
1026 2270 m 1,37,-1
 552 1833 l 1,38,-1
 656 1692 l 1,39,-1
 1210 2005 l 1,40,-1
 1026 2270 l 1,37,-1
EndSplineSet
EndChar

StartChar: Acircumflex
Encoding: 261 194 5
Width: 1763
VWidth: 0
Flags: W
HStem: 0 359<92 239.819 651.422 686 1592.27 1636>
LayerCount: 2
Fore
SplineSet
1273 1623 m 1,0,-1
 279 1623 l 1,1,-1
 279 1270 l 1,2,-1
 491 1270 l 1,3,-1
 319 591 l 2,4,5
 291.64453125 486.407226562 291.64453125 486.407226562 280.7890625 461.743164062 c 0,6,7
 247.559570312 386.24609375 247.559570312 386.24609375 169.649414062 367.158203125 c 0,8,9
 136.352539062 359 136.352539062 359 92 359 c 1,10,-1
 92 0 l 1,11,-1
 770 0 l 1,12,-1
 770 359 l 1,13,-1
 686 359 l 2,14,15
 665 359 665 359 654 395 c 128,-1,16
 643 431 643 431 643 459 c 1,17,18
 644 480 644 480 645 491 c 128,-1,19
 646 502 646 502 653 512.5 c 128,-1,20
 660 523 660 523 673 523 c 2,21,-1
 948 523 l 2,22,23
 1015 523 1015 523 1015 359 c 1,24,-1
 895 359 l 1,25,-1
 896 0 l 1,26,-1
 1722 0 l 1,27,-1
 1722 359 l 1,28,-1
 1636 359 l 2,29,30
 1621 359 1621 359 1610 371.5 c 128,-1,31
 1599 384 1599 384 1593.5 400 c 128,-1,32
 1588 416 1588 416 1580 447 c 2,33,-1
 1273 1623 l 1,0,-1
700 773 m 1,34,-1
 812 1281 l 1,35,-1
 929 773 l 1,36,-1
 700 773 l 1,34,-1
645 2163 m 1,37,-1
 372 1786 l 1,38,-1
 526 1685 l 1,39,-1
 781 1930 l 1,40,-1
 1036 1685 l 1,41,-1
 1190 1786 l 1,42,-1
 916 2162 l 1,43,-1
 645 2163 l 1,37,-1
EndSplineSet
EndChar

StartChar: Adieresis
Encoding: 262 196 6
Width: 1763
VWidth: 0
Flags: W
HStem: 0 359<92 239.819 651.422 686 1592.27 1636> 1674 460<436.216 711.121 1053.22 1328.12>
VStem: 347 452<1761.72 2049.11> 964 452<1761.72 2049.11>
LayerCount: 2
Fore
SplineSet
1273 1623 m 1,0,-1
 279 1623 l 1,1,-1
 279 1270 l 1,2,-1
 491 1270 l 1,3,-1
 319 591 l 2,4,5
 291.64453125 486.407226562 291.64453125 486.407226562 280.7890625 461.743164062 c 0,6,7
 247.559570312 386.24609375 247.559570312 386.24609375 169.649414062 367.158203125 c 0,8,9
 136.352539062 359 136.352539062 359 92 359 c 1,10,-1
 92 0 l 1,11,-1
 770 0 l 1,12,-1
 770 359 l 1,13,-1
 686 359 l 2,14,15
 665 359 665 359 654 395 c 128,-1,16
 643 431 643 431 643 459 c 1,17,18
 644 480 644 480 645 491 c 128,-1,19
 646 502 646 502 653 512.5 c 128,-1,20
 660 523 660 523 673 523 c 2,21,-1
 948 523 l 2,22,23
 1015 523 1015 523 1015 359 c 1,24,-1
 895 359 l 1,25,-1
 896 0 l 1,26,-1
 1722 0 l 1,27,-1
 1722 359 l 1,28,-1
 1636 359 l 2,29,30
 1621 359 1621 359 1610 371.5 c 128,-1,31
 1599 384 1599 384 1593.5 400 c 128,-1,32
 1588 416 1588 416 1580 447 c 2,33,-1
 1273 1623 l 1,0,-1
700 773 m 1,34,-1
 812 1281 l 1,35,-1
 929 773 l 1,36,-1
 700 773 l 1,34,-1
799 1904 m 0,37,38
 799 1796 799 1796 732.5 1735 c 128,-1,39
 666 1674 666 1674 575 1674 c 0,40,41
 482 1674 482 1674 414.5 1735.5 c 128,-1,42
 347 1797 347 1797 347 1907 c 0,43,44
 347 2014 347 2014 414 2074 c 128,-1,45
 481 2134 481 2134 573 2134 c 128,-1,46
 665 2134 665 2134 732 2073.5 c 128,-1,47
 799 2013 799 2013 799 1904 c 0,37,38
1416 1904 m 0,48,49
 1416 1796 1416 1796 1349.5 1735 c 128,-1,50
 1283 1674 1283 1674 1192 1674 c 0,51,52
 1099 1674 1099 1674 1031.5 1735.5 c 128,-1,53
 964 1797 964 1797 964 1907 c 0,54,55
 964 2014 964 2014 1031 2074 c 128,-1,56
 1098 2134 1098 2134 1190 2134 c 128,-1,57
 1282 2134 1282 2134 1349 2073.5 c 128,-1,58
 1416 2013 1416 2013 1416 1904 c 0,48,49
EndSplineSet
EndChar

StartChar: Agrave
Encoding: 263 192 7
Width: 1763
VWidth: 0
Flags: W
HStem: 0 359<92 239.819 651.422 686 1592.27 1636>
LayerCount: 2
Fore
SplineSet
1273 1623 m 1,0,-1
 279 1623 l 1,1,-1
 279 1270 l 1,2,-1
 491 1270 l 1,3,-1
 319 591 l 2,4,5
 291.64453125 486.407226562 291.64453125 486.407226562 280.7890625 461.743164062 c 0,6,7
 247.559570312 386.24609375 247.559570312 386.24609375 169.649414062 367.158203125 c 0,8,9
 136.352539062 359 136.352539062 359 92 359 c 1,10,-1
 92 0 l 1,11,-1
 770 0 l 1,12,-1
 770 359 l 1,13,-1
 686 359 l 2,14,15
 665 359 665 359 654 395 c 128,-1,16
 643 431 643 431 643 459 c 1,17,18
 644 480 644 480 645 491 c 128,-1,19
 646 502 646 502 653 512.5 c 128,-1,20
 660 523 660 523 673 523 c 2,21,-1
 948 523 l 2,22,23
 1015 523 1015 523 1015 359 c 1,24,-1
 895 359 l 1,25,-1
 896 0 l 1,26,-1
 1722 0 l 1,27,-1
 1722 359 l 1,28,-1
 1636 359 l 2,29,30
 1621 359 1621 359 1610 371.5 c 128,-1,31
 1599 384 1599 384 1593.5 400 c 128,-1,32
 1588 416 1588 416 1580 447 c 2,33,-1
 1273 1623 l 1,0,-1
700 773 m 1,34,-1
 812 1281 l 1,35,-1
 929 773 l 1,36,-1
 700 773 l 1,34,-1
736 2270 m 1,37,-1
 1210 1833 l 1,38,-1
 1106 1692 l 1,39,-1
 552 2005 l 1,40,-1
 736 2270 l 1,37,-1
EndSplineSet
EndChar

StartChar: Aring
Encoding: 264 197 8
Width: 1763
VWidth: 0
Flags: W
HStem: 0 359<92 239.819 651.422 686 1592.27 1636> 1700 102<760.503 996.845> 2095 100<759.613 997.735>
VStem: 606 110<1846.49 2052.32> 1042 115<1846.49 2051.33>
LayerCount: 2
Fore
SplineSet
1273 1623 m 1,0,-1
 279 1623 l 1,1,-1
 279 1270 l 1,2,-1
 491 1270 l 1,3,-1
 319 591 l 2,4,5
 291.64453125 486.407226562 291.64453125 486.407226562 280.7890625 461.743164062 c 0,6,7
 247.559570312 386.24609375 247.559570312 386.24609375 169.649414062 367.158203125 c 0,8,9
 136.352539062 359 136.352539062 359 92 359 c 1,10,-1
 92 0 l 1,11,-1
 770 0 l 1,12,-1
 770 359 l 1,13,-1
 686 359 l 2,14,15
 665 359 665 359 654 395 c 128,-1,16
 643 431 643 431 643 459 c 1,17,18
 644 480 644 480 645 491 c 128,-1,19
 646 502 646 502 653 512.5 c 128,-1,20
 660 523 660 523 673 523 c 2,21,-1
 948 523 l 2,22,23
 1015 523 1015 523 1015 359 c 1,24,-1
 895 359 l 1,25,-1
 896 0 l 1,26,-1
 1722 0 l 1,27,-1
 1722 359 l 1,28,-1
 1636 359 l 2,29,30
 1621 359 1621 359 1610 371.5 c 128,-1,31
 1599 384 1599 384 1593.5 400 c 128,-1,32
 1588 416 1588 416 1580 447 c 2,33,-1
 1273 1623 l 1,0,-1
700 773 m 1,34,-1
 812 1281 l 1,35,-1
 929 773 l 1,36,-1
 700 773 l 1,34,-1
877 1802 m 0,37,38
 802 1802 802 1802 759 1846 c 128,-1,39
 716 1890 716 1890 716 1950 c 0,40,41
 716 2009 716 2009 758.5 2052 c 128,-1,42
 801 2095 801 2095 877 2095 c 0,43,44
 955 2095 955 2095 998.5 2052 c 128,-1,45
 1042 2009 1042 2009 1042 1950 c 0,46,47
 1042 1890 1042 1890 998 1846 c 128,-1,48
 954 1802 954 1802 877 1802 c 0,37,38
877 1700 m 0,49,50
 1008 1700 1008 1700 1082.5 1775 c 128,-1,51
 1157 1850 1157 1850 1157 1951 c 0,52,53
 1157 2051 1157 2051 1083.5 2123 c 128,-1,54
 1010 2195 1010 2195 877 2195 c 0,55,56
 748 2195 748 2195 677 2122.5 c 128,-1,57
 606 2050 606 2050 606 1951 c 0,58,59
 606 1850 606 1850 678 1775 c 128,-1,60
 750 1700 750 1700 877 1700 c 0,49,50
EndSplineSet
EndChar

StartChar: Atilde
Encoding: 265 195 9
Width: 1763
VWidth: 0
Flags: W
HStem: 0 359<92 239.819 651.422 686 1592.27 1636> 1707 253<622.831 837.417> 1828 257<929.09 1144.86>
DStem2: 783 1979.5 831.5 1737.5 0.904739 0.425967<-82.3774 191.133>
LayerCount: 2
Fore
SplineSet
1273 1623 m 1,0,-1
 279 1623 l 1,1,-1
 279 1270 l 1,2,-1
 491 1270 l 1,3,-1
 319 591 l 2,4,5
 291.64453125 486.407226562 291.64453125 486.407226562 280.7890625 461.743164062 c 0,6,7
 247.559570312 386.24609375 247.559570312 386.24609375 169.649414062 367.158203125 c 0,8,9
 136.352539062 359 136.352539062 359 92 359 c 1,10,-1
 92 0 l 1,11,-1
 770 0 l 1,12,-1
 770 359 l 1,13,-1
 686 359 l 2,14,15
 665 359 665 359 654 395 c 128,-1,16
 643 431 643 431 643 459 c 1,17,18
 644 480 644 480 645 491 c 128,-1,19
 646 502 646 502 653 512.5 c 128,-1,20
 660 523 660 523 673 523 c 2,21,-1
 948 523 l 2,22,23
 1015 523 1015 523 1015 359 c 1,24,-1
 895 359 l 1,25,-1
 896 0 l 1,26,-1
 1722 0 l 1,27,-1
 1722 359 l 1,28,-1
 1636 359 l 2,29,30
 1621 359 1621 359 1610 371.5 c 128,-1,31
 1599 384 1599 384 1593.5 400 c 128,-1,32
 1588 416 1588 416 1580 447 c 2,33,-1
 1273 1623 l 1,0,-1
700 773 m 1,34,-1
 812 1281 l 1,35,-1
 929 773 l 1,36,-1
 700 773 l 1,34,-1
1055 2085 m 0,37,38
 1099 2085 1099 2085 1135 2066 c 128,-1,39
 1171 2047 1171 2047 1197 2012.5 c 128,-1,40
 1223 1978 1223 1978 1242.5 1944 c 128,-1,41
 1262 1910 1262 1910 1285.5 1865 c 128,-1,42
 1309 1820 1309 1820 1327 1794 c 1,43,-1
 1214 1720 l 1,44,45
 1141 1790 1141 1790 1113.5 1809 c 128,-1,46
 1086 1828 1086 1828 1067 1828 c 0,47,48
 1022 1828 1022 1828 960 1798 c 128,-1,49
 898 1768 898 1768 831.5 1737.5 c 128,-1,50
 765 1707 765 1707 710 1707 c 0,51,52
 665 1707 665 1707 629 1725.5 c 128,-1,53
 593 1744 593 1744 566.5 1778.5 c 128,-1,54
 540 1813 540 1813 521 1846.5 c 128,-1,55
 502 1880 502 1880 478 1925.5 c 128,-1,56
 454 1971 454 1971 436 1997 c 1,57,-1
 550 2072 l 1,58,59
 626 1999 626 1999 654 1979.5 c 128,-1,60
 682 1960 682 1960 700 1960 c 0,61,62
 736 1960 736 1960 783 1979.5 c 128,-1,63
 830 1999 830 1999 869 2022.5 c 128,-1,64
 908 2046 908 2046 959 2065.5 c 128,-1,65
 1010 2085 1010 2085 1055 2085 c 0,37,38
EndSplineSet
EndChar

StartChar: B
Encoding: 266 66 10
Width: 1659
VWidth: 0
Flags: W
HStem: 700 261<809 990.398>
VStem: 1032 494<1022 1233.74> 1040 555<398.699 635.964>
LayerCount: 2
Fore
SplineSet
68 0 m 1,0,-1
 1010 0 l 2,1,2
 1139 0 1139 0 1242.5 23 c 128,-1,3
 1346 46 1346 46 1426.5 94.5 c 128,-1,4
 1507 143 1507 143 1551 225.5 c 128,-1,5
 1595 308 1595 308 1595 420 c 0,6,7
 1595 589 1595 589 1513 697 c 128,-1,8
 1431 805 1431 805 1281 848 c 1,9,-1
 1281 850 l 1,10,11
 1390 891 1390 891 1458 985.5 c 128,-1,12
 1526 1080 1526 1080 1526 1204 c 0,13,14
 1526 1304 1526 1304 1496 1378 c 128,-1,15
 1466 1452 1466 1452 1413.5 1499 c 128,-1,16
 1361 1546 1361 1546 1278.5 1574 c 128,-1,17
 1196 1602 1196 1602 1103.5 1612.5 c 128,-1,18
 1011 1623 1011 1623 889 1623 c 2,19,-1
 75 1622 l 1,20,-1
 75 1270 l 1,21,-1
 241 1270 l 1,22,-1
 240 359 l 1,23,-1
 68 359 l 1,24,-1
 68 0 l 1,0,-1
842 700 m 0,25,26
 871 700 871 700 894 697.5 c 128,-1,27
 917 695 917 695 945.5 684.5 c 128,-1,28
 974 674 974 674 993.5 656 c 128,-1,29
 1013 638 1013 638 1026.5 605 c 128,-1,30
 1040 572 1040 572 1040 527 c 0,31,32
 1040 502 1040 502 1036.5 481 c 128,-1,33
 1033 460 1033 460 1026.5 444.5 c 128,-1,34
 1020 429 1020 429 1011 416 c 128,-1,35
 1002 403 1002 403 990.5 394.5 c 128,-1,36
 979 386 979 386 965 379.5 c 128,-1,37
 951 373 951 373 935.5 369.5 c 128,-1,38
 920 366 920 366 903 363.5 c 128,-1,39
 886 361 886 361 867.5 360 c 128,-1,40
 849 359 849 359 829.5 358.5 c 128,-1,41
 810 358 810 358 789.696612063 358.94844184 c 0,42,43
 775 359 775 359 768 359 c 1,44,-1
 768 699 l 1,45,46
 831 700 831 700 842 700 c 0,25,26
768 1270 m 1,47,-1
 894 1270 l 2,48,49
 950 1270 950 1270 991 1234 c 128,-1,50
 1032 1198 1032 1198 1032 1131 c 0,51,52
 1032 1076 1032 1076 1015.5 1040.5 c 128,-1,53
 999 1005 999 1005 965 988.5 c 128,-1,54
 931 972 931 972 896.5 966.5 c 128,-1,55
 862 961 862 961 809 961 c 2,56,-1
 768 961 l 1,57,-1
 768 1270 l 1,47,-1
EndSplineSet
EndChar

StartChar: C
Encoding: 267 67 11
Width: 1522
VWidth: 0
Flags: W
HStem: -29 372<785.11 1066.91> 1290 362<670.5 1016.91>
VStem: 57 621<476.104 1130.81> 1155 301<430.695 612 991 1171.49>
LayerCount: 2
Fore
SplineSet
1456 612 m 1,0,-1
 1155 612 l 1,1,2
 1151 538 1151 538 1147 518 c 0,3,4
 1132 438 1132 438 1070.5 390.5 c 128,-1,5
 1009 343 1009 343 928 343 c 0,6,7
 867 343 867 343 821 365 c 128,-1,8
 775 387 775 387 749.5 424 c 128,-1,9
 724 461 724 461 706.5 509 c 128,-1,10
 689 557 689 557 685 609 c 128,-1,11
 681 661 681 661 678 713.5 c 128,-1,12
 675 766 675 766 677.667619777 811.432445345 c 1,13,14
 678 841 678 841 678 855 c 0,15,16
 678 902 678 902 679 935 c 128,-1,17
 680 968 680 968 685 1017 c 128,-1,18
 690 1066 690 1066 699 1100.5 c 128,-1,19
 708 1135 708 1135 726 1173 c 128,-1,20
 744 1211 744 1211 768.5 1235 c 128,-1,21
 793 1259 793 1259 830.5 1274.5 c 128,-1,22
 868 1290 868 1290 915 1290 c 0,23,24
 978 1290 978 1290 1026 1262.5 c 128,-1,25
 1074 1235 1074 1235 1100 1190 c 128,-1,26
 1126 1145 1126 1145 1138 1094.5 c 128,-1,27
 1150 1044 1150 1044 1149 991 c 1,28,-1
 1447 991 l 1,29,-1
 1446 1623 l 1,30,-1
 1135 1623 l 1,31,-1
 1101 1552 l 1,32,33
 1056 1595 1056 1595 988.5 1618.5 c 128,-1,34
 921 1642 921 1642 868 1647 c 128,-1,35
 815 1652 815 1652 741 1652 c 0,36,37
 600 1652 600 1652 484 1603 c 128,-1,38
 368 1554 368 1554 290 1472 c 128,-1,39
 212 1390 212 1390 158.5 1279.5 c 128,-1,40
 105 1169 105 1169 81 1050 c 128,-1,41
 57 931 57 931 57 804 c 0,42,43
 57 552 57 552 142.5 366.5 c 128,-1,44
 228 181 228 181 402.5 76 c 128,-1,45
 577 -29 577 -29 825 -29 c 0,46,47
 929 -29 929 -29 1032.5 -5 c 128,-1,48
 1136 19 1136 19 1209 52.5 c 128,-1,49
 1282 86 1282 86 1340 120 c 128,-1,50
 1398 154 1398 154 1427 178 c 2,51,-1
 1456 202 l 1,52,-1
 1456 612 l 1,0,-1
EndSplineSet
EndChar

StartChar: Ccedilla
Encoding: 269 199 13
Width: 1522
VWidth: 0
Flags: W
HStem: -485 113<630 770.581> -29 29<707 887> 1290 362<670.5 1016.91>
VStem: 57 621<476.104 1130.81> 817 203<-341.544 -186.382> 1155 301<430.695 612 991 1171.49>
LayerCount: 2
Fore
SplineSet
1456 612 m 1,0,-1
 1155 612 l 1,1,2
 1151 538 1151 538 1147 518 c 0,3,4
 1132 438 1132 438 1070.5 390.5 c 128,-1,5
 1009 343 1009 343 928 343 c 0,6,7
 867 343 867 343 821 365 c 128,-1,8
 775 387 775 387 749.5 424 c 128,-1,9
 724 461 724 461 706.5 509 c 128,-1,10
 689 557 689 557 685 609 c 128,-1,11
 681 661 681 661 678 713.5 c 128,-1,12
 675 766 675 766 677.66796875 811.432617188 c 1,13,14
 678 841 678 841 678 855 c 0,15,16
 678 902 678 902 679 935 c 128,-1,17
 680 968 680 968 685 1017 c 128,-1,18
 690 1066 690 1066 699 1100.5 c 128,-1,19
 708 1135 708 1135 726 1173 c 128,-1,20
 744 1211 744 1211 768.5 1235 c 128,-1,21
 793 1259 793 1259 830.5 1274.5 c 128,-1,22
 868 1290 868 1290 915 1290 c 0,23,24
 978 1290 978 1290 1026 1262.5 c 128,-1,25
 1074 1235 1074 1235 1100 1190 c 128,-1,26
 1126 1145 1126 1145 1138 1094.5 c 128,-1,27
 1150 1044 1150 1044 1149 991 c 1,28,-1
 1447 991 l 1,29,-1
 1446 1623 l 1,30,-1
 1135 1623 l 1,31,-1
 1101 1552 l 1,32,33
 1056 1595 1056 1595 988.5 1618.5 c 128,-1,34
 921 1642 921 1642 868 1647 c 128,-1,35
 815 1652 815 1652 741 1652 c 0,36,37
 600 1652 600 1652 484 1603 c 128,-1,38
 368 1554 368 1554 290 1472 c 128,-1,39
 212 1390 212 1390 158.5 1279.5 c 128,-1,40
 105 1169 105 1169 81 1050 c 128,-1,41
 57 931 57 931 57 804 c 0,42,43
 57 552 57 552 142.5 366.5 c 128,-1,44
 228 181 228 181 402.5 76 c 128,-1,45
 577 -29 577 -29 825 -29 c 0,46,47
 929 -29 929 -29 1032.5 -5 c 128,-1,48
 1136 19 1136 19 1209 52.5 c 128,-1,49
 1282 86 1282 86 1340 120 c 128,-1,50
 1398 154 1398 154 1427 178 c 2,51,-1
 1456 202 l 1,52,-1
 1456 612 l 1,0,-1
707 -119 m 1,53,54
 753 -145 753 -145 785 -188 c 128,-1,55
 817 -231 817 -231 817 -271 c 0,56,57
 817 -315 817 -315 772 -343 c 128,-1,58
 727 -371 727 -371 630 -372 c 1,59,-1
 630 -485 l 1,60,-1
 651 -485 l 2,61,62
 803 -485 803 -485 911.5 -426 c 128,-1,63
 1020 -367 1020 -367 1020 -285 c 0,64,65
 1020 -196 1020 -196 887 -119 c 1,66,-1
 887 0 l 1,67,-1
 707 0 l 1,68,-1
 707 -119 l 1,53,54
EndSplineSet
EndChar

StartChar: D
Encoding: 270 68 14
Width: 1780
VWidth: 0
Flags: W
VStem: 1126 594<543.309 1100.66>
LayerCount: 2
Fore
SplineSet
74 0 m 1,0,-1
 876 0 l 2,1,2
 1078 0 1078 0 1241 67 c 128,-1,3
 1404 134 1404 134 1507 247.5 c 128,-1,4
 1610 361 1610 361 1665 507 c 128,-1,5
 1720 653 1720 653 1720 816 c 0,6,7
 1720 1212 1720 1212 1515 1417.5 c 128,-1,8
 1310 1623 1310 1623 898 1623 c 2,9,-1
 68 1623 l 1,10,-1
 68 1271 l 1,11,-1
 237 1271 l 1,12,-1
 237 359 l 1,13,-1
 74 359 l 1,14,-1
 74 0 l 1,0,-1
784 359 m 1,15,-1
 784 1271 l 1,16,-1
 831 1271 l 2,17,18
 905 1271 905 1271 960 1242.5 c 128,-1,19
 1015 1214 1015 1214 1046 1170.5 c 128,-1,20
 1077 1127 1077 1127 1095.5 1064 c 128,-1,21
 1114 1001 1114 1001 1120 943.5 c 128,-1,22
 1126 886 1126 886 1126 817 c 0,23,24
 1126 750 1126 750 1118.5 690 c 128,-1,25
 1111 630 1111 630 1090 567.5 c 128,-1,26
 1069 505 1069 505 1036 460.5 c 128,-1,27
 1003 416 1003 416 947.5 387.5 c 128,-1,28
 892 359 892 359 819 359 c 2,29,-1
 784 359 l 1,15,-1
EndSplineSet
EndChar

StartChar: uni2206
Encoding: 271 8710 15
Width: 1432
VWidth: 0
Flags: W
HStem: 0 205<536 916>
LayerCount: 2
Fore
SplineSet
137 55 m 1,0,-1
 457 1238 l 1,1,-1
 930 1238 l 1,2,-1
 1220 55 l 1,3,-1
 1220 0 l 1,4,-1
 137 0 l 1,5,-1
 137 55 l 1,0,-1
536 205 m 1,6,-1
 916 205 l 1,7,-1
 745 1080 l 1,8,-1
 536 205 l 1,6,-1
EndSplineSet
EndChar

StartChar: E
Encoding: 272 69 16
Width: 1421
VWidth: 0
Flags: W
LayerCount: 2
Fore
SplineSet
1341 969 m 1,0,-1
 1341 1623 l 1,1,-1
 73 1623 l 1,2,-1
 73 1270 l 1,3,-1
 231 1270 l 1,4,-1
 231 359 l 1,5,-1
 73 359 l 1,6,-1
 73 0 l 1,7,-1
 1352 0 l 1,8,-1
 1352 687 l 1,9,-1
 1079 687 l 1,10,-1
 1016 420 l 1,11,-1
 1003 359 l 1,12,-1
 784 359 l 1,13,-1
 784 636 l 1,14,-1
 989 636 l 1,15,-1
 989 988 l 1,16,-1
 784 988 l 1,17,-1
 784 1270 l 1,18,-1
 997 1270 l 1,19,-1
 1073 968 l 1,20,-1
 1341 969 l 1,0,-1
EndSplineSet
EndChar

StartChar: Eacute
Encoding: 273 201 17
Width: 1421
VWidth: 0
Flags: W
LayerCount: 2
Fore
SplineSet
1341 969 m 1,0,-1
 1341 1623 l 1,1,-1
 73 1623 l 1,2,-1
 73 1270 l 1,3,-1
 231 1270 l 1,4,-1
 231 359 l 1,5,-1
 73 359 l 1,6,-1
 73 0 l 1,7,-1
 1352 0 l 1,8,-1
 1352 687 l 1,9,-1
 1079 687 l 1,10,-1
 1016 420 l 1,11,-1
 1003 359 l 1,12,-1
 784 359 l 1,13,-1
 784 636 l 1,14,-1
 989 636 l 1,15,-1
 989 988 l 1,16,-1
 784 988 l 1,17,-1
 784 1270 l 1,18,-1
 997 1270 l 1,19,-1
 1073 968 l 1,20,-1
 1341 969 l 1,0,-1
855 2270 m 1,21,-1
 381 1833 l 1,22,-1
 485 1692 l 1,23,-1
 1039 2005 l 1,24,-1
 855 2270 l 1,21,-1
EndSplineSet
EndChar

StartChar: Ecircumflex
Encoding: 274 202 18
Width: 1421
VWidth: 0
Flags: W
LayerCount: 2
Fore
SplineSet
1341 969 m 1,0,-1
 1341 1623 l 1,1,-1
 73 1623 l 1,2,-1
 73 1270 l 1,3,-1
 231 1270 l 1,4,-1
 231 359 l 1,5,-1
 73 359 l 1,6,-1
 73 0 l 1,7,-1
 1352 0 l 1,8,-1
 1352 687 l 1,9,-1
 1079 687 l 1,10,-1
 1016 420 l 1,11,-1
 1003 359 l 1,12,-1
 784 359 l 1,13,-1
 784 636 l 1,14,-1
 989 636 l 1,15,-1
 989 988 l 1,16,-1
 784 988 l 1,17,-1
 784 1270 l 1,18,-1
 997 1270 l 1,19,-1
 1073 968 l 1,20,-1
 1341 969 l 1,0,-1
574 2163 m 1,21,-1
 301 1786 l 1,22,-1
 455 1685 l 1,23,-1
 710 1930 l 1,24,-1
 965 1685 l 1,25,-1
 1119 1786 l 1,26,-1
 845 2162 l 1,27,-1
 574 2163 l 1,21,-1
EndSplineSet
EndChar

StartChar: Edieresis
Encoding: 275 203 19
Width: 1421
VWidth: 0
Flags: W
HStem: 1674 460<265.216 540.121 882.216 1157.12>
VStem: 176 452<1761.72 2049.11> 793 452<1761.72 2049.11>
LayerCount: 2
Fore
SplineSet
1341 969 m 1,0,-1
 1341 1623 l 1,1,-1
 73 1623 l 1,2,-1
 73 1270 l 1,3,-1
 231 1270 l 1,4,-1
 231 359 l 1,5,-1
 73 359 l 1,6,-1
 73 0 l 1,7,-1
 1352 0 l 1,8,-1
 1352 687 l 1,9,-1
 1079 687 l 1,10,-1
 1016 420 l 1,11,-1
 1003 359 l 1,12,-1
 784 359 l 1,13,-1
 784 636 l 1,14,-1
 989 636 l 1,15,-1
 989 988 l 1,16,-1
 784 988 l 1,17,-1
 784 1270 l 1,18,-1
 997 1270 l 1,19,-1
 1073 968 l 1,20,-1
 1341 969 l 1,0,-1
628 1904 m 0,21,22
 628 1796 628 1796 561.5 1735 c 128,-1,23
 495 1674 495 1674 404 1674 c 0,24,25
 311 1674 311 1674 243.5 1735.5 c 128,-1,26
 176 1797 176 1797 176 1907 c 0,27,28
 176 2014 176 2014 243 2074 c 128,-1,29
 310 2134 310 2134 402 2134 c 128,-1,30
 494 2134 494 2134 561 2073.5 c 128,-1,31
 628 2013 628 2013 628 1904 c 0,21,22
1245 1904 m 0,32,33
 1245 1796 1245 1796 1178.5 1735 c 128,-1,34
 1112 1674 1112 1674 1021 1674 c 0,35,36
 928 1674 928 1674 860.5 1735.5 c 128,-1,37
 793 1797 793 1797 793 1907 c 0,38,39
 793 2014 793 2014 860 2074 c 128,-1,40
 927 2134 927 2134 1019 2134 c 128,-1,41
 1111 2134 1111 2134 1178 2073.5 c 128,-1,42
 1245 2013 1245 2013 1245 1904 c 0,32,33
EndSplineSet
EndChar

StartChar: Egrave
Encoding: 276 200 20
Width: 1421
VWidth: 0
Flags: W
LayerCount: 2
Fore
SplineSet
1341 969 m 1,0,-1
 1341 1623 l 1,1,-1
 73 1623 l 1,2,-1
 73 1270 l 1,3,-1
 231 1270 l 1,4,-1
 231 359 l 1,5,-1
 73 359 l 1,6,-1
 73 0 l 1,7,-1
 1352 0 l 1,8,-1
 1352 687 l 1,9,-1
 1079 687 l 1,10,-1
 1016 420 l 1,11,-1
 1003 359 l 1,12,-1
 784 359 l 1,13,-1
 784 636 l 1,14,-1
 989 636 l 1,15,-1
 989 988 l 1,16,-1
 784 988 l 1,17,-1
 784 1270 l 1,18,-1
 997 1270 l 1,19,-1
 1073 968 l 1,20,-1
 1341 969 l 1,0,-1
565 2270 m 1,21,-1
 1039 1833 l 1,22,-1
 935 1692 l 1,23,-1
 381 2005 l 1,24,-1
 565 2270 l 1,21,-1
EndSplineSet
EndChar

StartChar: Eth
Encoding: 277 208 21
Width: 1780
VWidth: 0
Flags: W
VStem: 1126 594<541.764 1100.66>
LayerCount: 2
Fore
SplineSet
107 952 m 1,0,-1
 107 653 l 1,1,-1
 237 653 l 1,2,-1
 237 351 l 1,3,-1
 74 351 l 1,4,-1
 74 0 l 1,5,-1
 876 0 l 2,6,7
 1078 0 1078 0 1241 67 c 128,-1,8
 1404 134 1404 134 1507 247.5 c 128,-1,9
 1610 361 1610 361 1665 507 c 128,-1,10
 1720 653 1720 653 1720 816 c 0,11,12
 1720 1212 1720 1212 1515 1417.5 c 128,-1,13
 1310 1623 1310 1623 898 1623 c 2,14,-1
 68 1623 l 1,15,-1
 68 1271 l 1,16,-1
 237 1271 l 1,17,-1
 237 952 l 1,18,-1
 107 952 l 1,0,-1
788 351 m 1,19,-1
 785 653 l 1,20,-1
 870 653 l 1,21,-1
 870 952 l 1,22,-1
 784 952 l 1,23,24
 784 1000 784 1000 784 1053.5 c 128,-1,25
 784 1107 784 1107 784 1172 c 128,-1,26
 784 1237 784 1237 784 1271 c 1,27,-1
 831 1271 l 2,28,29
 905 1271 905 1271 960 1242.5 c 128,-1,30
 1015 1214 1015 1214 1046 1170.5 c 128,-1,31
 1077 1127 1077 1127 1095.5 1064 c 128,-1,32
 1114 1001 1114 1001 1120 943.5 c 128,-1,33
 1126 886 1126 886 1126 817 c 0,34,35
 1126 750 1126 750 1118.5 689.5 c 128,-1,36
 1111 629 1111 629 1090 565 c 128,-1,37
 1069 501 1069 501 1036 455.5 c 128,-1,38
 1003 410 1003 410 947.5 380.5 c 128,-1,39
 892 351 892 351 819 351 c 2,40,-1
 788 351 l 1,19,-1
EndSplineSet
EndChar

StartChar: Euro
Encoding: 278 8364 22
Width: 1522
VWidth: 0
Flags: W
HStem: -18 362<676.5 1016.91> 1290 362<689 1016.91>
VStem: 1135 311<429.048 643 991 1204.95>
LayerCount: 2
Fore
SplineSet
0 1091 m 1,0,-1
 0 867 l 1,1,-1
 88 867 l 1,2,3
 87 846 87 846 87 804 c 128,-1,4
 87 762 87 762 88 741 c 1,5,-1
 0 741 l 1,6,-1
 0 517 l 1,7,-1
 120 517 l 1,8,9
 148 402 148 402 198.5 308 c 128,-1,10
 249 214 249 214 324 139.5 c 128,-1,11
 399 65 399 65 505.5 23.5 c 128,-1,12
 612 -18 612 -18 741 -18 c 0,13,14
 815 -18 815 -18 868 -13 c 128,-1,15
 921 -8 921 -8 988.5 15.5 c 128,-1,16
 1056 39 1056 39 1101 82 c 1,17,-1
 1135 11 l 1,18,-1
 1446 11 l 1,19,-1
 1447 643 l 1,20,-1
 1149 643 l 1,21,22
 1150 590 1150 590 1138 539.5 c 128,-1,23
 1126 489 1126 489 1100 444 c 128,-1,24
 1074 399 1074 399 1026 371.5 c 128,-1,25
 978 344 978 344 915 344 c 0,26,27
 781 344 781 344 735 517 c 1,28,-1
 915 517 l 1,29,-1
 915 741 l 1,30,-1
 708 741 l 1,31,-1
 708 804 l 1,32,-1
 708 867 l 1,33,-1
 915 867 l 1,34,-1
 915 1091 l 1,35,-1
 732 1091 l 1,36,37
 778 1290 778 1290 915 1290 c 0,38,39
 978 1290 978 1290 1026 1262.5 c 128,-1,40
 1074 1235 1074 1235 1100 1190 c 128,-1,41
 1126 1145 1126 1145 1138 1094.5 c 128,-1,42
 1150 1044 1150 1044 1149 991 c 1,43,-1
 1447 991 l 1,44,-1
 1446 1623 l 1,45,-1
 1135 1623 l 1,46,-1
 1101 1552 l 1,47,48
 1056 1595 1056 1595 988.5 1618.5 c 128,-1,49
 921 1642 921 1642 868 1647 c 128,-1,50
 815 1652 815 1652 741 1652 c 0,51,52
 637 1652 637 1652 547 1622.5 c 128,-1,53
 457 1593 457 1593 389 1542 c 128,-1,54
 321 1491 321 1491 267 1419.5 c 128,-1,55
 213 1348 213 1348 177 1266.5 c 128,-1,56
 141 1185 141 1185 119 1091 c 1,57,-1
 0 1091 l 1,0,-1
EndSplineSet
EndChar

StartChar: F
Encoding: 279 70 23
Width: 1411
VWidth: 0
Flags: W
LayerCount: 2
Fore
SplineSet
993 999 m 1,0,-1
 791 999 l 1,1,-1
 791 1270 l 1,2,-1
 995 1270 l 1,3,-1
 1059 959 l 1,4,-1
 1343 959 l 1,5,-1
 1343 1623 l 1,6,-1
 68 1623 l 1,7,-1
 68 1270 l 1,8,-1
 226 1270 l 1,9,-1
 226 359 l 1,10,-1
 68 359 l 1,11,-1
 68 0 l 1,12,-1
 945 0 l 1,13,-1
 945 359 l 1,14,-1
 791 359 l 1,15,-1
 791 643 l 1,16,-1
 993 643 l 1,17,-1
 993 999 l 1,0,-1
EndSplineSet
EndChar

StartChar: G
Encoding: 280 71 24
Width: 1690
VWidth: 0
Flags: W
HStem: -29 347<809.867 1108.93> 1280 372<817.826 1109.74>
VStem: 57 605<500.435 1082.37> 1167 457<371.602 556.088> 1264 288<945 1136.07>
LayerCount: 2
Fore
SplineSet
1348 0 m 1,0,-1
 1624 0 l 1,1,-1
 1624 862 l 1,2,-1
 999 862 l 1,3,-1
 999 558 l 1,4,-1
 1159 557 l 1,5,6
 1167 528 1167 528 1167 476 c 0,7,8
 1167 403 1167 403 1110 360.5 c 128,-1,9
 1053 318 1053 318 977 318 c 0,10,11
 662 318 662 318 662 759 c 0,12,13
 662 822 662 822 666 874.5 c 128,-1,14
 670 927 670 927 681 990.5 c 128,-1,15
 692 1054 692 1054 714.5 1102.5 c 128,-1,16
 737 1151 737 1151 771 1193 c 128,-1,17
 805 1235 805 1235 859 1257.5 c 128,-1,18
 913 1280 913 1280 983 1280 c 0,19,20
 1046 1280 1046 1280 1093.5 1261.5 c 128,-1,21
 1141 1243 1141 1243 1169.5 1214.5 c 128,-1,22
 1198 1186 1198 1186 1218 1139 c 128,-1,23
 1238 1092 1238 1092 1247.5 1049 c 128,-1,24
 1257 1006 1257 1006 1264 945 c 1,25,-1
 1552 945 l 1,26,-1
 1552 1623 l 1,27,-1
 1237 1623 l 1,28,-1
 1193 1561 l 1,29,30
 1065 1652 1065 1652 860 1652 c 0,31,32
 669 1652 669 1652 514.5 1584 c 128,-1,33
 360 1516 360 1516 261 1398 c 128,-1,34
 162 1280 162 1280 109.5 1125 c 128,-1,35
 57 970 57 970 57 792 c 0,36,37
 57 638 57 638 99.5 506 c 128,-1,38
 142 374 142 374 219 276.5 c 128,-1,39
 296 179 296 179 402 110 c 128,-1,40
 508 41 508 41 637 6 c 128,-1,41
 766 -29 766 -29 911 -29 c 0,42,43
 1161 -29 1161 -29 1306 101 c 1,44,-1
 1348 0 l 1,0,-1
EndSplineSet
EndChar

StartChar: H
Encoding: 281 72 25
Width: 1837
VWidth: 0
Flags: W
LayerCount: 2
Fore
SplineSet
70 0 m 1,0,-1
 879 0 l 1,1,-1
 880 359 l 1,2,-1
 784 359 l 1,3,-1
 784 635 l 1,4,-1
 1053 635 l 1,5,-1
 1053 359 l 1,6,-1
 969 359 l 1,7,-1
 969 0 l 1,8,-1
 1769 0 l 1,9,-1
 1769 359 l 1,10,-1
 1622 359 l 1,11,-1
 1622 1270 l 1,12,-1
 1763 1270 l 1,13,-1
 1763 1623 l 1,14,-1
 965 1623 l 1,15,-1
 965 1270 l 1,16,-1
 1053 1270 l 1,17,-1
 1053 986 l 1,18,-1
 784 986 l 1,19,-1
 784 1270 l 1,20,-1
 879 1270 l 1,21,-1
 879 1623 l 1,22,-1
 70 1623 l 1,23,-1
 70 1270 l 1,24,-1
 217 1270 l 1,25,-1
 217 359 l 1,26,-1
 70 359 l 1,27,-1
 70 0 l 1,0,-1
EndSplineSet
EndChar

StartChar: I
Encoding: 282 73 26
Width: 1012
VWidth: 0
Flags: W
LayerCount: 2
Fore
SplineSet
938 1623 m 1,0,-1
 74 1623 l 1,1,-1
 74 1270 l 1,2,-1
 217 1270 l 1,3,-1
 217 359 l 1,4,-1
 70 359 l 1,5,-1
 70 0 l 1,6,-1
 932 0 l 1,7,-1
 932 359 l 1,8,-1
 791 359 l 1,9,-1
 791 1270 l 1,10,-1
 938 1270 l 1,11,-1
 938 1623 l 1,0,-1
EndSplineSet
EndChar

StartChar: Iacute
Encoding: 283 205 27
Width: 1012
VWidth: 0
Flags: W
LayerCount: 2
Fore
SplineSet
938 1623 m 1,0,-1
 74 1623 l 1,1,-1
 74 1270 l 1,2,-1
 217 1270 l 1,3,-1
 217 359 l 1,4,-1
 70 359 l 1,5,-1
 70 0 l 1,6,-1
 932 0 l 1,7,-1
 932 359 l 1,8,-1
 791 359 l 1,9,-1
 791 1270 l 1,10,-1
 938 1270 l 1,11,-1
 938 1623 l 1,0,-1
651 2270 m 1,12,-1
 177 1833 l 1,13,-1
 281 1692 l 1,14,-1
 835 2005 l 1,15,-1
 651 2270 l 1,12,-1
EndSplineSet
EndChar

StartChar: Icircumflex
Encoding: 284 206 28
Width: 1012
VWidth: 0
Flags: W
LayerCount: 2
Fore
SplineSet
938 1623 m 1,0,-1
 74 1623 l 1,1,-1
 74 1270 l 1,2,-1
 217 1270 l 1,3,-1
 217 359 l 1,4,-1
 70 359 l 1,5,-1
 70 0 l 1,6,-1
 932 0 l 1,7,-1
 932 359 l 1,8,-1
 791 359 l 1,9,-1
 791 1270 l 1,10,-1
 938 1270 l 1,11,-1
 938 1623 l 1,0,-1
370 2163 m 1,12,-1
 97 1786 l 1,13,-1
 251 1685 l 1,14,-1
 506 1930 l 1,15,-1
 761 1685 l 1,16,-1
 915 1786 l 1,17,-1
 641 2162 l 1,18,-1
 370 2163 l 1,12,-1
EndSplineSet
EndChar

StartChar: Idieresis
Encoding: 285 207 29
Width: 1012
VWidth: 0
Flags: W
HStem: 1674 460<61.2163 336.121 678.216 953.121>
VStem: -28 452<1761.72 2049.11> 589 452<1761.72 2049.11>
LayerCount: 2
Fore
SplineSet
938 1623 m 1,0,-1
 74 1623 l 1,1,-1
 74 1270 l 1,2,-1
 217 1270 l 1,3,-1
 217 359 l 1,4,-1
 70 359 l 1,5,-1
 70 0 l 1,6,-1
 932 0 l 1,7,-1
 932 359 l 1,8,-1
 791 359 l 1,9,-1
 791 1270 l 1,10,-1
 938 1270 l 1,11,-1
 938 1623 l 1,0,-1
424 1904 m 0,12,13
 424 1796 424 1796 357.5 1735 c 128,-1,14
 291 1674 291 1674 200 1674 c 0,15,16
 107 1674 107 1674 39.5 1735.5 c 128,-1,17
 -28 1797 -28 1797 -28 1907 c 0,18,19
 -28 2014 -28 2014 39 2074 c 128,-1,20
 106 2134 106 2134 198 2134 c 128,-1,21
 290 2134 290 2134 357 2073.5 c 128,-1,22
 424 2013 424 2013 424 1904 c 0,12,13
1041 1904 m 0,23,24
 1041 1796 1041 1796 974.5 1735 c 128,-1,25
 908 1674 908 1674 817 1674 c 0,26,27
 724 1674 724 1674 656.5 1735.5 c 128,-1,28
 589 1797 589 1797 589 1907 c 0,29,30
 589 2014 589 2014 656 2074 c 128,-1,31
 723 2134 723 2134 815 2134 c 128,-1,32
 907 2134 907 2134 974 2073.5 c 128,-1,33
 1041 2013 1041 2013 1041 1904 c 0,23,24
EndSplineSet
EndChar

StartChar: Igrave
Encoding: 286 204 30
Width: 1012
VWidth: 0
Flags: W
LayerCount: 2
Fore
SplineSet
938 1623 m 1,0,-1
 74 1623 l 1,1,-1
 74 1270 l 1,2,-1
 217 1270 l 1,3,-1
 217 359 l 1,4,-1
 70 359 l 1,5,-1
 70 0 l 1,6,-1
 932 0 l 1,7,-1
 932 359 l 1,8,-1
 791 359 l 1,9,-1
 791 1270 l 1,10,-1
 938 1270 l 1,11,-1
 938 1623 l 1,0,-1
361 2270 m 1,12,-1
 835 1833 l 1,13,-1
 731 1692 l 1,14,-1
 177 2005 l 1,15,-1
 361 2270 l 1,12,-1
EndSplineSet
EndChar

StartChar: J
Encoding: 287 74 31
Width: 1348
VWidth: 0
Flags: W
HStem: -30 395<436.953 764>
VStem: 52 304.5<401.066 589>
LayerCount: 2
Fore
SplineSet
52 -13 m 1,0,-1
 322 -13 l 1,1,-1
 359 79 l 1,2,3
 448 -30 448 -30 647 -30 c 0,4,5
 881 -30 881 -30 1012 107.5 c 128,-1,6
 1143 245 1143 245 1143 475 c 2,7,-1
 1143 1270 l 1,8,-1
 1290 1270 l 1,9,-1
 1290 1623 l 1,10,-1
 436 1623 l 1,11,-1
 436 1270 l 1,12,-1
 590 1270 l 1,13,-1
 590 572 l 2,14,15
 590 462 590 462 563 413.5 c 128,-1,16
 536 365 536 365 479 365 c 0,17,18
 454 365 454 365 433.5 376 c 128,-1,19
 413 387 413 387 400.5 402 c 128,-1,20
 388 417 388 417 379 443 c 128,-1,21
 370 469 370 469 365.5 489 c 128,-1,22
 361 509 361 509 359 541 c 128,-1,23
 357 573 357 573 356.5 589 c 128,-1,24
 356 605 356 605 356 633 c 1,25,-1
 52 633 l 1,26,-1
 52 -13 l 1,0,-1
EndSplineSet
EndChar

StartChar: K
Encoding: 288 75 32
Width: 1796
VWidth: 0
Flags: W
LayerCount: 2
Fore
SplineSet
68 1270 m 1,0,-1
 215 1270 l 1,1,-1
 215 359 l 1,2,-1
 68 359 l 1,3,-1
 68 0 l 1,4,-1
 895 0 l 1,5,-1
 895 35 l 1,6,-1
 889 359 l 1,7,-1
 762 359 l 1,8,-1
 762 640 l 1,9,-1
 932 640 l 2,10,11
 978 640 978 640 1010 590 c 128,-1,12
 1042 540 1042 540 1042 492 c 2,13,-1
 1042 307 l 2,14,15
 1042 0 1042 0 1378 0 c 2,16,-1
 1726 0 l 1,17,-1
 1720 359 l 1,18,-1
 1630 359 l 2,19,20
 1599 359 1599 359 1581 392.5 c 128,-1,21
 1563 426 1563 426 1563 461 c 2,22,-1
 1563 602 l 2,23,24
 1563 673 1563 673 1537.5 722.5 c 128,-1,25
 1512 772 1512 772 1463.5 799 c 128,-1,26
 1415 826 1415 826 1355 838 c 128,-1,27
 1295 850 1295 850 1217 850 c 1,28,-1
 1217 864 l 1,29,-1
 1536 1270 l 1,30,-1
 1673 1270 l 1,31,-1
 1673 1623 l 1,32,-1
 1049 1622 l 1,33,-1
 1049 1270 l 1,34,-1
 762 887 l 1,35,-1
 762 1270 l 1,36,-1
 889 1270 l 1,37,-1
 889 1622 l 1,38,-1
 68 1622 l 1,39,-1
 68 1270 l 1,0,-1
EndSplineSet
EndChar

StartChar: L
Encoding: 289 76 33
Width: 1417
VWidth: 0
Flags: W
LayerCount: 2
Fore
SplineSet
784 1270 m 1,0,-1
 938 1270 l 1,1,-1
 938 1622 l 1,2,-1
 70 1622 l 1,3,-1
 70 1270 l 1,4,-1
 217 1270 l 1,5,-1
 217 359 l 1,6,-1
 74 359 l 1,7,-1
 75 0 l 1,8,-1
 1348 0 l 1,9,-1
 1348 709 l 1,10,-1
 1062 709 l 1,11,-1
 975 359 l 1,12,-1
 784 359 l 1,13,-1
 784 1270 l 1,0,-1
EndSplineSet
EndChar

StartChar: Lslash
Encoding: 290 321 34
Width: 1417
VWidth: 0
Flags: W
DStem2: 39 656 139 478 0.86504 0.501703<0 1000.41>
LayerCount: 2
Fore
SplineSet
784 1270 m 1,0,-1
 938 1270 l 1,1,-1
 938 1622 l 1,2,-1
 70 1622 l 1,3,-1
 70 1270 l 1,4,-1
 217 1270 l 1,5,-1
 217 359 l 1,6,-1
 74 359 l 1,7,-1
 75 0 l 1,8,-1
 1348 0 l 1,9,-1
 1348 709 l 1,10,-1
 1062 709 l 1,11,-1
 975 359 l 1,12,-1
 784 359 l 1,13,-1
 784 1270 l 1,0,-1
39 656 m 1,14,-1
 139 478 l 1,15,-1
 1007 981 l 1,16,-1
 908 1160 l 1,17,-1
 39 656 l 1,14,-1
EndSplineSet
EndChar

StartChar: M
Encoding: 291 77 35
Width: 2353
VWidth: 0
Flags: W
HStem: 0 359<78 208.266 592.039 729>
LayerCount: 2
Fore
SplineSet
567 999 m 1,0,-1
 983 0 l 1,1,-1
 1264 0 l 1,2,-1
 1606 977 l 1,3,-1
 1606 359 l 1,4,-1
 1483 359 l 1,5,-1
 1483 0 l 1,6,-1
 2286 0 l 1,7,-1
 2286 359 l 1,8,-1
 2132 359 l 1,9,-1
 2132 1270 l 1,10,-1
 2279 1270 l 1,11,-1
 2279 1623 l 1,12,-1
 1495 1623 l 1,13,-1
 1219 856 l 1,14,-1
 909 1623 l 1,15,-1
 74 1623 l 1,16,-1
 75 1270 l 1,17,-1
 242 1270 l 1,18,-1
 242 608 l 2,19,20
 242 574 242 574 242 557.5 c 128,-1,21
 242 541 242 541 240.5 513.5 c 128,-1,22
 239 486 239 486 236 473 c 128,-1,23
 233 460 233 460 227.5 440 c 128,-1,24
 222 420 222 420 214 410.5 c 128,-1,25
 206 401 206 401 193.5 389 c 128,-1,26
 181 377 181 377 165 372 c 128,-1,27
 149 367 149 367 127 363 c 128,-1,28
 105 359 105 359 78 359 c 1,29,-1
 78 0 l 1,30,-1
 729 0 l 1,31,-1
 729 359 l 1,32,33
 702 359 702 359 680 362.5 c 128,-1,34
 658 366 658 366 642 370.5 c 128,-1,35
 626 375 626 375 614 385 c 128,-1,36
 602 395 602 395 594 402 c 128,-1,37
 586 409 586 409 580.5 424.5 c 128,-1,38
 575 440 575 440 572.5 448.5 c 128,-1,39
 570 457 570 457 568.5 476.5 c 128,-1,40
 567 496 567 496 567 505 c 128,-1,41
 567 514 567 514 567 535 c 2,42,-1
 567 999 l 1,0,-1
EndSplineSet
EndChar

StartChar: N
Encoding: 292 78 36
Width: 1924
VWidth: 0
Flags: W
HStem: 0 359<113 245.795 629.652 750> 1272 351<1192 1327.31 1708.65 1829>
VStem: 276 316<393.043 550>
LayerCount: 2
Fore
SplineSet
1829 1622 m 1,0,-1
 1192 1623 l 1,1,-1
 1192 1270 l 1,2,3
 1231 1271 1231 1271 1260 1266 c 128,-1,4
 1289 1261 1289 1261 1305.5 1247.5 c 128,-1,5
 1322 1234 1322 1234 1332 1221.5 c 128,-1,6
 1342 1209 1342 1209 1345.5 1186.5 c 128,-1,7
 1349 1164 1349 1164 1349.5 1152 c 128,-1,8
 1350 1140 1350 1140 1350 1116 c 2,9,-1
 1350 647 l 1,10,-1
 854 1623 l 1,11,-1
 119 1623 l 1,12,-1
 119 1272 l 1,13,-1
 276 1272 l 1,14,-1
 276 550 l 2,15,16
 276 512 276 512 274 490 c 128,-1,17
 272 468 272 468 263.5 439.5 c 128,-1,18
 255 411 255 411 238.5 396 c 128,-1,19
 222 381 222 381 190.5 370 c 128,-1,20
 159 359 159 359 113 359 c 1,21,-1
 113 0 l 1,22,-1
 750 0 l 1,23,-1
 750 359 l 1,24,25
 665 359 665 359 628.5 392 c 128,-1,26
 592 425 592 425 592 507 c 2,27,-1
 592 908 l 1,28,-1
 1065 0 l 1,29,-1
 1671 0 l 1,30,-1
 1671 1118 l 2,31,32
 1671 1192 1671 1192 1707.5 1231 c 128,-1,33
 1744 1270 1744 1270 1829 1270 c 1,34,-1
 1829 1622 l 1,0,-1
EndSplineSet
EndChar

StartChar: Ntilde
Encoding: 293 209 37
Width: 1847
VWidth: 0
Flags: W
HStem: 0 359<113 245.795 629.652 750> 1272 351<1192 1327.31 1708.65 1829> 1707 253<664.831 879.417> 1828 257<971.09 1186.86>
VStem: 276 316<393.043 550>
DStem2: 825 1979.5 873.5 1737.5 0.904739 0.425967<-82.3774 191.133>
LayerCount: 2
Fore
SplineSet
1829 1622 m 1,0,-1
 1192 1623 l 1,1,-1
 1192 1270 l 1,2,3
 1231 1271 1231 1271 1260 1266 c 128,-1,4
 1289 1261 1289 1261 1305.5 1247.5 c 128,-1,5
 1322 1234 1322 1234 1332 1221.5 c 128,-1,6
 1342 1209 1342 1209 1345.5 1186.5 c 128,-1,7
 1349 1164 1349 1164 1349.5 1152 c 128,-1,8
 1350 1140 1350 1140 1350 1116 c 2,9,-1
 1350 647 l 1,10,-1
 854 1623 l 1,11,-1
 119 1623 l 1,12,-1
 119 1272 l 1,13,-1
 276 1272 l 1,14,-1
 276 550 l 2,15,16
 276 512 276 512 274 490 c 128,-1,17
 272 468 272 468 263.5 439.5 c 128,-1,18
 255 411 255 411 238.5 396 c 128,-1,19
 222 381 222 381 190.5 370 c 128,-1,20
 159 359 159 359 113 359 c 1,21,-1
 113 0 l 1,22,-1
 750 0 l 1,23,-1
 750 359 l 1,24,25
 665 359 665 359 628.5 392 c 128,-1,26
 592 425 592 425 592 507 c 2,27,-1
 592 908 l 1,28,-1
 1065 0 l 1,29,-1
 1671 0 l 1,30,-1
 1671 1118 l 2,31,32
 1671 1192 1671 1192 1707.5 1231 c 128,-1,33
 1744 1270 1744 1270 1829 1270 c 1,34,-1
 1829 1622 l 1,0,-1
1097 2085 m 0,35,36
 1141 2085 1141 2085 1177 2066 c 128,-1,37
 1213 2047 1213 2047 1239 2012.5 c 128,-1,38
 1265 1978 1265 1978 1284.5 1944 c 128,-1,39
 1304 1910 1304 1910 1327.5 1865 c 128,-1,40
 1351 1820 1351 1820 1369 1794 c 1,41,-1
 1256 1720 l 1,42,43
 1183 1790 1183 1790 1155.5 1809 c 128,-1,44
 1128 1828 1128 1828 1109 1828 c 0,45,46
 1064 1828 1064 1828 1002 1798 c 128,-1,47
 940 1768 940 1768 873.5 1737.5 c 128,-1,48
 807 1707 807 1707 752 1707 c 0,49,50
 707 1707 707 1707 671 1725.5 c 128,-1,51
 635 1744 635 1744 608.5 1778.5 c 128,-1,52
 582 1813 582 1813 563 1846.5 c 128,-1,53
 544 1880 544 1880 520 1925.5 c 128,-1,54
 496 1971 496 1971 478 1997 c 1,55,-1
 592 2072 l 1,56,57
 668 1999 668 1999 696 1979.5 c 128,-1,58
 724 1960 724 1960 742 1960 c 0,59,60
 778 1960 778 1960 825 1979.5 c 128,-1,61
 872 1999 872 1999 911 2022.5 c 128,-1,62
 950 2046 950 2046 1001 2065.5 c 128,-1,63
 1052 2085 1052 2085 1097 2085 c 0,35,36
EndSplineSet
EndChar

StartChar: O
Encoding: 294 79 38
Width: 1769
VWidth: 0
Flags: W
HStem: -29 348<770.943 1001.16> 1296 357<763.959 1008.43>
VStem: 66 609.903<524.553 1112.09> 1096.2 609.798<524.553 1112.09>
LayerCount: 2
Fore
SplineSet
886 1653 m 128,-1,1
 1122 1653 1122 1653 1306.5 1553 c 128,-1,2
 1491 1453 1491 1453 1598.5 1259.5 c 128,-1,3
 1706 1066 1706 1066 1706 808 c 0,4,5
 1706 573 1706 573 1598.5 381 c 128,-1,6
 1491 189 1491 189 1303 80 c 128,-1,7
 1115 -29 1115 -29 886 -29 c 128,-1,8
 657 -29 657 -29 469 80 c 128,-1,9
 281 189 281 189 173.5 381 c 128,-1,10
 66 573 66 573 66 808 c 0,11,12
 66 1066 66 1066 173.5 1259.5 c 128,-1,13
 281 1453 281 1453 465.5 1553 c 128,-1,0
 650 1653 650 1653 886 1653 c 128,-1,1
886 319 m 0,14,15
 925 319 925 319 956 332 c 128,-1,16
 987 345 987 345 1008.5 368 c 128,-1,17
 1030 391 1030 391 1046 422 c 128,-1,18
 1062 453 1062 453 1071 489.5 c 128,-1,19
 1080 526 1080 526 1086 565 c 128,-1,20
 1092 604 1092 604 1093.5 643.5 c 128,-1,21
 1095 683 1095 683 1096 721 c 128,-1,22
 1097 759 1097 759 1096.09727713 792.63469733 c 0,23,24
 1096 813 1096 813 1096 823 c 0,25,26
 1096 834 1096 834 1096.20190441 858.024112254 c 1,27,28
 1095 894 1095 894 1096 934 c 128,-1,29
 1097 974 1097 974 1092.5 1016.5 c 128,-1,30
 1088 1059 1088 1059 1081.5 1099 c 128,-1,31
 1075 1139 1075 1139 1059 1175 c 128,-1,32
 1043 1211 1043 1211 1021.5 1238 c 128,-1,33
 1000 1265 1000 1265 965 1280.5 c 128,-1,34
 930 1296 930 1296 886 1296 c 0,35,36
 847 1296 847 1296 815.5 1284 c 128,-1,37
 784 1272 784 1272 763 1250.5 c 128,-1,38
 742 1229 742 1229 725.5 1200.5 c 128,-1,39
 709 1172 709 1172 700.5 1138.5 c 128,-1,40
 692 1105 692 1105 685.5 1068.5 c 128,-1,41
 679 1032 679 1032 678 995.5 c 128,-1,42
 677 959 677 959 675.5 924 c 128,-1,43
 674 889 674 889 675.798095589 858.024112254 c 1,44,45
 676 834 676 834 676 823 c 0,46,47
 676 813 676 813 675.902722867 792.63469733 c 0,48,49
 677 763 677 763 676 730 c 128,-1,50
 675 697 675 697 677.5 661.5 c 128,-1,51
 680 626 680 626 683 591 c 128,-1,52
 686 556 686 556 693.5 522 c 128,-1,53
 701 488 701 488 711 458 c 128,-1,54
 721 428 721 428 737 402.5 c 128,-1,55
 753 377 753 377 773.5 358.5 c 128,-1,56
 794 340 794 340 823 329.5 c 128,-1,57
 852 319 852 319 886 319 c 0,14,15
EndSplineSet
EndChar

StartChar: OE
Encoding: 295 338 39
Width: 3190
VWidth: 0
Flags: W
VStem: 57 616.586<505.467 1082.98>
LayerCount: 2
Fore
SplineSet
2217 0 m 1,0,-1
 2217 687 l 1,1,-1
 1944 687 l 1,2,-1
 1881 420 l 1,3,-1
 1868 350 l 1,4,-1
 1649 350 l 1,5,-1
 1649 636 l 1,6,-1
 1854 636 l 1,7,-1
 1854 988 l 1,8,-1
 1649 988 l 1,9,-1
 1649 1258 l 1,10,-1
 1862 1258 l 1,11,-1
 1938 956 l 1,12,-1
 2206 957 l 1,13,-1
 2206 1610 l 1,14,-1
 891 1610 l 2,15,16
 645 1610 645 1610 454.5 1506.5 c 128,-1,17
 264 1403 264 1403 160.5 1217 c 128,-1,18
 57 1031 57 1031 57 793 c 0,19,20
 58 433 58 433 286.5 216.5 c 128,-1,21
 515 0 515 0 897 0 c 2,22,-1
 2217 0 l 1,0,-1
674 755 m 0,23,24
 674 775 674 775 673.585799543 817.045867396 c 1,25,26
 671 870 671 870 673.5 923.5 c 128,-1,27
 676 977 676 977 679.5 1026 c 128,-1,28
 683 1075 683 1075 697.5 1117 c 128,-1,29
 712 1159 712 1159 734 1190 c 128,-1,30
 756 1221 756 1221 795 1239 c 128,-1,31
 834 1257 834 1257 886 1257 c 2,32,-1
 1096 1257 l 1,33,-1
 1096 350 l 1,34,-1
 897 350 l 2,35,36
 853 350 853 350 818.5 362 c 128,-1,37
 784 374 784 374 761 393 c 128,-1,38
 738 412 738 412 721.5 444.5 c 128,-1,39
 705 477 705 477 696 508 c 128,-1,40
 687 539 687 539 682 584.5 c 128,-1,41
 677 630 677 630 675.5 666.5 c 128,-1,42
 674 703 674 703 674 755 c 0,23,24
EndSplineSet
EndChar

StartChar: Oacute
Encoding: 296 211 40
Width: 1769
VWidth: 0
Flags: W
HStem: -29 348<770.943 1001.16> 1296 357<763.959 1008.43>
VStem: 66 609.902<524.553 1112.09> 1096.2 609.798<524.553 1112.09>
LayerCount: 2
Fore
SplineSet
886 1653 m 128,-1,1
 1122 1653 1122 1653 1306.5 1553 c 128,-1,2
 1491 1453 1491 1453 1598.5 1259.5 c 128,-1,3
 1706 1066 1706 1066 1706 808 c 0,4,5
 1706 573 1706 573 1598.5 381 c 128,-1,6
 1491 189 1491 189 1303 80 c 128,-1,7
 1115 -29 1115 -29 886 -29 c 128,-1,8
 657 -29 657 -29 469 80 c 128,-1,9
 281 189 281 189 173.5 381 c 128,-1,10
 66 573 66 573 66 808 c 0,11,12
 66 1066 66 1066 173.5 1259.5 c 128,-1,13
 281 1453 281 1453 465.5 1553 c 128,-1,0
 650 1653 650 1653 886 1653 c 128,-1,1
886 319 m 0,14,15
 925 319 925 319 956 332 c 128,-1,16
 987 345 987 345 1008.5 368 c 128,-1,17
 1030 391 1030 391 1046 422 c 128,-1,18
 1062 453 1062 453 1071 489.5 c 128,-1,19
 1080 526 1080 526 1086 565 c 128,-1,20
 1092 604 1092 604 1093.5 643.5 c 128,-1,21
 1095 683 1095 683 1096 721 c 128,-1,22
 1097 759 1097 759 1096.09765625 792.634765625 c 0,23,24
 1096 813 1096 813 1096 823 c 0,25,26
 1096 834 1096 834 1096.20214844 858.024414062 c 1,27,28
 1095 894 1095 894 1096 934 c 128,-1,29
 1097 974 1097 974 1092.5 1016.5 c 128,-1,30
 1088 1059 1088 1059 1081.5 1099 c 128,-1,31
 1075 1139 1075 1139 1059 1175 c 128,-1,32
 1043 1211 1043 1211 1021.5 1238 c 128,-1,33
 1000 1265 1000 1265 965 1280.5 c 128,-1,34
 930 1296 930 1296 886 1296 c 0,35,36
 847 1296 847 1296 815.5 1284 c 128,-1,37
 784 1272 784 1272 763 1250.5 c 128,-1,38
 742 1229 742 1229 725.5 1200.5 c 128,-1,39
 709 1172 709 1172 700.5 1138.5 c 128,-1,40
 692 1105 692 1105 685.5 1068.5 c 128,-1,41
 679 1032 679 1032 678 995.5 c 128,-1,42
 677 959 677 959 675.5 924 c 128,-1,43
 674 889 674 889 675.797851562 858.024414062 c 1,44,45
 676 834 676 834 676 823 c 0,46,47
 676 813 676 813 675.90234375 792.634765625 c 0,48,49
 677 763 677 763 676 730 c 128,-1,50
 675 697 675 697 677.5 661.5 c 128,-1,51
 680 626 680 626 683 591 c 128,-1,52
 686 556 686 556 693.5 522 c 128,-1,53
 701 488 701 488 711 458 c 128,-1,54
 721 428 721 428 737 402.5 c 128,-1,55
 753 377 753 377 773.5 358.5 c 128,-1,56
 794 340 794 340 823 329.5 c 128,-1,57
 852 319 852 319 886 319 c 0,14,15
1029 2270 m 1,58,-1
 555 1833 l 1,59,-1
 659 1692 l 1,60,-1
 1213 2005 l 1,61,-1
 1029 2270 l 1,58,-1
EndSplineSet
EndChar

StartChar: Ocircumflex
Encoding: 297 212 41
Width: 1769
VWidth: 0
Flags: W
HStem: -29 348<770.943 1001.16> 1296 357<763.959 1008.43>
VStem: 66 609.902<524.553 1112.09> 1096.2 609.798<524.553 1112.09>
LayerCount: 2
Fore
SplineSet
886 1653 m 128,-1,1
 1122 1653 1122 1653 1306.5 1553 c 128,-1,2
 1491 1453 1491 1453 1598.5 1259.5 c 128,-1,3
 1706 1066 1706 1066 1706 808 c 0,4,5
 1706 573 1706 573 1598.5 381 c 128,-1,6
 1491 189 1491 189 1303 80 c 128,-1,7
 1115 -29 1115 -29 886 -29 c 128,-1,8
 657 -29 657 -29 469 80 c 128,-1,9
 281 189 281 189 173.5 381 c 128,-1,10
 66 573 66 573 66 808 c 0,11,12
 66 1066 66 1066 173.5 1259.5 c 128,-1,13
 281 1453 281 1453 465.5 1553 c 128,-1,0
 650 1653 650 1653 886 1653 c 128,-1,1
886 319 m 0,14,15
 925 319 925 319 956 332 c 128,-1,16
 987 345 987 345 1008.5 368 c 128,-1,17
 1030 391 1030 391 1046 422 c 128,-1,18
 1062 453 1062 453 1071 489.5 c 128,-1,19
 1080 526 1080 526 1086 565 c 128,-1,20
 1092 604 1092 604 1093.5 643.5 c 128,-1,21
 1095 683 1095 683 1096 721 c 128,-1,22
 1097 759 1097 759 1096.09765625 792.634765625 c 0,23,24
 1096 813 1096 813 1096 823 c 0,25,26
 1096 834 1096 834 1096.20214844 858.024414062 c 1,27,28
 1095 894 1095 894 1096 934 c 128,-1,29
 1097 974 1097 974 1092.5 1016.5 c 128,-1,30
 1088 1059 1088 1059 1081.5 1099 c 128,-1,31
 1075 1139 1075 1139 1059 1175 c 128,-1,32
 1043 1211 1043 1211 1021.5 1238 c 128,-1,33
 1000 1265 1000 1265 965 1280.5 c 128,-1,34
 930 1296 930 1296 886 1296 c 0,35,36
 847 1296 847 1296 815.5 1284 c 128,-1,37
 784 1272 784 1272 763 1250.5 c 128,-1,38
 742 1229 742 1229 725.5 1200.5 c 128,-1,39
 709 1172 709 1172 700.5 1138.5 c 128,-1,40
 692 1105 692 1105 685.5 1068.5 c 128,-1,41
 679 1032 679 1032 678 995.5 c 128,-1,42
 677 959 677 959 675.5 924 c 128,-1,43
 674 889 674 889 675.797851562 858.024414062 c 1,44,45
 676 834 676 834 676 823 c 0,46,47
 676 813 676 813 675.90234375 792.634765625 c 0,48,49
 677 763 677 763 676 730 c 128,-1,50
 675 697 675 697 677.5 661.5 c 128,-1,51
 680 626 680 626 683 591 c 128,-1,52
 686 556 686 556 693.5 522 c 128,-1,53
 701 488 701 488 711 458 c 128,-1,54
 721 428 721 428 737 402.5 c 128,-1,55
 753 377 753 377 773.5 358.5 c 128,-1,56
 794 340 794 340 823 329.5 c 128,-1,57
 852 319 852 319 886 319 c 0,14,15
748 2163 m 1,58,-1
 475 1786 l 1,59,-1
 629 1685 l 1,60,-1
 884 1930 l 1,61,-1
 1139 1685 l 1,62,-1
 1293 1786 l 1,63,-1
 1019 2162 l 1,64,-1
 748 2163 l 1,58,-1
EndSplineSet
EndChar

StartChar: Odieresis
Encoding: 298 214 42
Width: 1769
VWidth: 0
Flags: W
HStem: -29 348<770.943 1001.16> 1296 357<763.959 1008.43> 1674 460<439.216 714.121 1056.22 1331.12>
VStem: 66 609.902<524.553 1112.09> 350 452<1761.72 2049.11> 967 452<1761.72 2049.11> 1096.2 609.798<524.553 1112.09>
LayerCount: 2
Fore
SplineSet
886 1653 m 128,-1,1
 1122 1653 1122 1653 1306.5 1553 c 128,-1,2
 1491 1453 1491 1453 1598.5 1259.5 c 128,-1,3
 1706 1066 1706 1066 1706 808 c 0,4,5
 1706 573 1706 573 1598.5 381 c 128,-1,6
 1491 189 1491 189 1303 80 c 128,-1,7
 1115 -29 1115 -29 886 -29 c 128,-1,8
 657 -29 657 -29 469 80 c 128,-1,9
 281 189 281 189 173.5 381 c 128,-1,10
 66 573 66 573 66 808 c 0,11,12
 66 1066 66 1066 173.5 1259.5 c 128,-1,13
 281 1453 281 1453 465.5 1553 c 128,-1,0
 650 1653 650 1653 886 1653 c 128,-1,1
886 319 m 0,14,15
 925 319 925 319 956 332 c 128,-1,16
 987 345 987 345 1008.5 368 c 128,-1,17
 1030 391 1030 391 1046 422 c 128,-1,18
 1062 453 1062 453 1071 489.5 c 128,-1,19
 1080 526 1080 526 1086 565 c 128,-1,20
 1092 604 1092 604 1093.5 643.5 c 128,-1,21
 1095 683 1095 683 1096 721 c 128,-1,22
 1097 759 1097 759 1096.09765625 792.634765625 c 0,23,24
 1096 813 1096 813 1096 823 c 0,25,26
 1096 834 1096 834 1096.20214844 858.024414062 c 1,27,28
 1095 894 1095 894 1096 934 c 128,-1,29
 1097 974 1097 974 1092.5 1016.5 c 128,-1,30
 1088 1059 1088 1059 1081.5 1099 c 128,-1,31
 1075 1139 1075 1139 1059 1175 c 128,-1,32
 1043 1211 1043 1211 1021.5 1238 c 128,-1,33
 1000 1265 1000 1265 965 1280.5 c 128,-1,34
 930 1296 930 1296 886 1296 c 0,35,36
 847 1296 847 1296 815.5 1284 c 128,-1,37
 784 1272 784 1272 763 1250.5 c 128,-1,38
 742 1229 742 1229 725.5 1200.5 c 128,-1,39
 709 1172 709 1172 700.5 1138.5 c 128,-1,40
 692 1105 692 1105 685.5 1068.5 c 128,-1,41
 679 1032 679 1032 678 995.5 c 128,-1,42
 677 959 677 959 675.5 924 c 128,-1,43
 674 889 674 889 675.797851562 858.024414062 c 1,44,45
 676 834 676 834 676 823 c 0,46,47
 676 813 676 813 675.90234375 792.634765625 c 0,48,49
 677 763 677 763 676 730 c 128,-1,50
 675 697 675 697 677.5 661.5 c 128,-1,51
 680 626 680 626 683 591 c 128,-1,52
 686 556 686 556 693.5 522 c 128,-1,53
 701 488 701 488 711 458 c 128,-1,54
 721 428 721 428 737 402.5 c 128,-1,55
 753 377 753 377 773.5 358.5 c 128,-1,56
 794 340 794 340 823 329.5 c 128,-1,57
 852 319 852 319 886 319 c 0,14,15
802 1904 m 0,58,59
 802 1796 802 1796 735.5 1735 c 128,-1,60
 669 1674 669 1674 578 1674 c 0,61,62
 485 1674 485 1674 417.5 1735.5 c 128,-1,63
 350 1797 350 1797 350 1907 c 0,64,65
 350 2014 350 2014 417 2074 c 128,-1,66
 484 2134 484 2134 576 2134 c 128,-1,67
 668 2134 668 2134 735 2073.5 c 128,-1,68
 802 2013 802 2013 802 1904 c 0,58,59
1419 1904 m 0,69,70
 1419 1796 1419 1796 1352.5 1735 c 128,-1,71
 1286 1674 1286 1674 1195 1674 c 0,72,73
 1102 1674 1102 1674 1034.5 1735.5 c 128,-1,74
 967 1797 967 1797 967 1907 c 0,75,76
 967 2014 967 2014 1034 2074 c 128,-1,77
 1101 2134 1101 2134 1193 2134 c 128,-1,78
 1285 2134 1285 2134 1352 2073.5 c 128,-1,79
 1419 2013 1419 2013 1419 1904 c 0,69,70
EndSplineSet
EndChar

StartChar: Ograve
Encoding: 299 210 43
Width: 1769
VWidth: 0
Flags: W
HStem: -29 348<770.943 1001.16> 1296 357<763.959 1008.43>
VStem: 66 609.902<524.553 1112.09> 1096.2 609.798<524.553 1112.09>
LayerCount: 2
Fore
SplineSet
886 1653 m 128,-1,1
 1122 1653 1122 1653 1306.5 1553 c 128,-1,2
 1491 1453 1491 1453 1598.5 1259.5 c 128,-1,3
 1706 1066 1706 1066 1706 808 c 0,4,5
 1706 573 1706 573 1598.5 381 c 128,-1,6
 1491 189 1491 189 1303 80 c 128,-1,7
 1115 -29 1115 -29 886 -29 c 128,-1,8
 657 -29 657 -29 469 80 c 128,-1,9
 281 189 281 189 173.5 381 c 128,-1,10
 66 573 66 573 66 808 c 0,11,12
 66 1066 66 1066 173.5 1259.5 c 128,-1,13
 281 1453 281 1453 465.5 1553 c 128,-1,0
 650 1653 650 1653 886 1653 c 128,-1,1
886 319 m 0,14,15
 925 319 925 319 956 332 c 128,-1,16
 987 345 987 345 1008.5 368 c 128,-1,17
 1030 391 1030 391 1046 422 c 128,-1,18
 1062 453 1062 453 1071 489.5 c 128,-1,19
 1080 526 1080 526 1086 565 c 128,-1,20
 1092 604 1092 604 1093.5 643.5 c 128,-1,21
 1095 683 1095 683 1096 721 c 128,-1,22
 1097 759 1097 759 1096.09765625 792.634765625 c 0,23,24
 1096 813 1096 813 1096 823 c 0,25,26
 1096 834 1096 834 1096.20214844 858.024414062 c 1,27,28
 1095 894 1095 894 1096 934 c 128,-1,29
 1097 974 1097 974 1092.5 1016.5 c 128,-1,30
 1088 1059 1088 1059 1081.5 1099 c 128,-1,31
 1075 1139 1075 1139 1059 1175 c 128,-1,32
 1043 1211 1043 1211 1021.5 1238 c 128,-1,33
 1000 1265 1000 1265 965 1280.5 c 128,-1,34
 930 1296 930 1296 886 1296 c 0,35,36
 847 1296 847 1296 815.5 1284 c 128,-1,37
 784 1272 784 1272 763 1250.5 c 128,-1,38
 742 1229 742 1229 725.5 1200.5 c 128,-1,39
 709 1172 709 1172 700.5 1138.5 c 128,-1,40
 692 1105 692 1105 685.5 1068.5 c 128,-1,41
 679 1032 679 1032 678 995.5 c 128,-1,42
 677 959 677 959 675.5 924 c 128,-1,43
 674 889 674 889 675.797851562 858.024414062 c 1,44,45
 676 834 676 834 676 823 c 0,46,47
 676 813 676 813 675.90234375 792.634765625 c 0,48,49
 677 763 677 763 676 730 c 128,-1,50
 675 697 675 697 677.5 661.5 c 128,-1,51
 680 626 680 626 683 591 c 128,-1,52
 686 556 686 556 693.5 522 c 128,-1,53
 701 488 701 488 711 458 c 128,-1,54
 721 428 721 428 737 402.5 c 128,-1,55
 753 377 753 377 773.5 358.5 c 128,-1,56
 794 340 794 340 823 329.5 c 128,-1,57
 852 319 852 319 886 319 c 0,14,15
739 2270 m 1,58,-1
 1213 1833 l 1,59,-1
 1109 1692 l 1,60,-1
 555 2005 l 1,61,-1
 739 2270 l 1,58,-1
EndSplineSet
EndChar

StartChar: Oslash
Encoding: 300 216 44
Width: 1769
VWidth: 0
Flags: W
HStem: -29 348<860 1001.16> 1633 20G<768 910>
VStem: 66 610<526.363 1112.09> 1096 610<524.553 1117.6>
DStem2: 582 -155 744 -194 0.219607 0.975589<0 176.148 608.39 1410.94 1849.05 2010.44>
LayerCount: 2
Fore
SplineSet
582 -155 m 1,0,-1
 620 12 l 1,1,2
 371 94 371 94 218.5 309.5 c 128,-1,3
 66 525 66 525 66 808 c 0,4,5
 66 1066 66 1066 173.5 1259.5 c 128,-1,6
 281 1453 281 1453 465.5 1553 c 128,-1,7
 650 1653 650 1653 886 1653 c 0,8,9
 934 1653 934 1653 997 1646 c 1,10,-1
 1034 1804 l 1,11,-1
 1187 1774 l 1,12,-1
 1151 1616 l 1,13,14
 1405 1541 1405 1541 1555.5 1329.5 c 128,-1,15
 1706 1118 1706 1118 1706 808 c 0,16,17
 1706 573 1706 573 1598.5 381 c 128,-1,18
 1491 189 1491 189 1303 80 c 128,-1,19
 1115 -29 1115 -29 886 -29 c 0,20,21
 833 -29 833 -29 782 -23 c 1,22,-1
 744 -194 l 1,23,-1
 582 -155 l 1,0,-1
886 1296 m 0,24,25
 847 1296 847 1296 815.5 1284 c 128,-1,26
 784 1272 784 1272 763 1250.5 c 128,-1,27
 742 1229 742 1229 725.5 1200.5 c 128,-1,28
 709 1172 709 1172 700.5 1138.5 c 128,-1,29
 692 1105 692 1105 685.5 1068.5 c 128,-1,30
 679 1032 679 1032 678 995.5 c 128,-1,31
 677 959 677 959 675.5 924 c 128,-1,32
 674 889 674 889 675.798095589 858.024112254 c 1,33,34
 676 834 676 834 676 823 c 0,35,36
 676 822 676 822 676 776 c 128,-1,37
 676 730 676 730 676 718 c 128,-1,38
 676 706 676 706 677 664 c 128,-1,39
 678 622 678 622 681 601 c 128,-1,40
 684 580 684 580 688.5 546.5 c 128,-1,41
 693 513 693 513 700.5 487 c 128,-1,42
 708 461 708 461 718 438 c 1,43,-1
 916 1294 l 1,44,45
 896 1296 896 1296 886 1296 c 0,24,25
886 319 m 0,46,47
 925 319 925 319 956 332 c 128,-1,48
 987 345 987 345 1008.5 368 c 128,-1,49
 1030 391 1030 391 1046 422 c 128,-1,50
 1062 453 1062 453 1071 489.5 c 128,-1,51
 1080 526 1080 526 1086 565 c 128,-1,52
 1092 604 1092 604 1093.5 643.5 c 128,-1,53
 1095 683 1095 683 1096 721 c 128,-1,54
 1097 759 1097 759 1096.09727713 792.63469733 c 0,55,56
 1096 813 1096 813 1096 823 c 0,57,58
 1096 830 1096 830 1096.5 867 c 128,-1,59
 1097 904 1097 904 1096.5 920 c 128,-1,60
 1096 936 1096 936 1095 971.5 c 128,-1,61
 1094 1007 1094 1007 1091 1029.5 c 128,-1,62
 1088 1052 1088 1052 1083.5 1082 c 128,-1,63
 1079 1112 1079 1112 1071.5 1137.5 c 128,-1,64
 1064 1163 1064 1163 1054 1185 c 1,65,-1
 860 320 l 1,66,67
 868 319 868 319 886 319 c 0,46,47
EndSplineSet
EndChar

StartChar: Otilde
Encoding: 301 213 45
Width: 1769
VWidth: 0
Flags: W
HStem: -29 348<770.943 1001.16> 1296 357<763.959 1008.43> 1707 253<625.831 840.417> 1828 257<932.09 1147.86>
VStem: 66 609.902<524.553 1112.09> 1096.2 609.798<524.553 1112.09>
DStem2: 786 1979.5 834.5 1737.5 0.904739 0.425967<-82.3774 191.133>
LayerCount: 2
Fore
SplineSet
886 1653 m 128,-1,1
 1122 1653 1122 1653 1306.5 1553 c 128,-1,2
 1491 1453 1491 1453 1598.5 1259.5 c 128,-1,3
 1706 1066 1706 1066 1706 808 c 0,4,5
 1706 573 1706 573 1598.5 381 c 128,-1,6
 1491 189 1491 189 1303 80 c 128,-1,7
 1115 -29 1115 -29 886 -29 c 128,-1,8
 657 -29 657 -29 469 80 c 128,-1,9
 281 189 281 189 173.5 381 c 128,-1,10
 66 573 66 573 66 808 c 0,11,12
 66 1066 66 1066 173.5 1259.5 c 128,-1,13
 281 1453 281 1453 465.5 1553 c 128,-1,0
 650 1653 650 1653 886 1653 c 128,-1,1
886 319 m 0,14,15
 925 319 925 319 956 332 c 128,-1,16
 987 345 987 345 1008.5 368 c 128,-1,17
 1030 391 1030 391 1046 422 c 128,-1,18
 1062 453 1062 453 1071 489.5 c 128,-1,19
 1080 526 1080 526 1086 565 c 128,-1,20
 1092 604 1092 604 1093.5 643.5 c 128,-1,21
 1095 683 1095 683 1096 721 c 128,-1,22
 1097 759 1097 759 1096.09765625 792.634765625 c 0,23,24
 1096 813 1096 813 1096 823 c 0,25,26
 1096 834 1096 834 1096.20214844 858.024414062 c 1,27,28
 1095 894 1095 894 1096 934 c 128,-1,29
 1097 974 1097 974 1092.5 1016.5 c 128,-1,30
 1088 1059 1088 1059 1081.5 1099 c 128,-1,31
 1075 1139 1075 1139 1059 1175 c 128,-1,32
 1043 1211 1043 1211 1021.5 1238 c 128,-1,33
 1000 1265 1000 1265 965 1280.5 c 128,-1,34
 930 1296 930 1296 886 1296 c 0,35,36
 847 1296 847 1296 815.5 1284 c 128,-1,37
 784 1272 784 1272 763 1250.5 c 128,-1,38
 742 1229 742 1229 725.5 1200.5 c 128,-1,39
 709 1172 709 1172 700.5 1138.5 c 128,-1,40
 692 1105 692 1105 685.5 1068.5 c 128,-1,41
 679 1032 679 1032 678 995.5 c 128,-1,42
 677 959 677 959 675.5 924 c 128,-1,43
 674 889 674 889 675.797851562 858.024414062 c 1,44,45
 676 834 676 834 676 823 c 0,46,47
 676 813 676 813 675.90234375 792.634765625 c 0,48,49
 677 763 677 763 676 730 c 128,-1,50
 675 697 675 697 677.5 661.5 c 128,-1,51
 680 626 680 626 683 591 c 128,-1,52
 686 556 686 556 693.5 522 c 128,-1,53
 701 488 701 488 711 458 c 128,-1,54
 721 428 721 428 737 402.5 c 128,-1,55
 753 377 753 377 773.5 358.5 c 128,-1,56
 794 340 794 340 823 329.5 c 128,-1,57
 852 319 852 319 886 319 c 0,14,15
1058 2085 m 0,58,59
 1102 2085 1102 2085 1138 2066 c 128,-1,60
 1174 2047 1174 2047 1200 2012.5 c 128,-1,61
 1226 1978 1226 1978 1245.5 1944 c 128,-1,62
 1265 1910 1265 1910 1288.5 1865 c 128,-1,63
 1312 1820 1312 1820 1330 1794 c 1,64,-1
 1217 1720 l 1,65,66
 1144 1790 1144 1790 1116.5 1809 c 128,-1,67
 1089 1828 1089 1828 1070 1828 c 0,68,69
 1025 1828 1025 1828 963 1798 c 128,-1,70
 901 1768 901 1768 834.5 1737.5 c 128,-1,71
 768 1707 768 1707 713 1707 c 0,72,73
 668 1707 668 1707 632 1725.5 c 128,-1,74
 596 1744 596 1744 569.5 1778.5 c 128,-1,75
 543 1813 543 1813 524 1846.5 c 128,-1,76
 505 1880 505 1880 481 1925.5 c 128,-1,77
 457 1971 457 1971 439 1997 c 1,78,-1
 553 2072 l 1,79,80
 629 1999 629 1999 657 1979.5 c 128,-1,81
 685 1960 685 1960 703 1960 c 0,82,83
 739 1960 739 1960 786 1979.5 c 128,-1,84
 833 1999 833 1999 872 2022.5 c 128,-1,85
 911 2046 911 2046 962 2065.5 c 128,-1,86
 1013 2085 1013 2085 1058 2085 c 0,58,59
EndSplineSet
EndChar

StartChar: P
Encoding: 302 80 46
Width: 1659
VWidth: 0
Flags: W
HStem: 559 336<778 979.575>
VStem: 1046 542<960.18 1220.44>
LayerCount: 2
Fore
SplineSet
63 0 m 1,0,-1
 924 0 l 1,1,-1
 924 359 l 1,2,-1
 778 359 l 1,3,-1
 778 569 l 1,4,5
 857 559 857 559 928 559 c 0,6,7
 1081 559 1081 559 1199.5 588 c 128,-1,8
 1318 617 1318 617 1407.5 680 c 128,-1,9
 1497 743 1497 743 1543.5 850.5 c 128,-1,10
 1590 958 1590 958 1588 1106 c 0,11,12
 1587 1191 1587 1191 1571.5 1261 c 128,-1,13
 1556 1331 1556 1331 1529 1381.5 c 128,-1,14
 1502 1432 1502 1432 1464 1472 c 128,-1,15
 1426 1512 1426 1512 1380 1537 c 128,-1,16
 1334 1562 1334 1562 1280.5 1580 c 128,-1,17
 1227 1598 1227 1598 1168 1605.5 c 128,-1,18
 1109 1613 1109 1613 1046.5 1618.5 c 128,-1,19
 984 1624 984 1624 919 1623 c 128,-1,20
 854 1622 854 1622 788.718779411 1623.22122272 c 0,21,22
 773 1623 773 1623 764.5 1623 c 128,-1,23
 756 1623 756 1623 743 1623 c 128,-1,24
 730 1623 730 1623 719 1623 c 2,25,-1
 68 1623 l 1,26,-1
 68 1270 l 1,27,-1
 219 1270 l 1,28,-1
 219 359 l 1,29,-1
 63 359 l 1,30,-1
 63 0 l 1,0,-1
778 1270 m 1,31,-1
 862 1270 l 2,32,33
 940 1270 940 1270 993 1228 c 128,-1,34
 1046 1186 1046 1186 1046 1096 c 0,35,36
 1046 895 1046 895 819 895 c 2,37,-1
 778 895 l 1,38,-1
 778 1270 l 1,31,-1
EndSplineSet
EndChar

StartChar: Q
Encoding: 303 81 47
Width: 1810
VWidth: 0
Flags: W
HStem: -30 368<766.018 1014.43> 1275 377<755.338 1009.42>
VStem: 57 617<512.069 1112.21> 1096.5 609.5<524.796 1110.17>
LayerCount: 2
Fore
SplineSet
897 -30 m 0,0,1
 937 -30 937 -30 1013 -22 c 1,2,-1
 1264 0 l 1,3,-1
 1748 0 l 1,4,-1
 1748 359 l 1,5,-1
 1585 359 l 1,6,7
 1706 562 1706 562 1706 807 c 0,8,9
 1706 1001 1706 1001 1644.5 1161 c 128,-1,10
 1583 1321 1583 1321 1474.5 1428 c 128,-1,11
 1366 1535 1366 1535 1216.5 1593.5 c 128,-1,12
 1067 1652 1067 1652 891 1652 c 0,13,14
 645 1652 645 1652 454.5 1546 c 128,-1,15
 264 1440 264 1440 160.5 1249.5 c 128,-1,16
 57 1059 57 1059 57 815 c 0,17,18
 57 565 57 565 160 373.5 c 128,-1,19
 263 182 263 182 454 76 c 128,-1,20
 645 -30 645 -30 897 -30 c 0,0,1
674 777 m 0,21,22
 674 839 674 839 674 895.5 c 128,-1,23
 674 952 674 952 678 1002.5 c 128,-1,24
 682 1053 682 1053 689.5 1095 c 128,-1,25
 697 1137 697 1137 712 1170.5 c 128,-1,26
 727 1204 727 1204 750 1227 c 128,-1,27
 773 1250 773 1250 807 1262.5 c 128,-1,28
 841 1275 841 1275 886 1275 c 0,29,30
 937 1275 937 1275 974.5 1256.5 c 128,-1,31
 1012 1238 1012 1238 1034 1198 c 128,-1,32
 1056 1158 1056 1158 1069.5 1121.5 c 128,-1,33
 1083 1085 1083 1085 1088.5 1022 c 128,-1,34
 1094 959 1094 959 1095 923 c 128,-1,35
 1096 887 1096 887 1096 822 c 0,36,37
 1096 807 1096 807 1096.41995764 774.820794351 c 1,38,39
 1099 732 1099 732 1096.5 683 c 128,-1,40
 1094 634 1094 634 1091 585.5 c 128,-1,41
 1088 537 1088 537 1074.5 492 c 128,-1,42
 1061 447 1061 447 1040.5 413 c 128,-1,43
 1020 379 1020 379 983 358.5 c 128,-1,44
 946 338 946 338 897 338 c 0,45,46
 858 338 858 338 827 347 c 128,-1,47
 796 356 796 356 773.5 375 c 128,-1,48
 751 394 751 394 734.5 416 c 128,-1,49
 718 438 718 438 707.5 472.5 c 128,-1,50
 697 507 697 507 690 537.5 c 128,-1,51
 683 568 683 568 680 613 c 128,-1,52
 677 658 677 658 675.5 692 c 128,-1,53
 674 726 674 726 674 777 c 0,21,22
EndSplineSet
EndChar

StartChar: R
Encoding: 304 82 48
Width: 1769
VWidth: 0
Flags: W
HStem: 694 226<819 999>
VStem: 1069 549<994.631 1215.68>
LayerCount: 2
Fore
SplineSet
885 359 m 1,0,-1
 764 359 l 1,1,-1
 764 694 l 1,2,-1
 862 694 l 2,3,4
 922 694 922 694 960 677 c 128,-1,5
 998 660 998 660 1016.5 624.5 c 128,-1,6
 1035 589 1035 589 1041.5 549.5 c 128,-1,7
 1048 510 1048 510 1048 451 c 2,8,-1
 1048 256 l 2,9,10
 1048 215 1048 215 1056 180.5 c 128,-1,11
 1064 146 1064 146 1076 121 c 128,-1,12
 1088 96 1088 96 1109.5 76.5 c 128,-1,13
 1131 57 1131 57 1150.5 44.5 c 128,-1,14
 1170 32 1170 32 1201.5 23 c 128,-1,15
 1233 14 1233 14 1256 9.5 c 128,-1,16
 1279 5 1279 5 1316.5 3 c 128,-1,17
 1354 1 1354 1 1376.5 0.5 c 128,-1,18
 1399 0 1399 0 1438 0 c 2,19,-1
 1700 0 l 1,20,-1
 1700 359 l 1,21,22
 1644 359 1644 359 1610.5 365.5 c 128,-1,23
 1577 372 1577 372 1561 387.5 c 128,-1,24
 1545 403 1545 403 1540.5 420 c 128,-1,25
 1536 437 1536 437 1536 466 c 2,26,-1
 1536 559 l 2,27,28
 1536 651 1536 651 1472 712 c 128,-1,29
 1408 773 1408 773 1259 807 c 1,30,31
 1431 839 1431 839 1524.5 932 c 128,-1,32
 1618 1025 1618 1025 1618 1170 c 0,33,34
 1618 1293 1618 1293 1581 1381.5 c 128,-1,35
 1544 1470 1544 1470 1472.5 1522.5 c 128,-1,36
 1401 1575 1401 1575 1306.5 1599 c 128,-1,37
 1212 1623 1212 1623 1089 1623 c 2,38,-1
 74 1623 l 1,39,-1
 74 1270 l 1,40,-1
 229 1270 l 1,41,-1
 229 359 l 1,42,-1
 75 359 l 1,43,-1
 75 -1 l 1,44,45
 621 0 621 0 885 0 c 1,46,-1
 885 359 l 1,0,-1
758 920 m 1,47,-1
 758 1270 l 1,48,-1
 879 1270 l 2,49,50
 968 1270 968 1270 1018.5 1222.5 c 128,-1,51
 1069 1175 1069 1175 1069 1096 c 0,52,53
 1069 1046 1069 1046 1048 1010 c 128,-1,54
 1027 974 1027 974 990 955 c 128,-1,55
 953 936 953 936 911.5 928 c 128,-1,56
 870 920 870 920 819 920 c 2,57,-1
 758 920 l 1,47,-1
EndSplineSet
EndChar

StartChar: S
Encoding: 305 83 49
Width: 1331
VWidth: 0
Flags: W
HStem: -29 363<574.242 844.5> 1305 348<412.5 746.874>
VStem: 68 467<1100 1286.41> 846 307<1107 1203.69 1563 1621.51>
LayerCount: 2
Fore
SplineSet
868 1623 m 1,0,1
 840 1575 840 1575 836 1563 c 1,2,3
 717 1653 717 1653 524 1653 c 0,4,5
 301 1653 301 1653 184.5 1512 c 128,-1,6
 68 1371 68 1371 68 1133 c 0,7,8
 68 1067 68 1067 77.5 1010 c 128,-1,9
 87 953 87 953 103 907 c 128,-1,10
 119 861 119 861 145 820.5 c 128,-1,11
 171 780 171 780 200 749 c 128,-1,12
 229 718 229 718 269 690 c 128,-1,13
 309 662 309 662 347.5 641.5 c 128,-1,14
 386 621 386 621 437 601 c 128,-1,15
 488 581 488 581 533 566.5 c 128,-1,16
 578 552 578 552 637 535 c 0,17,18
 674 525 674 525 699 514 c 128,-1,19
 724 503 724 503 746 478.5 c 128,-1,20
 768 454 768 454 768 420 c 0,21,22
 768 379 768 379 735.5 356.5 c 128,-1,23
 703 334 703 334 659 334 c 0,24,25
 586 334 586 334 519 389.5 c 128,-1,26
 452 445 452 445 426 518 c 1,27,-1
 104 518 l 1,28,-1
 104 0 l 1,29,-1
 427 0 l 1,30,-1
 463 92 l 1,31,32
 541 26 541 26 612.5 -1.5 c 128,-1,33
 684 -29 684 -29 792 -29 c 0,34,35
 897 -29 897 -29 988.5 16.5 c 128,-1,36
 1080 62 1080 62 1141.5 137 c 128,-1,37
 1203 212 1203 212 1237.5 309 c 128,-1,38
 1272 406 1272 406 1270 508 c 0,39,40
 1268 612 1268 612 1241.5 696.5 c 128,-1,41
 1215 781 1215 781 1172 837.5 c 128,-1,42
 1129 894 1129 894 1074 937.5 c 128,-1,43
 1019 981 1019 981 958.5 1007.5 c 128,-1,44
 898 1034 898 1034 837.5 1055 c 128,-1,45
 777 1076 777 1076 722.5 1091.5 c 128,-1,46
 668 1107 668 1107 626 1123 c 128,-1,47
 584 1139 584 1139 559.5 1161 c 128,-1,48
 535 1183 535 1183 535 1213 c 0,49,50
 535 1259 535 1259 560 1282 c 128,-1,51
 585 1305 585 1305 629 1305 c 0,52,53
 704 1305 704 1305 766 1245 c 128,-1,54
 828 1185 828 1185 846 1107 c 1,55,-1
 1153 1107 l 1,56,-1
 1153 1623 l 1,57,-1
 868 1623 l 1,0,1
EndSplineSet
EndChar

StartChar: Scaron
Encoding: 306 352 50
Width: 1331
VWidth: 0
Flags: W
HStem: -29 363<574.242 844.5> 1305 348<412.5 746.874>
VStem: 68 467<1100 1286.41> 846 307<1107 1203.69 1563 1621.51>
LayerCount: 2
Fore
SplineSet
868 1623 m 1,0,1
 840 1575 840 1575 836 1563 c 1,2,3
 717 1653 717 1653 524 1653 c 0,4,5
 301 1653 301 1653 184.5 1512 c 128,-1,6
 68 1371 68 1371 68 1133 c 0,7,8
 68 1067 68 1067 77.5 1010 c 128,-1,9
 87 953 87 953 103 907 c 128,-1,10
 119 861 119 861 145 820.5 c 128,-1,11
 171 780 171 780 200 749 c 128,-1,12
 229 718 229 718 269 690 c 128,-1,13
 309 662 309 662 347.5 641.5 c 128,-1,14
 386 621 386 621 437 601 c 128,-1,15
 488 581 488 581 533 566.5 c 128,-1,16
 578 552 578 552 637 535 c 0,17,18
 674 525 674 525 699 514 c 128,-1,19
 724 503 724 503 746 478.5 c 128,-1,20
 768 454 768 454 768 420 c 0,21,22
 768 379 768 379 735.5 356.5 c 128,-1,23
 703 334 703 334 659 334 c 0,24,25
 586 334 586 334 519 389.5 c 128,-1,26
 452 445 452 445 426 518 c 1,27,-1
 104 518 l 1,28,-1
 104 0 l 1,29,-1
 427 0 l 1,30,-1
 463 92 l 1,31,32
 541 26 541 26 612.5 -1.5 c 128,-1,33
 684 -29 684 -29 792 -29 c 0,34,35
 897 -29 897 -29 988.5 16.5 c 128,-1,36
 1080 62 1080 62 1141.5 137 c 128,-1,37
 1203 212 1203 212 1237.5 309 c 128,-1,38
 1272 406 1272 406 1270 508 c 0,39,40
 1268 612 1268 612 1241.5 696.5 c 128,-1,41
 1215 781 1215 781 1172 837.5 c 128,-1,42
 1129 894 1129 894 1074 937.5 c 128,-1,43
 1019 981 1019 981 958.5 1007.5 c 128,-1,44
 898 1034 898 1034 837.5 1055 c 128,-1,45
 777 1076 777 1076 722.5 1091.5 c 128,-1,46
 668 1107 668 1107 626 1123 c 128,-1,47
 584 1139 584 1139 559.5 1161 c 128,-1,48
 535 1183 535 1183 535 1213 c 0,49,50
 535 1259 535 1259 560 1282 c 128,-1,51
 585 1305 585 1305 629 1305 c 0,52,53
 704 1305 704 1305 766 1245 c 128,-1,54
 828 1185 828 1185 846 1107 c 1,55,-1
 1153 1107 l 1,56,-1
 1153 1623 l 1,57,-1
 868 1623 l 1,0,1
529 1711 m 1,58,-1
 256 2088 l 1,59,-1
 410 2189 l 1,60,-1
 665 1944 l 1,61,-1
 920 2189 l 1,62,-1
 1074 2088 l 1,63,-1
 800 1712 l 1,64,-1
 529 1711 l 1,58,-1
EndSplineSet
EndChar

StartChar: T
Encoding: 307 84 51
Width: 1595
VWidth: 0
Flags: W
LayerCount: 2
Fore
SplineSet
1532 965 m 1,0,-1
 1532 1622 l 1,1,-1
 75 1622 l 1,2,-1
 75 965 l 1,3,-1
 356 965 l 1,4,-1
 420 1270 l 1,5,-1
 520 1270 l 1,6,-1
 520 360 l 1,7,-1
 356 360 l 1,8,-1
 356 0 l 1,9,-1
 1247 0 l 1,10,-1
 1247 360 l 1,11,-1
 1083 360 l 1,12,-1
 1083 1270 l 1,13,-1
 1189 1270 l 1,14,-1
 1251 965 l 1,15,-1
 1532 965 l 1,0,-1
EndSplineSet
EndChar

StartChar: Thorn
Encoding: 308 222 52
Width: 1659
VWidth: 0
Flags: W
HStem: 559 336<778 1015.3>
VStem: 1066 522<943.575 1162.63>
LayerCount: 2
Fore
SplineSet
63 0 m 1,0,-1
 924 0 l 1,1,-1
 924 363 l 1,2,-1
 778 363 l 1,3,-1
 778 569 l 1,4,5
 857 559 857 559 928 559 c 0,6,7
 1080 559 1080 559 1198.5 587.5 c 128,-1,8
 1317 616 1317 616 1405.5 675.5 c 128,-1,9
 1494 735 1494 735 1541 833.5 c 128,-1,10
 1588 932 1588 932 1588 1066 c 0,11,12
 1588 1139 1588 1139 1572.5 1200 c 128,-1,13
 1557 1261 1557 1261 1531.5 1306.5 c 128,-1,14
 1506 1352 1506 1352 1465 1388.5 c 128,-1,15
 1424 1425 1424 1425 1380.5 1449.5 c 128,-1,16
 1337 1474 1337 1474 1277.5 1492 c 128,-1,17
 1218 1510 1218 1510 1163.5 1520 c 128,-1,18
 1109 1530 1109 1530 1038 1535.5 c 128,-1,19
 967 1541 967 1541 909 1542 c 128,-1,20
 851 1543 851 1543 777 1543 c 1,21,-1
 778 1843 l 1,22,-1
 68 1843 l 1,23,-1
 68 1488 l 1,24,-1
 219 1488 l 1,25,-1
 219 363 l 1,26,-1
 63 363 l 1,27,-1
 63 0 l 1,0,-1
778 1208 m 1,28,-1
 882 1208 l 2,29,30
 959 1208 959 1208 1012.5 1170 c 128,-1,31
 1066 1132 1066 1132 1066 1056 c 0,32,33
 1066 970 1066 970 1007.5 932.5 c 128,-1,34
 949 895 949 895 839 895 c 2,35,-1
 778 895 l 1,36,-1
 778 1208 l 1,28,-1
EndSplineSet
EndChar

StartChar: U
Encoding: 309 85 53
Width: 1710
VWidth: 0
Flags: W
HStem: -29 375<792.629 1102.75>
LayerCount: 2
Fore
SplineSet
1499 1270 m 1,0,-1
 1653 1270 l 1,1,-1
 1653 1622 l 1,2,-1
 999 1622 l 1,3,-1
 999 1270 l 1,4,-1
 1163 1270 l 1,5,-1
 1163 536 l 2,6,7
 1163 448 1163 448 1111 397 c 128,-1,8
 1059 346 1059 346 967 346 c 0,9,10
 915 346 915 346 876.5 368 c 128,-1,11
 838 390 838 390 817.5 427.5 c 128,-1,12
 797 465 797 465 787.5 508 c 128,-1,13
 778 551 778 551 778 600 c 2,14,-1
 778 1270 l 1,15,-1
 926 1270 l 1,16,-1
 926 1622 l 1,17,-1
 57 1622 l 1,18,-1
 57 1270 l 1,19,-1
 218 1270 l 1,20,-1
 218 704 l 2,21,22
 218 616 218 616 225.5 541 c 128,-1,23
 233 466 233 466 252.5 390 c 128,-1,24
 272 314 272 314 303 253 c 128,-1,25
 334 192 334 192 383 138 c 128,-1,26
 432 84 432 84 496.5 48 c 128,-1,27
 561 12 561 12 650 -8.5 c 128,-1,28
 739 -29 739 -29 848 -29 c 0,29,30
 1019 -29 1019 -29 1167 39 c 128,-1,31
 1315 107 1315 107 1407 234.5 c 128,-1,32
 1499 362 1499 362 1499 520 c 2,33,-1
 1499 1270 l 1,0,-1
EndSplineSet
EndChar

StartChar: Uacute
Encoding: 310 218 54
Width: 1710
VWidth: 0
Flags: W
HStem: -29 375<792.629 1102.75>
LayerCount: 2
Fore
SplineSet
1499 1270 m 1,0,-1
 1653 1270 l 1,1,-1
 1653 1622 l 1,2,-1
 999 1622 l 1,3,-1
 999 1270 l 1,4,-1
 1163 1270 l 1,5,-1
 1163 536 l 2,6,7
 1163 448 1163 448 1111 397 c 128,-1,8
 1059 346 1059 346 967 346 c 0,9,10
 915 346 915 346 876.5 368 c 128,-1,11
 838 390 838 390 817.5 427.5 c 128,-1,12
 797 465 797 465 787.5 508 c 128,-1,13
 778 551 778 551 778 600 c 2,14,-1
 778 1270 l 1,15,-1
 926 1270 l 1,16,-1
 926 1622 l 1,17,-1
 57 1622 l 1,18,-1
 57 1270 l 1,19,-1
 218 1270 l 1,20,-1
 218 704 l 2,21,22
 218 616 218 616 225.5 541 c 128,-1,23
 233 466 233 466 252.5 390 c 128,-1,24
 272 314 272 314 303 253 c 128,-1,25
 334 192 334 192 383 138 c 128,-1,26
 432 84 432 84 496.5 48 c 128,-1,27
 561 12 561 12 650 -8.5 c 128,-1,28
 739 -29 739 -29 848 -29 c 0,29,30
 1019 -29 1019 -29 1167 39 c 128,-1,31
 1315 107 1315 107 1407 234.5 c 128,-1,32
 1499 362 1499 362 1499 520 c 2,33,-1
 1499 1270 l 1,0,-1
1000 2270 m 1,34,-1
 526 1833 l 1,35,-1
 630 1692 l 1,36,-1
 1184 2005 l 1,37,-1
 1000 2270 l 1,34,-1
EndSplineSet
EndChar

StartChar: Ucircumflex
Encoding: 311 219 55
Width: 1710
VWidth: 0
Flags: W
HStem: -29 375<792.629 1102.75>
LayerCount: 2
Fore
SplineSet
1499 1270 m 1,0,-1
 1653 1270 l 1,1,-1
 1653 1622 l 1,2,-1
 999 1622 l 1,3,-1
 999 1270 l 1,4,-1
 1163 1270 l 1,5,-1
 1163 536 l 2,6,7
 1163 448 1163 448 1111 397 c 128,-1,8
 1059 346 1059 346 967 346 c 0,9,10
 915 346 915 346 876.5 368 c 128,-1,11
 838 390 838 390 817.5 427.5 c 128,-1,12
 797 465 797 465 787.5 508 c 128,-1,13
 778 551 778 551 778 600 c 2,14,-1
 778 1270 l 1,15,-1
 926 1270 l 1,16,-1
 926 1622 l 1,17,-1
 57 1622 l 1,18,-1
 57 1270 l 1,19,-1
 218 1270 l 1,20,-1
 218 704 l 2,21,22
 218 616 218 616 225.5 541 c 128,-1,23
 233 466 233 466 252.5 390 c 128,-1,24
 272 314 272 314 303 253 c 128,-1,25
 334 192 334 192 383 138 c 128,-1,26
 432 84 432 84 496.5 48 c 128,-1,27
 561 12 561 12 650 -8.5 c 128,-1,28
 739 -29 739 -29 848 -29 c 0,29,30
 1019 -29 1019 -29 1167 39 c 128,-1,31
 1315 107 1315 107 1407 234.5 c 128,-1,32
 1499 362 1499 362 1499 520 c 2,33,-1
 1499 1270 l 1,0,-1
719 2163 m 1,34,-1
 446 1786 l 1,35,-1
 600 1685 l 1,36,-1
 855 1930 l 1,37,-1
 1110 1685 l 1,38,-1
 1264 1786 l 1,39,-1
 990 2162 l 1,40,-1
 719 2163 l 1,34,-1
EndSplineSet
EndChar

StartChar: Udieresis
Encoding: 312 220 56
Width: 1710
VWidth: 0
Flags: W
HStem: -29 375<792.629 1102.75> 1674 460<409.216 684.121 1026.22 1301.12>
VStem: 320 452<1761.72 2049.11> 937 452<1761.72 2049.11>
LayerCount: 2
Fore
SplineSet
1499 1270 m 1,0,-1
 1653 1270 l 1,1,-1
 1653 1622 l 1,2,-1
 999 1622 l 1,3,-1
 999 1270 l 1,4,-1
 1163 1270 l 1,5,-1
 1163 536 l 2,6,7
 1163 448 1163 448 1111 397 c 128,-1,8
 1059 346 1059 346 967 346 c 0,9,10
 915 346 915 346 876.5 368 c 128,-1,11
 838 390 838 390 817.5 427.5 c 128,-1,12
 797 465 797 465 787.5 508 c 128,-1,13
 778 551 778 551 778 600 c 2,14,-1
 778 1270 l 1,15,-1
 926 1270 l 1,16,-1
 926 1622 l 1,17,-1
 57 1622 l 1,18,-1
 57 1270 l 1,19,-1
 218 1270 l 1,20,-1
 218 704 l 2,21,22
 218 616 218 616 225.5 541 c 128,-1,23
 233 466 233 466 252.5 390 c 128,-1,24
 272 314 272 314 303 253 c 128,-1,25
 334 192 334 192 383 138 c 128,-1,26
 432 84 432 84 496.5 48 c 128,-1,27
 561 12 561 12 650 -8.5 c 128,-1,28
 739 -29 739 -29 848 -29 c 0,29,30
 1019 -29 1019 -29 1167 39 c 128,-1,31
 1315 107 1315 107 1407 234.5 c 128,-1,32
 1499 362 1499 362 1499 520 c 2,33,-1
 1499 1270 l 1,0,-1
772 1904 m 0,34,35
 772 1796 772 1796 705.5 1735 c 128,-1,36
 639 1674 639 1674 548 1674 c 0,37,38
 455 1674 455 1674 387.5 1735.5 c 128,-1,39
 320 1797 320 1797 320 1907 c 0,40,41
 320 2014 320 2014 387 2074 c 128,-1,42
 454 2134 454 2134 546 2134 c 128,-1,43
 638 2134 638 2134 705 2073.5 c 128,-1,44
 772 2013 772 2013 772 1904 c 0,34,35
1389 1904 m 0,45,46
 1389 1796 1389 1796 1322.5 1735 c 128,-1,47
 1256 1674 1256 1674 1165 1674 c 0,48,49
 1072 1674 1072 1674 1004.5 1735.5 c 128,-1,50
 937 1797 937 1797 937 1907 c 0,51,52
 937 2014 937 2014 1004 2074 c 128,-1,53
 1071 2134 1071 2134 1163 2134 c 128,-1,54
 1255 2134 1255 2134 1322 2073.5 c 128,-1,55
 1389 2013 1389 2013 1389 1904 c 0,45,46
EndSplineSet
EndChar

StartChar: Ugrave
Encoding: 313 217 57
Width: 1710
VWidth: 0
Flags: W
HStem: -29 375<792.629 1102.75>
LayerCount: 2
Fore
SplineSet
1499 1270 m 1,0,-1
 1653 1270 l 1,1,-1
 1653 1622 l 1,2,-1
 999 1622 l 1,3,-1
 999 1270 l 1,4,-1
 1163 1270 l 1,5,-1
 1163 536 l 2,6,7
 1163 448 1163 448 1111 397 c 128,-1,8
 1059 346 1059 346 967 346 c 0,9,10
 915 346 915 346 876.5 368 c 128,-1,11
 838 390 838 390 817.5 427.5 c 128,-1,12
 797 465 797 465 787.5 508 c 128,-1,13
 778 551 778 551 778 600 c 2,14,-1
 778 1270 l 1,15,-1
 926 1270 l 1,16,-1
 926 1622 l 1,17,-1
 57 1622 l 1,18,-1
 57 1270 l 1,19,-1
 218 1270 l 1,20,-1
 218 704 l 2,21,22
 218 616 218 616 225.5 541 c 128,-1,23
 233 466 233 466 252.5 390 c 128,-1,24
 272 314 272 314 303 253 c 128,-1,25
 334 192 334 192 383 138 c 128,-1,26
 432 84 432 84 496.5 48 c 128,-1,27
 561 12 561 12 650 -8.5 c 128,-1,28
 739 -29 739 -29 848 -29 c 0,29,30
 1019 -29 1019 -29 1167 39 c 128,-1,31
 1315 107 1315 107 1407 234.5 c 128,-1,32
 1499 362 1499 362 1499 520 c 2,33,-1
 1499 1270 l 1,0,-1
710 2270 m 1,34,-1
 1184 1833 l 1,35,-1
 1080 1692 l 1,36,-1
 526 2005 l 1,37,-1
 710 2270 l 1,34,-1
EndSplineSet
EndChar

StartChar: V
Encoding: 314 86 58
Width: 1821
VWidth: 0
Flags: W
HStem: 1270 352<1059 1168.35 1611.63 1753>
DStem2: 812 1270 229 1270 0.27342 -0.961895<0 779.538> 1014 517 1174 0 0.324875 0.945757<0 712.472>
LayerCount: 2
Fore
SplineSet
812 1270 m 1,0,-1
 928 1270 l 1,1,-1
 928 1622 l 1,2,-1
 63 1622 l 1,3,-1
 63 1270 l 1,4,-1
 229 1270 l 1,5,-1
 590 0 l 1,6,-1
 1174 0 l 1,7,-1
 1528 1032 l 2,8,9
 1534 1049 1534 1049 1544.5 1081 c 128,-1,10
 1555 1113 1555 1113 1559.5 1126 c 128,-1,11
 1564 1139 1564 1139 1573.5 1163 c 128,-1,12
 1583 1187 1583 1187 1590 1196.5 c 128,-1,13
 1597 1206 1597 1206 1609 1222 c 128,-1,14
 1621 1238 1621 1238 1633.5 1244 c 128,-1,15
 1646 1250 1646 1250 1664 1257.5 c 128,-1,16
 1682 1265 1682 1265 1704 1267.5 c 128,-1,17
 1726 1270 1726 1270 1753 1270 c 1,18,-1
 1753 1622 l 1,19,-1
 1059 1622 l 1,20,-1
 1059 1270 l 1,21,22
 1133 1270 1133 1270 1169.5 1246.5 c 128,-1,23
 1206 1223 1206 1223 1207 1181 c 128,-1,24
 1208 1139 1208 1139 1190 1081 c 2,25,-1
 1014 517 l 1,26,-1
 812 1270 l 1,0,-1
EndSplineSet
EndChar

StartChar: W
Encoding: 315 87 59
Width: 2617
VWidth: 0
Flags: W
HStem: 1270 353<1901 1998.24 2426.84 2552>
DStem2: 1876 703 2363 1148 0.269288 0.96306<0 566.537>
LayerCount: 2
Fore
SplineSet
75 1623 m 1,0,-1
 74 1270 l 1,1,-1
 218 1270 l 1,2,-1
 567 0 l 1,3,-1
 1104 0 l 1,4,-1
 1306 706 l 1,5,-1
 1499 0 l 1,6,-1
 2042 0 l 1,7,-1
 2363 1148 l 2,8,9
 2383 1219 2383 1219 2425.5 1244.5 c 128,-1,10
 2468 1270 2468 1270 2552 1270 c 1,11,-1
 2552 1623 l 1,12,-1
 1901 1623 l 1,13,-1
 1901 1270 l 1,14,15
 1975 1270 1975 1270 1999 1257.5 c 128,-1,16
 2023 1245 2023 1245 2011 1201 c 2,17,-1
 1876 703 l 1,18,-1
 1623 1623 l 1,19,-1
 1214 1623 l 1,20,-1
 954 672 l 1,21,-1
 795 1270 l 1,22,-1
 936 1270 l 1,23,-1
 936 1623 l 1,24,-1
 75 1623 l 1,0,-1
EndSplineSet
EndChar

StartChar: X
Encoding: 316 88 60
Width: 1954
VWidth: 0
Flags: W
HStem: 0 359<63 284.949 756.595 801> 1270 353<1116 1201.99 1637.63 1853>
LayerCount: 2
Fore
SplineSet
1853 1623 m 1,0,-1
 1116 1623 l 1,1,-1
 1116 1270 l 1,2,3
 1139 1270 1139 1270 1170.5 1257.5 c 128,-1,4
 1202 1245 1202 1245 1202 1226 c 0,5,6
 1202 1210 1202 1210 1179.5 1169.5 c 128,-1,7
 1157 1129 1157 1129 1134.5 1096.5 c 2,8,-1
 1112 1064 l 1,9,-1
 950 1270 l 1,10,-1
 1032 1270 l 1,11,-1
 1032 1623 l 1,12,-1
 154 1623 l 1,13,-1
 154 1270 l 1,14,-1
 285 1270 l 1,15,-1
 656 862 l 1,16,-1
 369 493 l 1,17,18
 308 408 308 408 250.5 383.5 c 128,-1,19
 193 359 193 359 63 359 c 1,20,-1
 63 0 l 1,21,-1
 891 0 l 1,22,-1
 885 359 l 1,23,-1
 801 359 l 2,24,25
 775 359 775 359 756 376 c 128,-1,26
 737 393 737 393 737 420 c 0,27,28
 737 434 737 434 743.5 453.5 c 128,-1,29
 750 473 750 473 758 483 c 2,30,-1
 868 634 l 1,31,-1
 1111 359 l 1,32,-1
 985 359 l 1,33,-1
 985 0 l 1,34,-1
 1884 0 l 1,35,-1
 1884 359 l 1,36,-1
 1762 359 l 1,37,-1
 1333 829 l 1,38,-1
 1591 1180 l 2,39,40
 1629 1233 1629 1233 1695 1251.5 c 128,-1,41
 1761 1270 1761 1270 1853 1270 c 1,42,-1
 1853 1623 l 1,0,-1
EndSplineSet
EndChar

StartChar: Y
Encoding: 317 89 61
Width: 1690
VWidth: 0
Flags: W
HStem: 1270 352<1057 1111.92 1429.92 1558>
LayerCount: 2
Fore
SplineSet
1632 1622 m 1,0,-1
 995 1622 l 1,1,-1
 995 1270 l 1,2,3
 1003 1270 1003 1270 1017.5 1270 c 128,-1,4
 1032 1270 1032 1270 1039 1270 c 128,-1,5
 1046 1270 1046 1270 1057 1270 c 128,-1,6
 1068 1270 1068 1270 1073.5 1268.5 c 128,-1,7
 1079 1267 1079 1267 1086.5 1265 c 128,-1,8
 1094 1263 1094 1263 1097.5 1259 c 128,-1,9
 1101 1255 1101 1255 1105 1250 c 128,-1,10
 1109 1245 1109 1245 1110.5 1237.5 c 128,-1,11
 1112 1230 1112 1230 1112 1221 c 0,12,13
 1112 1166 1112 1166 998 993 c 1,14,15
 977 1023 977 1023 906.5 1131.5 c 128,-1,16
 836 1240 836 1240 814 1270 c 1,17,-1
 905 1270 l 1,18,-1
 905 1622 l 1,19,-1
 53 1622 l 1,20,-1
 53 1270 l 1,21,-1
 165 1270 l 1,22,-1
 586 672 l 1,23,-1
 586 359 l 1,24,-1
 431 359 l 1,25,-1
 431 0 l 1,26,-1
 1300 0 l 1,27,-1
 1300 359 l 1,28,-1
 1143 359 l 1,29,-1
 1143 724 l 1,30,-1
 1347 1095 l 2,31,32
 1371 1140 1371 1140 1382.5 1159.5 c 128,-1,33
 1394 1179 1394 1179 1414 1206 c 128,-1,34
 1434 1233 1434 1233 1452 1243.5 c 128,-1,35
 1470 1254 1470 1254 1496.5 1262 c 128,-1,36
 1523 1270 1523 1270 1558 1270 c 2,37,-1
 1632 1270 l 1,38,-1
 1632 1622 l 1,0,-1
EndSplineSet
EndChar

StartChar: Yacute
Encoding: 318 221 62
Width: 1690
VWidth: 0
Flags: W
HStem: 1270 352<1057 1111.92 1429.92 1558>
LayerCount: 2
Fore
SplineSet
1632 1622 m 1,0,-1
 995 1622 l 1,1,-1
 995 1270 l 1,2,3
 1003 1270 1003 1270 1017.5 1270 c 128,-1,4
 1032 1270 1032 1270 1039 1270 c 128,-1,5
 1046 1270 1046 1270 1057 1270 c 128,-1,6
 1068 1270 1068 1270 1073.5 1268.5 c 128,-1,7
 1079 1267 1079 1267 1086.5 1265 c 128,-1,8
 1094 1263 1094 1263 1097.5 1259 c 128,-1,9
 1101 1255 1101 1255 1105 1250 c 128,-1,10
 1109 1245 1109 1245 1110.5 1237.5 c 128,-1,11
 1112 1230 1112 1230 1112 1221 c 0,12,13
 1112 1166 1112 1166 998 993 c 1,14,15
 977 1023 977 1023 906.5 1131.5 c 128,-1,16
 836 1240 836 1240 814 1270 c 1,17,-1
 905 1270 l 1,18,-1
 905 1622 l 1,19,-1
 53 1622 l 1,20,-1
 53 1270 l 1,21,-1
 165 1270 l 1,22,-1
 586 672 l 1,23,-1
 586 359 l 1,24,-1
 431 359 l 1,25,-1
 431 0 l 1,26,-1
 1300 0 l 1,27,-1
 1300 359 l 1,28,-1
 1143 359 l 1,29,-1
 1143 724 l 1,30,-1
 1347 1095 l 2,31,32
 1371 1140 1371 1140 1382.5 1159.5 c 128,-1,33
 1394 1179 1394 1179 1414 1206 c 128,-1,34
 1434 1233 1434 1233 1452 1243.5 c 128,-1,35
 1470 1254 1470 1254 1496.5 1262 c 128,-1,36
 1523 1270 1523 1270 1558 1270 c 2,37,-1
 1632 1270 l 1,38,-1
 1632 1622 l 1,0,-1
990 2270 m 1,39,-1
 516 1833 l 1,40,-1
 620 1692 l 1,41,-1
 1174 2005 l 1,42,-1
 990 2270 l 1,39,-1
EndSplineSet
EndChar

StartChar: Ydieresis
Encoding: 319 376 63
Width: 1690
VWidth: 0
Flags: W
HStem: 1270 352<1057 1111.92 1429.92 1558> 1674 460<399.216 674.121 1016.22 1291.12>
VStem: 310 452<1761.72 2049.11> 927 452<1761.72 2049.11>
LayerCount: 2
Fore
SplineSet
1632 1622 m 1,0,-1
 995 1622 l 1,1,-1
 995 1270 l 1,2,3
 1003 1270 1003 1270 1017.5 1270 c 128,-1,4
 1032 1270 1032 1270 1039 1270 c 128,-1,5
 1046 1270 1046 1270 1057 1270 c 128,-1,6
 1068 1270 1068 1270 1073.5 1268.5 c 128,-1,7
 1079 1267 1079 1267 1086.5 1265 c 128,-1,8
 1094 1263 1094 1263 1097.5 1259 c 128,-1,9
 1101 1255 1101 1255 1105 1250 c 128,-1,10
 1109 1245 1109 1245 1110.5 1237.5 c 128,-1,11
 1112 1230 1112 1230 1112 1221 c 0,12,13
 1112 1166 1112 1166 998 993 c 1,14,15
 977 1023 977 1023 906.5 1131.5 c 128,-1,16
 836 1240 836 1240 814 1270 c 1,17,-1
 905 1270 l 1,18,-1
 905 1622 l 1,19,-1
 53 1622 l 1,20,-1
 53 1270 l 1,21,-1
 165 1270 l 1,22,-1
 586 672 l 1,23,-1
 586 359 l 1,24,-1
 431 359 l 1,25,-1
 431 0 l 1,26,-1
 1300 0 l 1,27,-1
 1300 359 l 1,28,-1
 1143 359 l 1,29,-1
 1143 724 l 1,30,-1
 1347 1095 l 2,31,32
 1371 1140 1371 1140 1382.5 1159.5 c 128,-1,33
 1394 1179 1394 1179 1414 1206 c 128,-1,34
 1434 1233 1434 1233 1452 1243.5 c 128,-1,35
 1470 1254 1470 1254 1496.5 1262 c 128,-1,36
 1523 1270 1523 1270 1558 1270 c 2,37,-1
 1632 1270 l 1,38,-1
 1632 1622 l 1,0,-1
762 1904 m 0,39,40
 762 1796 762 1796 695.5 1735 c 128,-1,41
 629 1674 629 1674 538 1674 c 0,42,43
 445 1674 445 1674 377.5 1735.5 c 128,-1,44
 310 1797 310 1797 310 1907 c 0,45,46
 310 2014 310 2014 377 2074 c 128,-1,47
 444 2134 444 2134 536 2134 c 128,-1,48
 628 2134 628 2134 695 2073.5 c 128,-1,49
 762 2013 762 2013 762 1904 c 0,39,40
1379 1904 m 0,50,51
 1379 1796 1379 1796 1312.5 1735 c 128,-1,52
 1246 1674 1246 1674 1155 1674 c 0,53,54
 1062 1674 1062 1674 994.5 1735.5 c 128,-1,55
 927 1797 927 1797 927 1907 c 0,56,57
 927 2014 927 2014 994 2074 c 128,-1,58
 1061 2134 1061 2134 1153 2134 c 128,-1,59
 1245 2134 1245 2134 1312 2073.5 c 128,-1,60
 1379 2013 1379 2013 1379 1904 c 0,50,51
EndSplineSet
EndChar

StartChar: Z
Encoding: 320 90 64
Width: 1548
VWidth: 0
Flags: W
LayerCount: 2
Fore
SplineSet
1464 1622 m 1,0,-1
 70 1622 l 1,1,-1
 70 938 l 1,2,-1
 358 938 l 1,3,-1
 438 1270 l 1,4,-1
 753 1270 l 1,5,-1
 74 350 l 1,6,-1
 75 0 l 1,7,-1
 1484 0 l 1,8,-1
 1485 705 l 1,9,-1
 1203 705 l 1,10,-1
 1096 359 l 1,11,-1
 787 359 l 1,12,-1
 1464 1293 l 1,13,-1
 1464 1622 l 1,0,-1
EndSplineSet
EndChar

StartChar: Zcaron
Encoding: 321 381 65
Width: 1548
VWidth: 0
Flags: W
LayerCount: 2
Fore
SplineSet
1464 1622 m 1,0,-1
 70 1622 l 1,1,-1
 70 938 l 1,2,-1
 358 938 l 1,3,-1
 438 1270 l 1,4,-1
 753 1270 l 1,5,-1
 74 350 l 1,6,-1
 75 0 l 1,7,-1
 1484 0 l 1,8,-1
 1485 705 l 1,9,-1
 1203 705 l 1,10,-1
 1096 359 l 1,11,-1
 787 359 l 1,12,-1
 1464 1293 l 1,13,-1
 1464 1622 l 1,0,-1
638 1700 m 1,14,-1
 365 2077 l 1,15,-1
 519 2178 l 1,16,-1
 774 1933 l 1,17,-1
 1029 2178 l 1,18,-1
 1183 2077 l 1,19,-1
 909 1701 l 1,20,-1
 638 1700 l 1,14,-1
EndSplineSet
EndChar

StartChar: a
Encoding: 322 97 66
Width: 1337
VWidth: 0
Flags: W
HStem: -18 242<365 659> 438 192<450.5 746.246> 803 289<376.177 698.495>
VStem: 57 490<245.338 415.859>
LayerCount: 2
Fore
SplineSet
57 308 m 0,0,1
 57 159 57 159 170.5 70.5 c 128,-1,2
 284 -18 284 -18 446 -18 c 0,3,4
 528 -18 528 -18 615 18 c 128,-1,5
 702 54 702 54 752 119 c 1,6,-1
 802 0 l 1,7,-1
 1274 0 l 1,8,-1
 1274 305 l 1,9,-1
 1198 305 l 1,10,-1
 1198 750 l 2,11,12
 1198 819 1198 819 1172.5 874.5 c 128,-1,13
 1147 930 1147 930 1109.5 965 c 128,-1,14
 1072 1000 1072 1000 1015.5 1025.5 c 128,-1,15
 959 1051 959 1051 910.5 1063.5 c 128,-1,16
 862 1076 862 1076 799.5 1083 c 128,-1,17
 737 1090 737 1090 704 1091 c 128,-1,18
 671 1092 671 1092 630 1092 c 0,19,20
 523 1092 523 1092 402 1074.5 c 128,-1,21
 281 1057 281 1057 214 1039.5 c 2,22,-1
 147 1022 l 1,23,-1
 147 708 l 1,24,-1
 322 708 l 1,25,26
 394 803 394 803 537 803 c 0,27,28
 748 803 748 803 748 637 c 2,29,-1
 748 592 l 1,30,31
 638 630 638 630 492 630 c 0,32,33
 409 630 409 630 332.5 609.5 c 128,-1,34
 256 589 256 589 194 550 c 128,-1,35
 132 511 132 511 94.5 448 c 128,-1,36
 57 385 57 385 57 308 c 0,0,1
547 326 m 0,37,38
 547 369 547 369 578 403.5 c 128,-1,39
 609 438 609 438 652 438 c 0,40,41
 674 438 674 438 698.5 433 c 128,-1,42
 723 428 723 428 737 422.5 c 2,43,-1
 751 417 l 1,44,-1
 751 270 l 1,45,46
 747 265 747 265 739 257.5 c 128,-1,47
 731 250 731 250 703 237 c 128,-1,48
 675 224 675 224 643 224 c 0,49,50
 599 224 599 224 573 252.5 c 128,-1,51
 547 281 547 281 547 326 c 0,37,38
EndSplineSet
EndChar

StartChar: aacute
Encoding: 323 225 67
Width: 1337
VWidth: 0
Flags: W
HStem: -18 242<365 659> 438 192<450.5 746.246> 803 289<376.177 698.495>
VStem: 57 490<245.338 415.859>
LayerCount: 2
Fore
SplineSet
57 308 m 0,0,1
 57 159 57 159 170.5 70.5 c 128,-1,2
 284 -18 284 -18 446 -18 c 0,3,4
 528 -18 528 -18 615 18 c 128,-1,5
 702 54 702 54 752 119 c 1,6,-1
 802 0 l 1,7,-1
 1274 0 l 1,8,-1
 1274 305 l 1,9,-1
 1198 305 l 1,10,-1
 1198 750 l 2,11,12
 1198 819 1198 819 1172.5 874.5 c 128,-1,13
 1147 930 1147 930 1109.5 965 c 128,-1,14
 1072 1000 1072 1000 1015.5 1025.5 c 128,-1,15
 959 1051 959 1051 910.5 1063.5 c 128,-1,16
 862 1076 862 1076 799.5 1083 c 128,-1,17
 737 1090 737 1090 704 1091 c 128,-1,18
 671 1092 671 1092 630 1092 c 0,19,20
 523 1092 523 1092 402 1074.5 c 128,-1,21
 281 1057 281 1057 214 1039.5 c 2,22,-1
 147 1022 l 1,23,-1
 147 708 l 1,24,-1
 322 708 l 1,25,26
 394 803 394 803 537 803 c 0,27,28
 748 803 748 803 748 637 c 2,29,-1
 748 592 l 1,30,31
 638 630 638 630 492 630 c 0,32,33
 409 630 409 630 332.5 609.5 c 128,-1,34
 256 589 256 589 194 550 c 128,-1,35
 132 511 132 511 94.5 448 c 128,-1,36
 57 385 57 385 57 308 c 0,0,1
547 326 m 0,37,38
 547 369 547 369 578 403.5 c 128,-1,39
 609 438 609 438 652 438 c 0,40,41
 674 438 674 438 698.5 433 c 128,-1,42
 723 428 723 428 737 422.5 c 2,43,-1
 751 417 l 1,44,-1
 751 270 l 1,45,46
 747 265 747 265 739 257.5 c 128,-1,47
 731 250 731 250 703 237 c 128,-1,48
 675 224 675 224 643 224 c 0,49,50
 599 224 599 224 573 252.5 c 128,-1,51
 547 281 547 281 547 326 c 0,37,38
935 1708 m 1,52,-1
 461 1271 l 1,53,-1
 565 1130 l 1,54,-1
 1119 1443 l 1,55,-1
 935 1708 l 1,52,-1
EndSplineSet
EndChar

StartChar: acircumflex
Encoding: 324 226 68
Width: 1337
VWidth: 0
Flags: W
HStem: -18 242<365 659> 438 192<450.5 746.246> 803 289<376.177 698.495> 1348 20G<647.184 688.816>
VStem: 57 490<245.338 415.859>
LayerCount: 2
Fore
SplineSet
57 308 m 0,0,1
 57 159 57 159 170.5 70.5 c 128,-1,2
 284 -18 284 -18 446 -18 c 0,3,4
 528 -18 528 -18 615 18 c 128,-1,5
 702 54 702 54 752 119 c 1,6,-1
 802 0 l 1,7,-1
 1274 0 l 1,8,-1
 1274 305 l 1,9,-1
 1198 305 l 1,10,-1
 1198 750 l 2,11,12
 1198 819 1198 819 1172.5 874.5 c 128,-1,13
 1147 930 1147 930 1109.5 965 c 128,-1,14
 1072 1000 1072 1000 1015.5 1025.5 c 128,-1,15
 959 1051 959 1051 910.5 1063.5 c 128,-1,16
 862 1076 862 1076 799.5 1083 c 128,-1,17
 737 1090 737 1090 704 1091 c 128,-1,18
 671 1092 671 1092 630 1092 c 0,19,20
 523 1092 523 1092 402 1074.5 c 128,-1,21
 281 1057 281 1057 214 1039.5 c 2,22,-1
 147 1022 l 1,23,-1
 147 708 l 1,24,-1
 322 708 l 1,25,26
 394 803 394 803 537 803 c 0,27,28
 748 803 748 803 748 637 c 2,29,-1
 748 592 l 1,30,31
 638 630 638 630 492 630 c 0,32,33
 409 630 409 630 332.5 609.5 c 128,-1,34
 256 589 256 589 194 550 c 128,-1,35
 132 511 132 511 94.5 448 c 128,-1,36
 57 385 57 385 57 308 c 0,0,1
547 326 m 0,37,38
 547 369 547 369 578 403.5 c 128,-1,39
 609 438 609 438 652 438 c 0,40,41
 674 438 674 438 698.5 433 c 128,-1,42
 723 428 723 428 737 422.5 c 2,43,-1
 751 417 l 1,44,-1
 751 270 l 1,45,46
 747 265 747 265 739 257.5 c 128,-1,47
 731 250 731 250 703 237 c 128,-1,48
 675 224 675 224 643 224 c 0,49,50
 599 224 599 224 573 252.5 c 128,-1,51
 547 281 547 281 547 326 c 0,37,38
532 1601 m 1,52,-1
 259 1224 l 1,53,-1
 413 1123 l 1,54,-1
 668 1368 l 1,55,-1
 923 1123 l 1,56,-1
 1077 1224 l 1,57,-1
 803 1600 l 1,58,-1
 532 1601 l 1,52,-1
EndSplineSet
EndChar

StartChar: acute
Encoding: 325 180 69
Width: 1016
VWidth: 0
Flags: W
LayerCount: 2
Fore
SplineSet
667 1708 m 1,0,-1
 193 1271 l 1,1,-1
 297 1130 l 1,2,-1
 851 1443 l 1,3,-1
 667 1708 l 1,0,-1
EndSplineSet
EndChar

StartChar: adieresis
Encoding: 326 228 70
Width: 1337
VWidth: 0
Flags: W
HStem: -18 242<365 659> 438 192<450.5 746.246> 803 289<376.177 698.495> 1112 460<223.216 498.121 840.216 1115.12>
VStem: 57 490<245.338 415.859> 134 452<1199.72 1487.11> 751 452<637 750.477 1199.72 1487.11>
LayerCount: 2
Fore
SplineSet
57 308 m 0,0,1
 57 159 57 159 170.5 70.5 c 128,-1,2
 284 -18 284 -18 446 -18 c 0,3,4
 528 -18 528 -18 615 18 c 128,-1,5
 702 54 702 54 752 119 c 1,6,-1
 802 0 l 1,7,-1
 1274 0 l 1,8,-1
 1274 305 l 1,9,-1
 1198 305 l 1,10,-1
 1198 750 l 2,11,12
 1198 819 1198 819 1172.5 874.5 c 128,-1,13
 1147 930 1147 930 1109.5 965 c 128,-1,14
 1072 1000 1072 1000 1015.5 1025.5 c 128,-1,15
 959 1051 959 1051 910.5 1063.5 c 128,-1,16
 862 1076 862 1076 799.5 1083 c 128,-1,17
 737 1090 737 1090 704 1091 c 128,-1,18
 671 1092 671 1092 630 1092 c 0,19,20
 523 1092 523 1092 402 1074.5 c 128,-1,21
 281 1057 281 1057 214 1039.5 c 2,22,-1
 147 1022 l 1,23,-1
 147 708 l 1,24,-1
 322 708 l 1,25,26
 394 803 394 803 537 803 c 0,27,28
 748 803 748 803 748 637 c 2,29,-1
 748 592 l 1,30,31
 638 630 638 630 492 630 c 0,32,33
 409 630 409 630 332.5 609.5 c 128,-1,34
 256 589 256 589 194 550 c 128,-1,35
 132 511 132 511 94.5 448 c 128,-1,36
 57 385 57 385 57 308 c 0,0,1
547 326 m 0,37,38
 547 369 547 369 578 403.5 c 128,-1,39
 609 438 609 438 652 438 c 0,40,41
 674 438 674 438 698.5 433 c 128,-1,42
 723 428 723 428 737 422.5 c 2,43,-1
 751 417 l 1,44,-1
 751 270 l 1,45,46
 747 265 747 265 739 257.5 c 128,-1,47
 731 250 731 250 703 237 c 128,-1,48
 675 224 675 224 643 224 c 0,49,50
 599 224 599 224 573 252.5 c 128,-1,51
 547 281 547 281 547 326 c 0,37,38
586 1342 m 0,52,53
 586 1234 586 1234 519.5 1173 c 128,-1,54
 453 1112 453 1112 362 1112 c 0,55,56
 269 1112 269 1112 201.5 1173.5 c 128,-1,57
 134 1235 134 1235 134 1345 c 0,58,59
 134 1452 134 1452 201 1512 c 128,-1,60
 268 1572 268 1572 360 1572 c 128,-1,61
 452 1572 452 1572 519 1511.5 c 128,-1,62
 586 1451 586 1451 586 1342 c 0,52,53
1203 1342 m 0,63,64
 1203 1234 1203 1234 1136.5 1173 c 128,-1,65
 1070 1112 1070 1112 979 1112 c 0,66,67
 886 1112 886 1112 818.5 1173.5 c 128,-1,68
 751 1235 751 1235 751 1345 c 0,69,70
 751 1452 751 1452 818 1512 c 128,-1,71
 885 1572 885 1572 977 1572 c 128,-1,72
 1069 1572 1069 1572 1136 1511.5 c 128,-1,73
 1203 1451 1203 1451 1203 1342 c 0,63,64
EndSplineSet
EndChar

StartChar: ae
Encoding: 327 230 71
Width: 2594
VWidth: 0
Flags: W
HStem: -25 240<573.817 746.61 1317.82 1534.58> 8 350<1566 1742.12> 429 192<489.447 746.246> 794 289<375.055 698.778 1276.64 1447.46>
VStem: 57 490<237.374 406.859> 1466 427<620 779.768>
LayerCount: 2
Fore
SplineSet
57 299 m 0,0,1
 57 199 57 199 112 124 c 128,-1,2
 167 49 167 49 254 11.5 c 128,-1,3
 341 -26 341 -26 446 -27 c 0,4,5
 642 -29 642 -29 766.5 0 c 128,-1,6
 891 29 891 29 994 105 c 1,7,8
 1137 -25 1137 -25 1326 -25 c 0,9,10
 1486 -25 1486 -25 1613.5 8 c 128,-1,11
 1741 41 1741 41 1873 120 c 1,12,-1
 1873 358 l 1,13,-1
 1566 358 l 1,14,15
 1564 285 1564 285 1531 250 c 128,-1,16
 1498 215 1498 215 1426 215 c 0,17,18
 1344 215 1344 215 1296.5 281.5 c 128,-1,19
 1249 348 1249 348 1249 441 c 1,20,-1
 1851 441 l 2,21,22
 1870 441 1870 441 1874.5 444.5 c 128,-1,23
 1879 448 1879 448 1888 469 c 1,24,25
 1893 514 1893 514 1893 548 c 0,26,27
 1893 698 1893 698 1830.5 818 c 128,-1,28
 1768 938 1768 938 1641 1011.5 c 128,-1,29
 1514 1085 1514 1085 1342 1085 c 0,30,31
 1279 1085 1279 1085 1220.5 1072 c 128,-1,32
 1162 1059 1162 1059 1123.5 1041 c 128,-1,33
 1085 1023 1085 1023 1055 1005 c 128,-1,34
 1025 987 1025 987 1011.5 974 c 2,35,-1
 998 961 l 1,36,37
 993 966 993 966 983 974 c 128,-1,38
 973 982 973 982 938.5 1003 c 128,-1,39
 904 1024 904 1024 865 1040.5 c 128,-1,40
 826 1057 826 1057 762 1070 c 128,-1,41
 698 1083 698 1083 630 1083 c 0,42,43
 523 1083 523 1083 402 1065.5 c 128,-1,44
 281 1048 281 1048 214 1030.5 c 2,45,-1
 147 1013 l 1,46,-1
 147 699 l 1,47,-1
 322 699 l 1,48,49
 394 794 394 794 537 794 c 0,50,51
 748 794 748 794 748 628 c 2,52,-1
 748 583 l 1,53,54
 638 621 638 621 492 621 c 0,55,56
 409 621 409 621 332.5 600.5 c 128,-1,57
 256 580 256 580 194 541 c 128,-1,58
 132 502 132 502 94.5 439 c 128,-1,59
 57 376 57 376 57 299 c 0,0,1
547 317 m 0,60,61
 547 360 547 360 578 394.5 c 128,-1,62
 609 429 609 429 652 429 c 0,63,64
 674 429 674 429 698.5 423.5 c 128,-1,65
 723 418 723 418 737 413 c 2,66,-1
 751 408 l 1,67,-1
 751 261 l 1,68,69
 747 256 747 256 739 248.5 c 128,-1,70
 731 241 731 241 703 228 c 128,-1,71
 675 215 675 215 643 215 c 0,72,73
 599 215 599 215 573 243.5 c 128,-1,74
 547 272 547 272 547 317 c 0,60,61
1251 649 m 2,75,76
 1251 710 1251 710 1278 758.5 c 128,-1,77
 1305 807 1305 807 1359 807 c 0,78,79
 1396 807 1396 807 1420 789.5 c 128,-1,80
 1444 772 1444 772 1453 739.5 c 128,-1,81
 1462 707 1462 707 1464.5 681 c 128,-1,82
 1467 655 1467 655 1466 620 c 1,83,-1
 1251 620 l 1,84,-1
 1251 649 l 2,75,76
EndSplineSet
EndChar

StartChar: agrave
Encoding: 328 224 72
Width: 1337
VWidth: 0
Flags: W
HStem: -18 242<365 659> 438 192<450.5 746.246> 803 289<376.177 698.495>
VStem: 57 490<245.338 415.859>
LayerCount: 2
Fore
SplineSet
57 308 m 0,0,1
 57 159 57 159 170.5 70.5 c 128,-1,2
 284 -18 284 -18 446 -18 c 0,3,4
 528 -18 528 -18 615 18 c 128,-1,5
 702 54 702 54 752 119 c 1,6,-1
 802 0 l 1,7,-1
 1274 0 l 1,8,-1
 1274 305 l 1,9,-1
 1198 305 l 1,10,-1
 1198 750 l 2,11,12
 1198 819 1198 819 1172.5 874.5 c 128,-1,13
 1147 930 1147 930 1109.5 965 c 128,-1,14
 1072 1000 1072 1000 1015.5 1025.5 c 128,-1,15
 959 1051 959 1051 910.5 1063.5 c 128,-1,16
 862 1076 862 1076 799.5 1083 c 128,-1,17
 737 1090 737 1090 704 1091 c 128,-1,18
 671 1092 671 1092 630 1092 c 0,19,20
 523 1092 523 1092 402 1074.5 c 128,-1,21
 281 1057 281 1057 214 1039.5 c 2,22,-1
 147 1022 l 1,23,-1
 147 708 l 1,24,-1
 322 708 l 1,25,26
 394 803 394 803 537 803 c 0,27,28
 748 803 748 803 748 637 c 2,29,-1
 748 592 l 1,30,31
 638 630 638 630 492 630 c 0,32,33
 409 630 409 630 332.5 609.5 c 128,-1,34
 256 589 256 589 194 550 c 128,-1,35
 132 511 132 511 94.5 448 c 128,-1,36
 57 385 57 385 57 308 c 0,0,1
547 326 m 0,37,38
 547 369 547 369 578 403.5 c 128,-1,39
 609 438 609 438 652 438 c 0,40,41
 674 438 674 438 698.5 433 c 128,-1,42
 723 428 723 428 737 422.5 c 2,43,-1
 751 417 l 1,44,-1
 751 270 l 1,45,46
 747 265 747 265 739 257.5 c 128,-1,47
 731 250 731 250 703 237 c 128,-1,48
 675 224 675 224 643 224 c 0,49,50
 599 224 599 224 573 252.5 c 128,-1,51
 547 281 547 281 547 326 c 0,37,38
523 1708 m 1,52,-1
 997 1271 l 1,53,-1
 893 1130 l 1,54,-1
 339 1443 l 1,55,-1
 523 1708 l 1,52,-1
EndSplineSet
EndChar

StartChar: ampersand
Encoding: 329 38 73
Width: 1737
VWidth: 0
Flags: W
HStem: -27 362<413 736.091> 0 368<1411.68 1683> 1273 242<720.631 879.161>
VStem: 57 457<284.175 575.993> 252 453<1078.49 1257.86> 903 254<1061.71 1245.97>
LayerCount: 2
Fore
SplineSet
1683 0 m 1,0,-1
 1683 368 l 1,1,-1
 1453 368 l 1,2,3
 1310 516 1310 516 1305 518 c 1,4,-1
 1475 694 l 2,5,6
 1539 760 1539 760 1576 786.5 c 128,-1,7
 1613 813 1613 813 1683 837 c 1,8,-1
 1683 1126 l 1,9,-1
 1200 1126 l 1,10,-1
 1200 831 l 1,11,-1
 1247 831 l 2,12,13
 1274 831 1274 831 1274 796 c 0,14,15
 1274 780 1274 780 1247 748.5 c 128,-1,16
 1220 717 1220 717 1193.5 693 c 2,17,-1
 1167 669 l 1,18,-1
 988 844 l 1,19,20
 1041 891 1041 891 1068 919 c 128,-1,21
 1095 947 1095 947 1118 985 c 128,-1,22
 1141 1023 1141 1023 1149 1065.5 c 128,-1,23
 1157 1108 1157 1108 1157 1169 c 0,24,25
 1157 1249 1157 1249 1119.5 1316.5 c 128,-1,26
 1082 1384 1082 1384 1021 1426.5 c 128,-1,27
 960 1469 960 1469 885 1492 c 128,-1,28
 810 1515 810 1515 733 1515 c 0,29,30
 635 1515 635 1515 548 1488.5 c 128,-1,31
 461 1462 461 1462 395 1412 c 128,-1,32
 329 1362 329 1362 290.5 1284.5 c 128,-1,33
 252 1207 252 1207 252 1111 c 1,34,35
 255 936 255 936 371 809 c 1,36,37
 215 742 215 742 137.5 638 c 128,-1,38
 60 534 60 534 57 380 c 1,39,40
 61 189 61 189 188.5 82 c 128,-1,41
 316 -25 316 -25 510 -27 c 1,42,43
 786 -21 786 -21 971 183 c 1,44,45
 1095 49 1095 49 1144 0 c 1,46,-1
 1683 0 l 1,0,-1
514 487 m 0,47,48
 514 504 514 504 520.5 520.5 c 128,-1,49
 527 537 527 537 535.5 549 c 128,-1,50
 544 561 544 561 553 570.5 c 128,-1,51
 562 580 562 580 568.5 584.5 c 2,52,-1
 575 589 l 1,53,-1
 782 375 l 1,54,55
 730 335 730 335 668 335 c 0,56,57
 602 335 602 335 558 378 c 128,-1,58
 514 421 514 421 514 487 c 0,47,48
705 1175 m 0,59,60
 705 1214 705 1214 732.5 1243.5 c 128,-1,61
 760 1273 760 1273 799 1273 c 0,62,63
 850 1273 850 1273 876.5 1238 c 128,-1,64
 903 1203 903 1203 903 1152 c 0,65,66
 903 1111 903 1111 881 1084.5 c 128,-1,67
 859 1058 859 1058 811 1025 c 1,68,69
 779 1050 779 1050 760 1068 c 128,-1,70
 741 1086 741 1086 723 1115.5 c 128,-1,71
 705 1145 705 1145 705 1175 c 0,59,60
EndSplineSet
EndChar

StartChar: approxequal
Encoding: 330 8776 74
Width: 1707
VWidth: 0
Flags: W
HStem: 74 294<951.515 1179.22> 277 290<488.366 713.603> 629 294<973.515 1201.22> 832 290<510.366 735.603>
DStem2: 823 1051.5 784.5 760 0.868504 -0.495683<-95.8345 325.653> 801 496.5 762.5 205 0.868504 -0.495683<-95.8345 325.653>
LayerCount: 2
Fore
SplineSet
1090 74 m 0,0,1
 1148 74 1148 74 1194 100 c 128,-1,2
 1240 126 1240 126 1274 173.5 c 128,-1,3
 1308 221 1308 221 1332.5 268.5 c 128,-1,4
 1357 316 1357 316 1387.5 378.5 c 128,-1,5
 1418 441 1418 441 1442 477 c 1,6,-1
 1313 562 l 1,7,8
 1210 438 1210 438 1169.5 403 c 128,-1,9
 1129 368 1129 368 1104 368 c 0,10,11
 1060 368 1060 368 1007 388.5 c 128,-1,12
 954 409 954 409 903.5 438 c 128,-1,13
 853 467 853 467 801 496.5 c 128,-1,14
 749 526 749 526 689.5 546.5 c 128,-1,15
 630 567 630 567 575 567 c 0,16,17
 517 567 517 567 470.5 541.5 c 128,-1,18
 424 516 424 516 390 468.5 c 128,-1,19
 356 421 356 421 331 374.5 c 128,-1,20
 306 328 306 328 275.5 265 c 128,-1,21
 245 202 245 202 221 165 c 1,22,-1
 352 79 l 1,23,24
 461 209 461 209 499 243 c 128,-1,25
 537 277 537 277 564 277 c 0,26,27
 608 277 608 277 660.5 256 c 128,-1,28
 713 235 713 235 762.5 205 c 128,-1,29
 812 175 812 175 864 145.5 c 128,-1,30
 916 116 916 116 975.5 95 c 128,-1,31
 1035 74 1035 74 1090 74 c 0,0,1
1112 629 m 0,32,33
 1170 629 1170 629 1216 655 c 128,-1,34
 1262 681 1262 681 1296 728.5 c 128,-1,35
 1330 776 1330 776 1354.5 823.5 c 128,-1,36
 1379 871 1379 871 1409.5 933.5 c 128,-1,37
 1440 996 1440 996 1464 1032 c 1,38,-1
 1335 1117 l 1,39,40
 1232 993 1232 993 1191.5 958 c 128,-1,41
 1151 923 1151 923 1126 923 c 0,42,43
 1082 923 1082 923 1029 943.5 c 128,-1,44
 976 964 976 964 925.5 993 c 128,-1,45
 875 1022 875 1022 823 1051.5 c 128,-1,46
 771 1081 771 1081 711.5 1101.5 c 128,-1,47
 652 1122 652 1122 597 1122 c 0,48,49
 539 1122 539 1122 492.5 1096.5 c 128,-1,50
 446 1071 446 1071 412 1023.5 c 128,-1,51
 378 976 378 976 353 929.5 c 128,-1,52
 328 883 328 883 297.5 820 c 128,-1,53
 267 757 267 757 243 720 c 1,54,-1
 374 634 l 1,55,56
 483 764 483 764 521 798 c 128,-1,57
 559 832 559 832 586 832 c 0,58,59
 630 832 630 832 682.5 811 c 128,-1,60
 735 790 735 790 784.5 760 c 128,-1,61
 834 730 834 730 886 700.5 c 128,-1,62
 938 671 938 671 997.5 650 c 128,-1,63
 1057 629 1057 629 1112 629 c 0,32,33
EndSplineSet
EndChar

StartChar: aring
Encoding: 331 229 75
Width: 1337
VWidth: 0
Flags: W
HStem: -18 242<365 659> 438 192<450.5 746.246> 803 289<376.177 698.495> 1138 102<547.503 783.845> 1533 100<546.613 784.735>
VStem: 57 490<245.338 415.859> 393 110<1284.49 1490.32> 829 115<1284.49 1489.33>
LayerCount: 2
Fore
SplineSet
57 308 m 0,0,1
 57 159 57 159 170.5 70.5 c 128,-1,2
 284 -18 284 -18 446 -18 c 0,3,4
 528 -18 528 -18 615 18 c 128,-1,5
 702 54 702 54 752 119 c 1,6,-1
 802 0 l 1,7,-1
 1274 0 l 1,8,-1
 1274 305 l 1,9,-1
 1198 305 l 1,10,-1
 1198 750 l 2,11,12
 1198 819 1198 819 1172.5 874.5 c 128,-1,13
 1147 930 1147 930 1109.5 965 c 128,-1,14
 1072 1000 1072 1000 1015.5 1025.5 c 128,-1,15
 959 1051 959 1051 910.5 1063.5 c 128,-1,16
 862 1076 862 1076 799.5 1083 c 128,-1,17
 737 1090 737 1090 704 1091 c 128,-1,18
 671 1092 671 1092 630 1092 c 0,19,20
 523 1092 523 1092 402 1074.5 c 128,-1,21
 281 1057 281 1057 214 1039.5 c 2,22,-1
 147 1022 l 1,23,-1
 147 708 l 1,24,-1
 322 708 l 1,25,26
 394 803 394 803 537 803 c 0,27,28
 748 803 748 803 748 637 c 2,29,-1
 748 592 l 1,30,31
 638 630 638 630 492 630 c 0,32,33
 409 630 409 630 332.5 609.5 c 128,-1,34
 256 589 256 589 194 550 c 128,-1,35
 132 511 132 511 94.5 448 c 128,-1,36
 57 385 57 385 57 308 c 0,0,1
547 326 m 0,37,38
 547 369 547 369 578 403.5 c 128,-1,39
 609 438 609 438 652 438 c 0,40,41
 674 438 674 438 698.5 433 c 128,-1,42
 723 428 723 428 737 422.5 c 2,43,-1
 751 417 l 1,44,-1
 751 270 l 1,45,46
 747 265 747 265 739 257.5 c 128,-1,47
 731 250 731 250 703 237 c 128,-1,48
 675 224 675 224 643 224 c 0,49,50
 599 224 599 224 573 252.5 c 128,-1,51
 547 281 547 281 547 326 c 0,37,38
664 1240 m 0,52,53
 589 1240 589 1240 546 1284 c 128,-1,54
 503 1328 503 1328 503 1388 c 0,55,56
 503 1447 503 1447 545.5 1490 c 128,-1,57
 588 1533 588 1533 664 1533 c 0,58,59
 742 1533 742 1533 785.5 1490 c 128,-1,60
 829 1447 829 1447 829 1388 c 0,61,62
 829 1328 829 1328 785 1284 c 128,-1,63
 741 1240 741 1240 664 1240 c 0,52,53
664 1138 m 0,64,65
 795 1138 795 1138 869.5 1213 c 128,-1,66
 944 1288 944 1288 944 1389 c 0,67,68
 944 1489 944 1489 870.5 1561 c 128,-1,69
 797 1633 797 1633 664 1633 c 0,70,71
 535 1633 535 1633 464 1560.5 c 128,-1,72
 393 1488 393 1488 393 1389 c 0,73,74
 393 1288 393 1288 465 1213 c 128,-1,75
 537 1138 537 1138 664 1138 c 0,64,65
EndSplineSet
EndChar

StartChar: asciicircum
Encoding: 332 94 76
Width: 1707
VWidth: 0
Flags: W
HStem: 1242 382<527 1279>
LayerCount: 2
Fore
SplineSet
1088 1624 m 1,0,-1
 1584 909 l 1,1,-1
 1119 909 l 1,2,-1
 903 1242 l 1,3,-1
 687 909 l 1,4,-1
 222 909 l 1,5,-1
 718 1624 l 1,6,-1
 1088 1624 l 1,0,-1
EndSplineSet
EndChar

StartChar: asciitilde
Encoding: 333 126 77
Width: 1707
VWidth: 0
Flags: W
HStem: 629 294<951.515 1179.22> 832 290<488.366 713.603>
DStem2: 801 1051.5 762.5 760 0.868504 -0.495683<-95.8345 325.653>
LayerCount: 2
Fore
SplineSet
1090 629 m 0,0,1
 1148 629 1148 629 1194 655 c 128,-1,2
 1240 681 1240 681 1274 728.5 c 128,-1,3
 1308 776 1308 776 1332.5 823.5 c 128,-1,4
 1357 871 1357 871 1387.5 933.5 c 128,-1,5
 1418 996 1418 996 1442 1032 c 1,6,-1
 1313 1117 l 1,7,8
 1210 993 1210 993 1169.5 958 c 128,-1,9
 1129 923 1129 923 1104 923 c 0,10,11
 1060 923 1060 923 1007 943.5 c 128,-1,12
 954 964 954 964 903.5 993 c 128,-1,13
 853 1022 853 1022 801 1051.5 c 128,-1,14
 749 1081 749 1081 689.5 1101.5 c 128,-1,15
 630 1122 630 1122 575 1122 c 0,16,17
 517 1122 517 1122 470.5 1096.5 c 128,-1,18
 424 1071 424 1071 390 1023.5 c 128,-1,19
 356 976 356 976 331 929.5 c 128,-1,20
 306 883 306 883 275.5 820 c 128,-1,21
 245 757 245 757 221 720 c 1,22,-1
 352 634 l 1,23,24
 461 764 461 764 499 798 c 128,-1,25
 537 832 537 832 564 832 c 0,26,27
 608 832 608 832 660.5 811 c 128,-1,28
 713 790 713 790 762.5 760 c 128,-1,29
 812 730 812 730 864 700.5 c 128,-1,30
 916 671 916 671 975.5 650 c 128,-1,31
 1035 629 1035 629 1090 629 c 0,0,1
EndSplineSet
EndChar

StartChar: asterisk
Encoding: 334 42 78
Width: 1707
VWidth: 0
Flags: W
HStem: 1086 21G<752 754.5 911 915.5>
VStem: 672 322<300.035 666.602 1223.64 1589.96>
LayerCount: 2
Fore
SplineSet
252 1328 m 1,0,1
 229 1294 229 1294 225.5 1253 c 128,-1,2
 222 1212 222 1212 244 1169 c 128,-1,3
 266 1126 266 1126 313 1095 c 0,4,5
 361 1063 361 1063 429 1037 c 128,-1,6
 497 1011 497 1011 592 983 c 128,-1,7
 687 955 687 955 716 945 c 1,8,9
 684 934 684 934 591.5 906.5 c 128,-1,10
 499 879 499 879 430 852.5 c 128,-1,11
 361 826 361 826 313 795 c 0,12,13
 266 764 266 764 244 721 c 128,-1,14
 222 678 222 678 225.5 637 c 128,-1,15
 229 596 229 596 252 562 c 1,16,17
 287 507 287 507 350.5 494 c 128,-1,18
 414 481 414 481 491 526 c 1,19,20
 524 548 524 548 565 587 c 128,-1,21
 606 626 606 626 626 648.5 c 128,-1,22
 646 671 646 671 699 734.5 c 128,-1,23
 752 798 752 798 757 804 c 1,24,25
 751 784 751 784 730.5 715.5 c 128,-1,26
 710 647 710 647 701 611.5 c 128,-1,27
 692 576 692 576 682 522.5 c 128,-1,28
 672 469 672 469 672 429 c 0,29,30
 672 345 672 345 720 297 c 128,-1,31
 768 249 768 249 833 249 c 128,-1,32
 898 249 898 249 946 297 c 128,-1,33
 994 345 994 345 994 429 c 0,34,35
 994 469 994 469 984 523.5 c 128,-1,36
 974 578 974 578 965.5 610 c 128,-1,37
 957 642 957 642 934.5 716.5 c 128,-1,38
 912 791 912 791 908 804 c 1,39,40
 920 790 920 790 967.5 733.5 c 128,-1,41
 1015 677 1015 677 1038.5 650.5 c 128,-1,42
 1062 624 1062 624 1102 586 c 128,-1,43
 1142 548 1142 548 1175 526 c 1,44,45
 1252 481 1252 481 1315.5 494 c 128,-1,46
 1379 507 1379 507 1414 562 c 1,47,48
 1437 596 1437 596 1440.5 637 c 128,-1,49
 1444 678 1444 678 1422 721 c 128,-1,50
 1400 764 1400 764 1353 795 c 0,51,52
 1305 826 1305 826 1236 852.5 c 128,-1,53
 1167 879 1167 879 1074.5 906 c 128,-1,54
 982 933 982 933 949 945 c 1,55,56
 978 955 978 955 1073 983 c 128,-1,57
 1168 1011 1168 1011 1236.5 1037 c 128,-1,58
 1305 1063 1305 1063 1353 1095 c 0,59,60
 1400 1126 1400 1126 1422 1169 c 128,-1,61
 1444 1212 1444 1212 1440.5 1253 c 128,-1,62
 1437 1294 1437 1294 1414 1328 c 1,63,64
 1379 1383 1379 1383 1315.5 1396 c 128,-1,65
 1252 1409 1252 1409 1175 1364 c 1,66,67
 1142 1342 1142 1342 1102.5 1304.5 c 128,-1,68
 1063 1267 1063 1267 1038 1238.5 c 128,-1,69
 1013 1210 1013 1210 968 1156.5 c 128,-1,70
 923 1103 923 1103 908 1086 c 1,71,72
 914 1105 914 1105 929.5 1156.5 c 128,-1,73
 945 1208 945 1208 953.5 1238 c 128,-1,74
 962 1268 962 1268 973 1311.5 c 128,-1,75
 984 1355 984 1355 989 1392 c 128,-1,76
 994 1429 994 1429 994 1461 c 0,77,78
 994 1545 994 1545 946 1593 c 128,-1,79
 898 1641 898 1641 833 1641 c 128,-1,80
 768 1641 768 1641 720 1593 c 128,-1,81
 672 1545 672 1545 672 1461 c 0,82,83
 672 1421 672 1421 682 1367 c 128,-1,84
 692 1313 692 1313 701 1279 c 128,-1,85
 710 1245 710 1245 731 1173.5 c 128,-1,86
 752 1102 752 1102 757 1086 c 1,87,88
 747 1098 747 1098 698.5 1156 c 128,-1,89
 650 1214 650 1214 627 1239.5 c 128,-1,90
 604 1265 604 1265 564 1303.5 c 128,-1,91
 524 1342 524 1342 491 1364 c 1,92,93
 414 1409 414 1409 350.5 1396 c 128,-1,94
 287 1383 287 1383 252 1328 c 1,0,1
EndSplineSet
EndChar

StartChar: at
Encoding: 335 64 79
Width: 2037
VWidth: 0
Flags: W
HStem: -198 235<766.102 1222.98> 190 184<864.602 1032.59> 204 194<1416 1522> 817 147<964.901 1078.46> 1117 255<732.195 1295.75>
VStem: 99 315<353.025 807.426> 597 343<386.907 776.234> 1096 320<398.003 409 603 784.503> 1574 285<459.051 873.392>
LayerCount: 2
Fore
SplineSet
1415 603 m 2,0,1
 1415 676 1415 676 1397.5 735 c 128,-1,2
 1380 794 1380 794 1354.5 830.5 c 128,-1,3
 1329 867 1329 867 1289.5 894 c 128,-1,4
 1250 921 1250 921 1217 934 c 128,-1,5
 1184 947 1184 947 1140.5 954.5 c 128,-1,6
 1097 962 1097 962 1074 963 c 128,-1,7
 1051 964 1051 964 1022 964 c 0,8,9
 911 964 911 964 826.5 933.5 c 128,-1,10
 742 903 742 903 693.5 849.5 c 128,-1,11
 645 796 645 796 621 730.5 c 128,-1,12
 597 665 597 665 597 588 c 0,13,14
 597 409 597 409 680.5 299.5 c 128,-1,15
 764 190 764 190 883 190 c 0,16,17
 940 190 940 190 1000.5 217.5 c 128,-1,18
 1061 245 1061 245 1096 294 c 1,19,-1
 1134 204 l 1,20,-1
 1284 204 l 2,21,22
 1435 204 1435 204 1547 239 c 128,-1,23
 1659 274 1659 274 1726.5 338.5 c 128,-1,24
 1794 403 1794 403 1826.5 487.5 c 128,-1,25
 1859 572 1859 572 1859 677 c 0,26,27
 1859 821 1859 821 1800.5 947.5 c 128,-1,28
 1742 1074 1742 1074 1634.5 1168.5 c 128,-1,29
 1527 1263 1527 1263 1364 1317.5 c 128,-1,30
 1201 1372 1201 1372 1004 1372 c 0,31,32
 793 1372 793 1372 620 1308 c 128,-1,33
 447 1244 447 1244 334 1134 c 128,-1,34
 221 1024 221 1024 160 878.5 c 128,-1,35
 99 733 99 733 99 567 c 0,36,37
 99 409 99 409 163 270.5 c 128,-1,38
 227 132 227 132 345.5 27.5 c 128,-1,39
 464 -77 464 -77 647 -137.5 c 128,-1,40
 830 -198 830 -198 1054 -198 c 0,41,42
 1159 -198 1159 -198 1269 -169 c 1,43,-1
 1217 59 l 1,44,45
 1141 37 1141 37 1054 37 c 0,46,47
 898 37 898 37 774.5 78.5 c 128,-1,48
 651 120 651 120 573 192.5 c 128,-1,49
 495 265 495 265 454.5 360.5 c 128,-1,50
 414 456 414 456 414 567 c 0,51,52
 414 819 414 819 567 968 c 128,-1,53
 720 1117 720 1117 1004 1117 c 0,54,55
 1284 1117 1284 1117 1429 997 c 128,-1,56
 1574 877 1574 877 1574 677 c 0,57,58
 1574 604 1574 604 1564 550.5 c 128,-1,59
 1554 497 1554 497 1539 468.5 c 128,-1,60
 1524 440 1524 440 1501 423.5 c 128,-1,61
 1478 407 1478 407 1459 402.5 c 128,-1,62
 1440 398 1440 398 1416 398 c 1,63,-1
 1415 603 l 2,0,1
940 582 m 0,64,65
 940 632 940 632 943 669 c 128,-1,66
 946 706 946 706 954 742 c 128,-1,67
 962 778 962 778 978.5 797.5 c 128,-1,68
 995 817 995 817 1020 817 c 0,69,70
 1062 817 1062 817 1079 785.5 c 128,-1,71
 1096 754 1096 754 1096 671 c 2,72,-1
 1096 409 l 1,73,74
 1068 374 1068 374 1013 374 c 0,75,76
 980 374 980 374 960 431.5 c 128,-1,77
 940 489 940 489 940 582 c 0,64,65
EndSplineSet
EndChar

StartChar: atilde
Encoding: 336 227 80
Width: 1337
VWidth: 0
Flags: W
HStem: -18 242<365 659> 438 192<450.5 746.246> 803 289<376.177 698.495> 1145 253<383.831 598.417> 1266 257<690.09 905.864>
VStem: 57 490<245.338 415.859>
DStem2: 544 1417.5 592.5 1175.5 0.904739 0.425967<-82.3774 191.133>
LayerCount: 2
Fore
SplineSet
57 308 m 0,0,1
 57 159 57 159 170.5 70.5 c 128,-1,2
 284 -18 284 -18 446 -18 c 0,3,4
 528 -18 528 -18 615 18 c 128,-1,5
 702 54 702 54 752 119 c 1,6,-1
 802 0 l 1,7,-1
 1274 0 l 1,8,-1
 1274 305 l 1,9,-1
 1198 305 l 1,10,-1
 1198 750 l 2,11,12
 1198 819 1198 819 1172.5 874.5 c 128,-1,13
 1147 930 1147 930 1109.5 965 c 128,-1,14
 1072 1000 1072 1000 1015.5 1025.5 c 128,-1,15
 959 1051 959 1051 910.5 1063.5 c 128,-1,16
 862 1076 862 1076 799.5 1083 c 128,-1,17
 737 1090 737 1090 704 1091 c 128,-1,18
 671 1092 671 1092 630 1092 c 0,19,20
 523 1092 523 1092 402 1074.5 c 128,-1,21
 281 1057 281 1057 214 1039.5 c 2,22,-1
 147 1022 l 1,23,-1
 147 708 l 1,24,-1
 322 708 l 1,25,26
 394 803 394 803 537 803 c 0,27,28
 748 803 748 803 748 637 c 2,29,-1
 748 592 l 1,30,31
 638 630 638 630 492 630 c 0,32,33
 409 630 409 630 332.5 609.5 c 128,-1,34
 256 589 256 589 194 550 c 128,-1,35
 132 511 132 511 94.5 448 c 128,-1,36
 57 385 57 385 57 308 c 0,0,1
547 326 m 0,37,38
 547 369 547 369 578 403.5 c 128,-1,39
 609 438 609 438 652 438 c 0,40,41
 674 438 674 438 698.5 433 c 128,-1,42
 723 428 723 428 737 422.5 c 2,43,-1
 751 417 l 1,44,-1
 751 270 l 1,45,46
 747 265 747 265 739 257.5 c 128,-1,47
 731 250 731 250 703 237 c 128,-1,48
 675 224 675 224 643 224 c 0,49,50
 599 224 599 224 573 252.5 c 128,-1,51
 547 281 547 281 547 326 c 0,37,38
816 1523 m 0,52,53
 860 1523 860 1523 896 1504 c 128,-1,54
 932 1485 932 1485 958 1450.5 c 128,-1,55
 984 1416 984 1416 1003.5 1382 c 128,-1,56
 1023 1348 1023 1348 1046.5 1303 c 128,-1,57
 1070 1258 1070 1258 1088 1232 c 1,58,-1
 975 1158 l 1,59,60
 902 1228 902 1228 874.5 1247 c 128,-1,61
 847 1266 847 1266 828 1266 c 0,62,63
 783 1266 783 1266 721 1236 c 128,-1,64
 659 1206 659 1206 592.5 1175.5 c 128,-1,65
 526 1145 526 1145 471 1145 c 0,66,67
 426 1145 426 1145 390 1163.5 c 128,-1,68
 354 1182 354 1182 327.5 1216.5 c 128,-1,69
 301 1251 301 1251 282 1284.5 c 128,-1,70
 263 1318 263 1318 239 1363.5 c 128,-1,71
 215 1409 215 1409 197 1435 c 1,72,-1
 311 1510 l 1,73,74
 387 1437 387 1437 415 1417.5 c 128,-1,75
 443 1398 443 1398 461 1398 c 0,76,77
 497 1398 497 1398 544 1417.5 c 128,-1,78
 591 1437 591 1437 630 1460.5 c 128,-1,79
 669 1484 669 1484 720 1503.5 c 128,-1,80
 771 1523 771 1523 816 1523 c 0,52,53
EndSplineSet
EndChar

StartChar: b
Encoding: 337 98 81
Width: 1432
VWidth: 0
Flags: W
HStem: -18 346<749.374 959.5> 758 334<754.951 978.5>
VStem: 920 466<378.032 705.728>
LayerCount: 2
Fore
SplineSet
629 1631 m 1,0,-1
 63 1631 l 1,1,-1
 63 1325 l 1,2,-1
 147 1325 l 1,3,-1
 147 0 l 1,4,-1
 597 0 l 1,5,-1
 637 102 l 1,6,7
 734.606034801 32.4297411527 734.606034801 32.4297411527 772.342483768 14.1022437741 c 0,8,9
 838.441234671 -18 838.441234671 -18 913 -18 c 0,10,11
 1006 -18 1006 -18 1084.5 13 c 128,-1,12
 1163 44 1163 44 1218 97 c 128,-1,13
 1273 150 1273 150 1311.5 221 c 128,-1,14
 1350 292 1350 292 1368 372 c 128,-1,15
 1386 452 1386 452 1386 538 c 0,16,17
 1386 619 1386 619 1368.5 697.5 c 128,-1,18
 1351 776 1351 776 1314.5 847.5 c 128,-1,19
 1278 919 1278 919 1225.5 973.5 c 128,-1,20
 1173 1028 1173 1028 1098 1060 c 128,-1,21
 1023 1092 1023 1092 934 1092 c 0,22,23
 786 1092 786 1092 629 965 c 1,24,-1
 629 1631 l 1,0,-1
633 662 m 1,25,26
 635 666 635 666 638.5 672.5 c 128,-1,27
 642 679 642 679 655 695.5 c 128,-1,28
 668 712 668 712 682 724.5 c 128,-1,29
 696 737 696 737 719.5 747.5 c 128,-1,30
 743 758 743 758 768 758 c 0,31,32
 807 758 807 758 835.5 741 c 128,-1,33
 864 724 864 724 880 700 c 128,-1,34
 896 676 896 676 905.5 641.5 c 128,-1,35
 915 607 915 607 917.5 578.5 c 128,-1,36
 920 550 920 550 920 519 c 0,37,38
 920 427 920 427 877 377.5 c 128,-1,39
 834 328 834 328 768 328 c 0,40,41
 732 328 732 328 698 345 c 128,-1,42
 664 362 664 362 648.5 379 c 2,43,-1
 633 396 l 1,44,-1
 633 662 l 1,25,26
EndSplineSet
EndChar

StartChar: backslash
Encoding: 338 92 82
Width: 1012
VWidth: 0
Flags: W
HStem: 0 21G<384.786 962> 1603 20G<47 625.202>
VStem: 47 574<1049 1623> 389 573<0 573>
DStem2: 621 1623 47 1623 0.206193 -0.978511<0 1540.29>
LayerCount: 2
Fore
SplineSet
389 0 m 1,0,-1
 47 1623 l 1,1,-1
 621 1623 l 1,2,-1
 962 0 l 1,3,-1
 389 0 l 1,0,-1
EndSplineSet
EndChar

StartChar: bar
Encoding: 339 124 83
Width: 791
VWidth: 0
Flags: W
VStem: 202 395
LayerCount: 2
Fore
SplineSet
202 1623 m 1,0,-1
 202 0 l 1,1,-1
 597 0 l 1,2,-1
 597 1623 l 1,3,-1
 202 1623 l 1,0,-1
EndSplineSet
EndChar

StartChar: braceleft
Encoding: 340 123 84
Width: 957
VWidth: 0
Flags: W
HStem: 722 243<34 162.89>
VStem: 199 484<371.716 684.495 1002.38 1315.28>
LayerCount: 2
Fore
SplineSet
199 1128 m 0,0,1
 199 1096 199 1096 193.5 1072 c 128,-1,2
 188 1048 188 1048 172.5 1022.5 c 128,-1,3
 157 997 157 997 122 982 c 128,-1,4
 87 967 87 967 34 965 c 1,5,-1
 34 722 l 1,6,7
 87 720 87 720 122 705 c 128,-1,8
 157 690 157 690 172.5 664.5 c 128,-1,9
 188 639 188 639 193.5 615 c 128,-1,10
 199 591 199 591 199 559 c 0,11,12
 199 441 199 441 238.5 338.5 c 128,-1,13
 278 236 278 236 355 155.5 c 128,-1,14
 432 75 432 75 558 29 c 128,-1,15
 684 -17 684 -17 845 -17 c 1,16,-1
 845 314 l 1,17,18
 683 314 683 314 683 560 c 0,19,20
 683 751 683 751 432 843 c 1,21,22
 683 936 683 936 683 1127 c 0,23,24
 683 1373 683 1373 845 1373 c 1,25,-1
 845 1704 l 1,26,27
 684 1704 684 1704 558 1658 c 128,-1,28
 432 1612 432 1612 355 1531.5 c 128,-1,29
 278 1451 278 1451 238.5 1348.5 c 128,-1,30
 199 1246 199 1246 199 1128 c 0,0,1
EndSplineSet
EndChar

StartChar: braceright
Encoding: 341 125 85
Width: 1780
VWidth: 0
Flags: W
HStem: -17 21G<250 330.5> 722 243<932.11 1061>
VStem: 412 484<371.716 684.495 1002.38 1315.28>
LayerCount: 2
Fore
SplineSet
896 1128 m 0,0,1
 896 1096 896 1096 901.5 1072 c 128,-1,2
 907 1048 907 1048 922.5 1022.5 c 128,-1,3
 938 997 938 997 973 982 c 128,-1,4
 1008 967 1008 967 1061 965 c 1,5,-1
 1061 722 l 1,6,7
 1008 720 1008 720 973 705 c 128,-1,8
 938 690 938 690 922.5 664.5 c 128,-1,9
 907 639 907 639 901.5 615 c 128,-1,10
 896 591 896 591 896 559 c 0,11,12
 896 441 896 441 856.5 338.5 c 128,-1,13
 817 236 817 236 740 155.5 c 128,-1,14
 663 75 663 75 537 29 c 128,-1,15
 411 -17 411 -17 250 -17 c 1,16,-1
 250 314 l 1,17,18
 412 314 412 314 412 560 c 0,19,20
 412 751 412 751 663 843 c 1,21,22
 412 936 412 936 412 1127 c 0,23,24
 412 1373 412 1373 250 1373 c 1,25,-1
 250 1704 l 1,26,27
 411 1704 411 1704 537 1658 c 128,-1,28
 663 1612 663 1612 740 1531.5 c 128,-1,29
 817 1451 817 1451 856.5 1348.5 c 128,-1,30
 896 1246 896 1246 896 1128 c 0,0,1
EndSplineSet
EndChar

StartChar: bracketleft
Encoding: 342 91 86
Width: 1417
VWidth: 0
Flags: W
HStem: 0 311<587 779> 1322 301<587 784>
VStem: 70 714<0 311 1322 1623> 70 517<311 1322>
LayerCount: 2
Fore
SplineSet
70 0 m 1,0,-1
 70 1623 l 1,1,-1
 784 1623 l 1,2,-1
 784 1322 l 1,3,-1
 587 1322 l 1,4,-1
 587 311 l 1,5,-1
 780 311 l 1,6,-1
 779 0 l 1,7,-1
 70 0 l 1,0,-1
EndSplineSet
EndChar

StartChar: bracketright
Encoding: 343 93 87
Width: 1417
VWidth: 0
Flags: W
LayerCount: 2
Fore
SplineSet
784 0 m 1,0,-1
 784 1623 l 1,1,-1
 70 1623 l 1,2,-1
 70 1322 l 1,3,-1
 267 1322 l 1,4,-1
 267 311 l 1,5,-1
 74 311 l 1,6,-1
 75 0 l 1,7,-1
 784 0 l 1,0,-1
EndSplineSet
EndChar

StartChar: breve
Encoding: 344 728 88
Width: 1707
VWidth: 0
Flags: W
HStem: 1245 216<665.053 877.159> 1602 20G<366 618 922 1174>
VStem: 366 252<1504.84 1622> 922 252<1505.25 1622>
LayerCount: 2
Fore
SplineSet
770 1245 m 0,0,1
 571 1245 571 1245 468.5 1345 c 128,-1,2
 366 1445 366 1445 366 1622 c 1,3,-1
 618 1622 l 1,4,5
 618 1546 618 1546 663 1503.5 c 128,-1,6
 708 1461 708 1461 770 1461 c 128,-1,7
 832 1461 832 1461 877 1503.5 c 128,-1,8
 922 1546 922 1546 922 1622 c 1,9,-1
 1174 1622 l 1,10,11
 1174 1446 1174 1446 1070.5 1345.5 c 128,-1,12
 967 1245 967 1245 770 1245 c 0,0,1
EndSplineSet
EndChar

StartChar: brokenbar
Encoding: 345 166 89
Width: 791
VWidth: 0
Flags: W
VStem: 202 395
LayerCount: 2
Fore
SplineSet
202 721 m 1,0,-1
 202 0 l 1,1,-1
 597 0 l 1,2,-1
 597 721 l 1,3,-1
 202 721 l 1,0,-1
202 1623 m 1,4,-1
 202 902 l 1,5,-1
 597 902 l 1,6,-1
 597 1623 l 1,7,-1
 202 1623 l 1,4,-1
EndSplineSet
EndChar

StartChar: bullet
Encoding: 346 8226 90
Width: 1368
VWidth: 0
Flags: W
HStem: 141 778<496.942 877.312>
VStem: 297 789<343.296 723.89>
LayerCount: 2
Fore
SplineSet
297 537 m 2,0,-1
 297 550 l 2,1,2
 297 639 297 639 330 711 c 128,-1,3
 363 783 363 783 418.5 827.5 c 128,-1,4
 474 872 474 872 542.5 895.5 c 128,-1,5
 611 919 611 919 686 919 c 0,6,7
 762 919 762 919 832.5 894.5 c 128,-1,8
 903 870 903 870 960 824 c 128,-1,9
 1017 778 1017 778 1051.5 703.5 c 128,-1,10
 1086 629 1086 629 1086 537 c 0,11,12
 1086 442 1086 442 1052 364.5 c 128,-1,13
 1018 287 1018 287 961 239.5 c 128,-1,14
 904 192 904 192 833.5 166.5 c 128,-1,15
 763 141 763 141 687 141 c 0,16,17
 610 141 610 141 540.5 166.5 c 128,-1,18
 471 192 471 192 416 239.5 c 128,-1,19
 361 287 361 287 329 364 c 128,-1,20
 297 441 297 441 297 537 c 2,0,-1
EndSplineSet
EndChar

StartChar: c
Encoding: 347 99 91
Width: 1122
VWidth: 0
Flags: W
HStem: -18 313<579.823 774.954> 778 314<514.5 750.586>
VStem: 54 473<349.733 710.58> 805 242<323.75 425 628 734.682>
LayerCount: 2
Fore
SplineSet
54 546 m 0,0,1
 54 368 54 368 127.5 238.5 c 128,-1,2
 201 109 201 109 324.5 45.5 c 128,-1,3
 448 -18 448 -18 606 -18 c 0,4,5
 732 -18 732 -18 856 18.5 c 128,-1,6
 980 55 980 55 1049 124 c 1,7,-1
 1049 425 l 1,8,-1
 809 425 l 1,9,10
 808 420 808 420 806.5 411 c 128,-1,11
 805 402 805 402 796.5 379.5 c 128,-1,12
 788 357 788 357 775.5 340 c 128,-1,13
 763 323 763 323 738.5 309 c 128,-1,14
 714 295 714 295 682 295 c 0,15,16
 639 295 639 295 607.5 315 c 128,-1,17
 576 335 576 335 559 368 c 128,-1,18
 542 401 542 401 534.5 437 c 128,-1,19
 527 473 527 473 527 513 c 0,20,21
 527 648 527 648 573 713 c 128,-1,22
 619 778 619 778 682 778 c 0,23,24
 733 778 733 778 769 736 c 128,-1,25
 805 694 805 694 805 628 c 1,26,-1
 1047 628 l 1,27,-1
 1047 1072 l 1,28,-1
 872 1072 l 1,29,-1
 831 995 l 1,30,31
 710 1092 710 1092 573 1092 c 0,32,33
 456 1092 456 1092 357 1047.5 c 128,-1,34
 258 1003 258 1003 192.5 928 c 128,-1,35
 127 853 127 853 90.5 754 c 128,-1,36
 54 655 54 655 54 546 c 0,0,1
EndSplineSet
EndChar

StartChar: caron
Encoding: 348 711 92
Width: 1016
VWidth: 0
Flags: W
HStem: 1149 478
LayerCount: 2
Fore
SplineSet
366 1149 m 1,0,-1
 93 1526 l 1,1,-1
 247 1627 l 1,2,-1
 502 1382 l 1,3,-1
 757 1627 l 1,4,-1
 911 1526 l 1,5,-1
 637 1150 l 1,6,-1
 366 1149 l 1,0,-1
EndSplineSet
EndChar

StartChar: ccedilla
Encoding: 349 231 93
Width: 1122
VWidth: 0
Flags: W
HStem: -485 113<408 548.581> -18 18<485 665> 778 314<514.5 750.586>
VStem: 54 473<349.733 710.58> 595 203<-341.544 -186.382> 805 242<323.75 425 628 734.682>
LayerCount: 2
Fore
SplineSet
54 546 m 0,0,1
 54 368 54 368 127.5 238.5 c 128,-1,2
 201 109 201 109 324.5 45.5 c 128,-1,3
 448 -18 448 -18 606 -18 c 0,4,5
 732 -18 732 -18 856 18.5 c 128,-1,6
 980 55 980 55 1049 124 c 1,7,-1
 1049 425 l 1,8,-1
 809 425 l 1,9,10
 808 420 808 420 806.5 411 c 128,-1,11
 805 402 805 402 796.5 379.5 c 128,-1,12
 788 357 788 357 775.5 340 c 128,-1,13
 763 323 763 323 738.5 309 c 128,-1,14
 714 295 714 295 682 295 c 0,15,16
 639 295 639 295 607.5 315 c 128,-1,17
 576 335 576 335 559 368 c 128,-1,18
 542 401 542 401 534.5 437 c 128,-1,19
 527 473 527 473 527 513 c 0,20,21
 527 648 527 648 573 713 c 128,-1,22
 619 778 619 778 682 778 c 0,23,24
 733 778 733 778 769 736 c 128,-1,25
 805 694 805 694 805 628 c 1,26,-1
 1047 628 l 1,27,-1
 1047 1072 l 1,28,-1
 872 1072 l 1,29,-1
 831 995 l 1,30,31
 710 1092 710 1092 573 1092 c 0,32,33
 456 1092 456 1092 357 1047.5 c 128,-1,34
 258 1003 258 1003 192.5 928 c 128,-1,35
 127 853 127 853 90.5 754 c 128,-1,36
 54 655 54 655 54 546 c 0,0,1
485 -119 m 1,37,38
 531 -145 531 -145 563 -188 c 128,-1,39
 595 -231 595 -231 595 -271 c 0,40,41
 595 -315 595 -315 550 -343 c 128,-1,42
 505 -371 505 -371 408 -372 c 1,43,-1
 408 -485 l 1,44,-1
 429 -485 l 2,45,46
 581 -485 581 -485 689.5 -426 c 128,-1,47
 798 -367 798 -367 798 -285 c 0,48,49
 798 -196 798 -196 665 -119 c 1,50,-1
 665 0 l 1,51,-1
 485 0 l 1,52,-1
 485 -119 l 1,37,38
EndSplineSet
EndChar

StartChar: cedilla
Encoding: 350 184 94
Width: 502
VWidth: 0
Flags: W
HStem: -485 113<70 210.581>
VStem: 257 203<-341.544 -186.382>
LayerCount: 2
Fore
SplineSet
147 -119 m 1,0,1
 193 -145 193 -145 225 -188 c 128,-1,2
 257 -231 257 -231 257 -271 c 0,3,4
 257 -315 257 -315 212 -343 c 128,-1,5
 167 -371 167 -371 70 -372 c 1,6,-1
 70 -485 l 1,7,-1
 91 -485 l 2,8,9
 243 -485 243 -485 351.5 -426 c 128,-1,10
 460 -367 460 -367 460 -285 c 0,11,12
 460 -196 460 -196 327 -119 c 1,13,-1
 327 0 l 1,14,-1
 147 0 l 1,15,-1
 147 -119 l 1,0,1
EndSplineSet
EndChar

StartChar: cent
Encoding: 351 162 95
Width: 1122
VWidth: 0
Flags: W
VStem: 54 473<350.011 710.132> 805 242<324.195 425 628 745.69>
LayerCount: 2
Fore
SplineSet
619 1362 m 1,0,-1
 619 1089 l 1,1,2
 596 1092 596 1092 573 1092 c 0,3,4
 456 1092 456 1092 357 1047.5 c 128,-1,5
 258 1003 258 1003 192.5 928 c 128,-1,6
 127 853 127 853 90.5 754 c 128,-1,7
 54 655 54 655 54 546 c 0,8,9
 54 368 54 368 127.5 238.5 c 128,-1,10
 201 109 201 109 324.5 45.5 c 128,-1,11
 448 -18 448 -18 606 -18 c 2,12,-1
 619 -18 l 1,13,-1
 619 -261 l 1,14,-1
 731 -261 l 1,15,-1
 731 -9 l 1,16,17
 946 21 946 21 1049 124 c 1,18,-1
 1049 425 l 1,19,-1
 809 425 l 1,20,21
 809 421 809 421 807.5 415 c 128,-1,22
 806 409 806 409 801 392 c 128,-1,23
 796 375 796 375 788 360 c 128,-1,24
 780 345 780 345 765 329 c 128,-1,25
 750 313 750 313 731 305 c 1,26,-1
 731 766 l 1,27,28
 764 750 764 750 784.5 713.5 c 128,-1,29
 805 677 805 677 805 628 c 1,30,-1
 1047 628 l 1,31,-1
 1047 1072 l 1,32,-1
 872 1072 l 1,33,-1
 831 995 l 1,34,35
 781 1034 781 1034 731 1057 c 1,36,-1
 731 1362 l 1,37,-1
 619 1362 l 1,0,-1
527 513 m 0,38,39
 527 701 527 701 619 759 c 1,40,-1
 619 309 l 1,41,42
 571 332 571 332 549 389 c 128,-1,43
 527 446 527 446 527 513 c 0,38,39
EndSplineSet
EndChar

StartChar: circumflex
Encoding: 352 710 96
Width: 1016
VWidth: 0
Flags: W
HStem: 1348 20G<491.184 532.816>
LayerCount: 2
Fore
SplineSet
376 1601 m 1,0,-1
 103 1224 l 1,1,-1
 257 1123 l 1,2,-1
 512 1368 l 1,3,-1
 767 1123 l 1,4,-1
 921 1224 l 1,5,-1
 647 1600 l 1,6,-1
 376 1601 l 1,0,-1
EndSplineSet
EndChar

StartChar: colon
Encoding: 353 58 97
Width: 735
VWidth: 0
Flags: W
HStem: -18 495<196.82 535.174> 596 495<196.82 535.174>
VStem: 86 564<88.7108 375.062 702.711 989.062>
LayerCount: 2
Fore
SplineSet
363 596 m 0,0,1
 244 596 244 596 165 663.5 c 128,-1,2
 86 731 86 731 86 846 c 0,3,4
 86 959 86 959 163.5 1025 c 128,-1,5
 241 1091 241 1091 363 1091 c 0,6,7
 490 1091 490 1091 570 1025 c 128,-1,8
 650 959 650 959 650 846 c 0,9,10
 650 731 650 731 567.5 663.5 c 128,-1,11
 485 596 485 596 363 596 c 0,0,1
363 -18 m 0,12,13
 244 -18 244 -18 165 49.5 c 128,-1,14
 86 117 86 117 86 232 c 0,15,16
 86 345 86 345 163.5 411 c 128,-1,17
 241 477 241 477 363 477 c 0,18,19
 490 477 490 477 570 411 c 128,-1,20
 650 345 650 345 650 232 c 0,21,22
 650 117 650 117 567.5 49.5 c 128,-1,23
 485 -18 485 -18 363 -18 c 0,12,13
EndSplineSet
EndChar

StartChar: comma
Encoding: 354 44 98
Width: 1707
VWidth: 0
Flags: W
HStem: -448 225<290 439.996>
VStem: 478 346<-182.805 0>
LayerCount: 2
Fore
SplineSet
290 -448 m 1,0,1
 564 -448 564 -448 694 -318.5 c 128,-1,2
 824 -189 824 -189 824 89 c 0,3,4
 824 212 824 212 800 366 c 1,5,-1
 290 366 l 1,6,-1
 290 0 l 1,7,-1
 479 0 l 1,8,9
 479 -42 479 -42 478 -64.5 c 128,-1,10
 477 -87 477 -87 471.5 -117 c 128,-1,11
 466 -147 466 -147 454 -163 c 128,-1,12
 442 -179 442 -179 421.5 -194.5 c 128,-1,13
 401 -210 401 -210 368 -216.5 c 128,-1,14
 335 -223 335 -223 290 -223 c 1,15,-1
 290 -448 l 1,0,1
EndSplineSet
EndChar

StartChar: copyright
Encoding: 355 169 99
Width: 1769
VWidth: 0
Flags: W
HStem: -18 154<654.743 1134.41> 252 236<825.622 1036.64> 1088 230<767.5 1014.91> 1448 154<654.743 1134.41>
VStem: 53 174<557.615 1026.39> 378 393.5<543.63 1035.42> 1070 189<521.271 658 898 1041.92> 1559 174<554.455 1029.54>
LayerCount: 2
Fore
SplineSet
53 792 m 128,-1,1
 53 628 53 628 119.5 478 c 128,-1,2
 186 328 186 328 298.5 219.5 c 128,-1,3
 411 111 411 111 566.5 46.5 c 128,-1,4
 722 -18 722 -18 893 -18 c 128,-1,5
 1064 -18 1064 -18 1219.5 46.5 c 128,-1,6
 1375 111 1375 111 1487.5 219.5 c 128,-1,7
 1600 328 1600 328 1666.5 478 c 128,-1,8
 1733 628 1733 628 1733 792 c 128,-1,9
 1733 956 1733 956 1666.5 1106 c 128,-1,10
 1600 1256 1600 1256 1487.5 1364.5 c 128,-1,11
 1375 1473 1375 1473 1219.5 1537.5 c 128,-1,12
 1064 1602 1064 1602 893 1602 c 128,-1,13
 722 1602 722 1602 566.5 1537.5 c 128,-1,14
 411 1473 411 1473 298.5 1364.5 c 128,-1,15
 186 1256 186 1256 119.5 1106 c 128,-1,0
 53 956 53 956 53 792 c 128,-1,1
227 792 m 128,-1,17
 227 925 227 925 280 1046.5 c 128,-1,18
 333 1168 333 1168 422.5 1256 c 128,-1,19
 512 1344 512 1344 635 1396 c 128,-1,20
 758 1448 758 1448 893 1448 c 0,21,22
 1073 1448 1073 1448 1226.5 1360 c 128,-1,23
 1380 1272 1380 1272 1469.5 1121 c 128,-1,24
 1559 970 1559 970 1559 792 c 128,-1,25
 1559 614 1559 614 1469.5 463 c 128,-1,26
 1380 312 1380 312 1226.5 224 c 128,-1,27
 1073 136 1073 136 893 136 c 0,28,29
 758 136 758 136 635 188 c 128,-1,30
 512 240 512 240 422.5 328 c 128,-1,31
 333 416 333 416 280 537.5 c 128,-1,16
 227 659 227 659 227 792 c 128,-1,17
1265 658 m 1,32,-1
 1074 658 l 1,33,34
 1072 611 1072 611 1069 598 c 0,35,36
 1059 547 1059 547 1020.5 517.5 c 128,-1,37
 982 488 982 488 930 488 c 0,38,39
 904 488 904 488 883 494.5 c 128,-1,40
 862 501 862 501 846.5 510.5 c 128,-1,41
 831 520 831 520 819 537.5 c 128,-1,42
 807 555 807 555 799 569.5 c 128,-1,43
 791 584 791 584 785.5 609 c 128,-1,44
 780 634 780 634 777 649.5 c 128,-1,45
 774 665 774 665 773 694 c 128,-1,46
 772 723 772 723 771.5 735.5 c 128,-1,47
 771 748 771 748 771.5 776.5 c 128,-1,48
 772 805 772 805 772 812 c 0,49,50
 772 847 772 847 773 872 c 128,-1,51
 774 897 774 897 778.5 932.5 c 128,-1,52
 783 968 783 968 793 992.5 c 128,-1,53
 803 1017 803 1017 819 1040.5 c 128,-1,54
 835 1064 835 1064 861 1076 c 128,-1,55
 887 1088 887 1088 922 1088 c 0,56,57
 975 1088 975 1088 1010 1057 c 128,-1,58
 1045 1026 1045 1026 1058 985 c 128,-1,59
 1071 944 1071 944 1070 898 c 1,60,-1
 1259 898 l 1,61,-1
 1259 1299 l 1,62,-1
 1062 1299 l 1,63,-1
 1040 1254 l 1,64,65
 974 1318 974 1318 812 1318 c 0,66,67
 723 1318 723 1318 649 1287 c 128,-1,68
 575 1256 575 1256 525.5 1204 c 128,-1,69
 476 1152 476 1152 442 1082 c 128,-1,70
 408 1012 408 1012 393 936 c 128,-1,71
 378 860 378 860 378 780 c 0,72,73
 378 536 378 536 503.5 394 c 128,-1,74
 629 252 629 252 865 252 c 0,75,76
 931 252 931 252 997 267 c 128,-1,77
 1063 282 1063 282 1109 303.5 c 128,-1,78
 1155 325 1155 325 1192 346.5 c 128,-1,79
 1229 368 1229 368 1247 383 c 2,80,-1
 1265 398 l 1,81,-1
 1265 658 l 1,32,-1
EndSplineSet
EndChar

StartChar: currency
Encoding: 356 164 100
Width: 1707
VWidth: 0
Flags: W
HStem: 540 161<509.616 870.204> 1493 161<507.194 870.192>
VStem: 115 194<900.843 1295.5> 1069 194<900.123 1293.46>
DStem2: 266 1621 163 1518 0.707107 -0.707107<0 101.33 1238.9 1359.06> 163 660 266 557 0.707107 0.707107<0 109.859 1247.06 1359.06>
LayerCount: 2
Fore
SplineSet
115 1097 m 0,0,1
 115 879 115 879 237 734 c 1,2,-1
 163 660 l 1,3,-1
 266 557 l 1,4,-1
 347 638 l 1,5,6
 495 540 495 540 689 540 c 0,7,8
 887 540 887 540 1038 643 c 1,9,-1
 1124 557 l 1,10,-1
 1227 660 l 1,11,-1
 1146 741 l 1,12,13
 1263 884 1263 884 1263 1097 c 0,14,15
 1263 1302 1263 1302 1153 1444 c 1,16,-1
 1227 1518 l 1,17,-1
 1124 1621 l 1,18,-1
 1047 1544 l 1,19,20
 894 1654 894 1654 689 1654 c 0,21,22
 490 1654 490 1654 337 1549 c 1,23,-1
 266 1621 l 1,24,-1
 163 1518 l 1,25,-1
 230 1450 l 1,26,27
 115 1307 115 1307 115 1097 c 0,0,1
1069 1097 m 128,-1,29
 1069 1002 1069 1002 1036.5 924.5 c 128,-1,30
 1004 847 1004 847 949.5 799.5 c 128,-1,31
 895 752 895 752 828 726.5 c 128,-1,32
 761 701 761 701 689 701 c 128,-1,33
 617 701 617 701 550 726.5 c 128,-1,34
 483 752 483 752 428.5 799.5 c 128,-1,35
 374 847 374 847 341.5 924.5 c 128,-1,36
 309 1002 309 1002 309 1097 c 128,-1,37
 309 1192 309 1192 341.5 1269.5 c 128,-1,38
 374 1347 374 1347 428.5 1394.5 c 128,-1,39
 483 1442 483 1442 550 1467.5 c 128,-1,40
 617 1493 617 1493 689 1493 c 128,-1,41
 761 1493 761 1493 828 1467.5 c 128,-1,42
 895 1442 895 1442 949.5 1394.5 c 128,-1,43
 1004 1347 1004 1347 1036.5 1269.5 c 128,-1,28
 1069 1192 1069 1192 1069 1097 c 128,-1,29
EndSplineSet
EndChar

StartChar: d
Encoding: 357 100 101
Width: 1438
VWidth: 0
Flags: W
HStem: -19 338<478.494 682.384> 749 341<446.5 687.989>
VStem: 43 471<370.616 699.362>
LayerCount: 2
Fore
SplineSet
1370 305 m 1,0,-1
 1293 305 l 1,1,-1
 1292 1640 l 1,2,-1
 707 1640 l 1,3,-1
 707 1335 l 1,4,-1
 797 1335 l 1,5,-1
 797 960 l 1,6,7
 729 1029 729 1029 659.5 1059.5 c 128,-1,8
 590 1090 590 1090 498 1090 c 0,9,10
 395 1090 395 1090 307.5 1043 c 128,-1,11
 220 996 220 996 163 919 c 128,-1,12
 106 842 106 842 74.5 746 c 128,-1,13
 43 650 43 650 43 550 c 0,14,15
 43 445 43 445 72 346 c 128,-1,16
 101 247 101 247 156 164.5 c 128,-1,17
 211 82 211 82 302 31.5 c 128,-1,18
 393 -19 393 -19 506 -19 c 1,19,20
 596 -18 596 -18 673 21 c 128,-1,21
 750 60 750 60 801 128 c 1,22,-1
 801 0 l 1,23,-1
 1370 0 l 1,24,-1
 1370 305 l 1,0,-1
801 415 m 1,25,26
 799 411 799 411 795.5 404.5 c 128,-1,27
 792 398 792 398 779 381.5 c 128,-1,28
 766 365 766 365 752 352.5 c 128,-1,29
 738 340 738 340 714.5 329.5 c 128,-1,30
 691 319 691 319 666 319 c 0,31,32
 627 319 627 319 598.5 336 c 128,-1,33
 570 353 570 353 554 377 c 128,-1,34
 538 401 538 401 528.5 435.5 c 128,-1,35
 519 470 519 470 516.5 498.5 c 128,-1,36
 514 527 514 527 514 558 c 0,37,38
 514 650 514 650 557 699.5 c 128,-1,39
 600 749 600 749 666 749 c 0,40,41
 702 749 702 749 736 732 c 128,-1,42
 770 715 770 715 785.5 698 c 2,43,-1
 801 681 l 1,44,-1
 801 415 l 1,25,26
EndSplineSet
EndChar

StartChar: dagger
Encoding: 358 8224 102
Width: 791
VWidth: 0
Flags: W
LayerCount: 2
Fore
SplineSet
0 991 m 1,0,-1
 242 991 l 1,1,-1
 242 0 l 1,2,-1
 557 0 l 1,3,-1
 557 991 l 1,4,-1
 792 991 l 1,5,-1
 792 1286 l 1,6,-1
 557 1286 l 1,7,-1
 557 1623 l 1,8,-1
 242 1623 l 1,9,-1
 242 1286 l 1,10,-1
 0 1286 l 1,11,-1
 0 991 l 1,0,-1
EndSplineSet
EndChar

StartChar: daggerdbl
Encoding: 359 8225 103
Width: 791
VWidth: 0
Flags: W
LayerCount: 2
Fore
SplineSet
0 991 m 1,0,-1
 242 991 l 1,1,-1
 242 681 l 1,2,-1
 0 681 l 1,3,-1
 0 386 l 1,4,-1
 242 386 l 1,5,-1
 242 0 l 1,6,-1
 557 0 l 1,7,-1
 557 386 l 1,8,-1
 792 386 l 1,9,-1
 792 681 l 1,10,-1
 557 681 l 1,11,-1
 557 991 l 1,12,-1
 792 991 l 1,13,-1
 792 1286 l 1,14,-1
 557 1286 l 1,15,-1
 557 1623 l 1,16,-1
 242 1623 l 1,17,-1
 242 1286 l 1,18,-1
 0 1286 l 1,19,-1
 0 991 l 1,0,-1
EndSplineSet
EndChar

StartChar: uniF6D6
Encoding: 360 63190 104
Width: 1478
VWidth: 0
Flags: W
LayerCount: 2
Fore
SplineSet
962 1814 m 1,0,-1
 1115 1188 l 1,1,-1
 950 1128 l 1,2,-1
 662 1695 l 1,3,-1
 962 1814 l 1,0,-1
362 1795 m 1,4,-1
 669 1228 l 1,5,-1
 525 1129 l 1,6,-1
 102 1604 l 1,7,-1
 362 1795 l 1,4,-1
EndSplineSet
EndChar

StartChar: degree
Encoding: 361 176 105
Width: 1707
VWidth: 0
Flags: W
HStem: 951 141<460.122 726.746> 1495 138<458.845 728.027>
VStem: 238 152<1164.46 1426.35> 799 158<1166.1 1422.84>
LayerCount: 2
Fore
SplineSet
591 1092 m 0,0,1
 498 1092 498 1092 444 1153 c 128,-1,2
 390 1214 390 1214 390 1296 c 0,3,4
 390 1377 390 1377 443 1436 c 128,-1,5
 496 1495 496 1495 591 1495 c 0,6,7
 689 1495 689 1495 744 1436 c 128,-1,8
 799 1377 799 1377 799 1296 c 0,9,10
 799 1213 799 1213 743.5 1152.5 c 128,-1,11
 688 1092 688 1092 591 1092 c 0,0,1
591 951 m 0,12,13
 678 951 678 951 749 980.5 c 128,-1,14
 820 1010 820 1010 864.5 1059.5 c 128,-1,15
 909 1109 909 1109 933 1170 c 128,-1,16
 957 1231 957 1231 957 1297 c 0,17,18
 957 1362 957 1362 933.5 1421 c 128,-1,19
 910 1480 910 1480 866 1528 c 128,-1,20
 822 1576 822 1576 751 1604.5 c 128,-1,21
 680 1633 680 1633 591 1633 c 0,22,23
 506 1633 506 1633 437 1604.5 c 128,-1,24
 368 1576 368 1576 325.5 1528 c 128,-1,25
 283 1480 283 1480 260.5 1420.5 c 128,-1,26
 238 1361 238 1361 238 1297 c 0,27,28
 238 1231 238 1231 261 1170 c 128,-1,29
 284 1109 284 1109 327 1059.5 c 128,-1,30
 370 1010 370 1010 438.5 980.5 c 128,-1,31
 507 951 507 951 591 951 c 0,12,13
EndSplineSet
EndChar

StartChar: dieresis
Encoding: 362 168 106
Width: 1707
VWidth: 0
Flags: W
HStem: 1112 460<357.216 632.121 974.216 1249.12>
VStem: 268 452<1199.72 1487.11> 885 452<1199.72 1487.11>
LayerCount: 2
Fore
SplineSet
720 1342 m 0,0,1
 720 1234 720 1234 653.5 1173 c 128,-1,2
 587 1112 587 1112 496 1112 c 0,3,4
 403 1112 403 1112 335.5 1173.5 c 128,-1,5
 268 1235 268 1235 268 1345 c 0,6,7
 268 1452 268 1452 335 1512 c 128,-1,8
 402 1572 402 1572 494 1572 c 128,-1,9
 586 1572 586 1572 653 1511.5 c 128,-1,10
 720 1451 720 1451 720 1342 c 0,0,1
1337 1342 m 0,11,12
 1337 1234 1337 1234 1270.5 1173 c 128,-1,13
 1204 1112 1204 1112 1113 1112 c 0,14,15
 1020 1112 1020 1112 952.5 1173.5 c 128,-1,16
 885 1235 885 1235 885 1345 c 0,17,18
 885 1452 885 1452 952 1512 c 128,-1,19
 1019 1572 1019 1572 1111 1572 c 128,-1,20
 1203 1572 1203 1572 1270 1511.5 c 128,-1,21
 1337 1451 1337 1451 1337 1342 c 0,11,12
EndSplineSet
EndChar

StartChar: divide
Encoding: 363 247 107
Width: 774
VWidth: 0
Flags: W
HStem: -18 407<254.961 555.742> 886 407<254.961 555.742>
VStem: 175 464<59.7012 312.744 963.701 1216.74>
LayerCount: 2
Fore
SplineSet
0 761 m 1,0,-1
 0 538 l 1,1,-1
 774 538 l 1,2,-1
 774 761 l 1,3,-1
 0 761 l 1,0,-1
403 -18 m 0,4,5
 305 -18 305 -18 240 37.5 c 128,-1,6
 175 93 175 93 175 188 c 0,7,8
 175 280 175 280 238.5 334.5 c 128,-1,9
 302 389 302 389 403 389 c 0,10,11
 507 389 507 389 573 334.5 c 128,-1,12
 639 280 639 280 639 188 c 0,13,14
 639 93 639 93 571 37.5 c 128,-1,15
 503 -18 503 -18 403 -18 c 0,4,5
403 886 m 0,16,17
 305 886 305 886 240 941.5 c 128,-1,18
 175 997 175 997 175 1092 c 0,19,20
 175 1184 175 1184 238.5 1238.5 c 128,-1,21
 302 1293 302 1293 403 1293 c 0,22,23
 507 1293 507 1293 573 1238.5 c 128,-1,24
 639 1184 639 1184 639 1092 c 0,25,26
 639 997 639 997 571 941.5 c 128,-1,27
 503 886 503 886 403 886 c 0,16,17
EndSplineSet
EndChar

StartChar: dollar
Encoding: 364 36 108
Width: 1327
VWidth: 0
Flags: W
VStem: 57 386<1040.2 1249.72> 63 247<430.016 545>
LayerCount: 2
Fore
SplineSet
63 66 m 1,0,-1
 258 66 l 1,1,-1
 302 128 l 1,2,3
 414 76 414 76 553 48 c 1,4,-1
 553 -166 l 1,5,-1
 784 -166 l 1,6,-1
 784 35 l 1,7,8
 915 41 915 41 1026 106.5 c 128,-1,9
 1137 172 1137 172 1201 281.5 c 128,-1,10
 1265 391 1265 391 1262 518 c 0,11,12
 1260 603 1260 603 1233 672.5 c 128,-1,13
 1206 742 1206 742 1163.5 791 c 128,-1,14
 1121 840 1121 840 1058 879.5 c 128,-1,15
 995 919 995 919 930.5 944 c 128,-1,16
 866 969 866 969 784 991 c 1,17,-1
 784 1219 l 2,18,19
 784 1225 784 1225 795 1225 c 0,20,21
 805 1225 805 1225 815 1214 c 1,22,23
 899 1136 899 1136 922 1040 c 1,24,-1
 932 1030 l 1,25,26
 958 1028 958 1028 969 1028 c 0,27,28
 976 1028 976 1028 1000.5 1029 c 128,-1,29
 1025 1030 1025 1030 1026 1030 c 2,30,-1
 1147 1034 l 1,31,-1
 1153 1040 l 1,32,-1
 1153 1466 l 2,33,34
 1153 1467 1153 1467 1152 1468 c 128,-1,35
 1151 1469 1151 1469 1149.5 1470.5 c 128,-1,36
 1148 1472 1148 1472 1147 1473 c 0,37,38
 1146 1473 1146 1473 1139 1475 c 128,-1,39
 1132 1477 1132 1477 1130 1477 c 2,40,-1
 973 1477 l 1,41,-1
 946 1450 l 1,42,-1
 930 1434 l 1,43,44
 838 1476 838 1476 786 1494 c 1,45,-1
 786 1704 l 1,46,-1
 559 1704 l 1,47,-1
 559 1513 l 1,48,49
 332 1501 332 1501 194.5 1380.5 c 128,-1,50
 57 1260 57 1260 57 1053 c 0,51,52
 57 989 57 989 71 934.5 c 128,-1,53
 85 880 85 880 107.5 839.5 c 128,-1,54
 130 799 130 799 168 764 c 128,-1,55
 206 729 206 729 244 704.5 c 128,-1,56
 282 680 282 680 337.5 657 c 128,-1,57
 393 634 393 634 440 619 c 128,-1,58
 487 604 487 604 553 586 c 1,59,-1
 553 298 l 1,60,61
 480 298 480 298 398.5 379 c 128,-1,62
 317 460 317 460 310 545 c 1,63,-1
 63 545 l 1,64,-1
 63 66 l 1,0,-1
884 399 m 1,65,66
 884 365 884 365 852.5 336 c 128,-1,67
 821 307 821 307 784 307 c 1,68,-1
 784 527 l 1,69,70
 839 519 839 519 864 480 c 128,-1,71
 889 441 889 441 884 399 c 1,65,66
443 1180 m 0,72,73
 443 1217 443 1217 478.5 1244.5 c 128,-1,74
 514 1272 514 1272 557 1270 c 1,75,-1
 557 1059 l 1,76,77
 506 1070 506 1070 474.5 1103 c 128,-1,78
 443 1136 443 1136 443 1180 c 0,72,73
EndSplineSet
EndChar

StartChar: dotaccent
Encoding: 365 729 109
Width: 1090
VWidth: 0
Flags: W
HStem: 1145 495<390.82 729.174>
VStem: 280 564<1251.71 1538.06>
LayerCount: 2
Fore
SplineSet
557 1145 m 0,0,1
 438 1145 438 1145 359 1212.5 c 128,-1,2
 280 1280 280 1280 280 1395 c 0,3,4
 280 1508 280 1508 357.5 1574 c 128,-1,5
 435 1640 435 1640 557 1640 c 0,6,7
 684 1640 684 1640 764 1574 c 128,-1,8
 844 1508 844 1508 844 1395 c 0,9,10
 844 1280 844 1280 761.5 1212.5 c 128,-1,11
 679 1145 679 1145 557 1145 c 0,0,1
EndSplineSet
EndChar

StartChar: dotlessi
Encoding: 366 305 110
Width: 774
VWidth: 0
Flags: W
LayerCount: 2
Fore
SplineSet
633 1072 m 1,0,-1
 63 1072 l 1,1,-1
 63 747 l 1,2,-1
 152 747 l 1,3,-1
 152 299 l 1,4,-1
 70 299 l 1,5,-1
 70 0 l 1,6,-1
 717 0 l 1,7,-1
 717 299 l 1,8,-1
 633 299 l 1,9,-1
 633 1072 l 1,0,-1
EndSplineSet
EndChar

StartChar: e
Encoding: 367 101 111
Width: 1257
VWidth: 0
Flags: W
HStem: -18 240<623.715 842.585> 15 350<874 1050.12> 814 278<589.03 749.919>
VStem: 774 427<627 786.768>
LayerCount: 2
Fore
SplineSet
634 -18 m 0,0,1
 794 -18 794 -18 921.5 15 c 128,-1,2
 1049 48 1049 48 1181 127 c 1,3,-1
 1181 365 l 1,4,-1
 874 365 l 1,5,6
 872 292 872 292 839 257 c 128,-1,7
 806 222 806 222 734 222 c 0,8,9
 652 222 652 222 604.5 288.5 c 128,-1,10
 557 355 557 355 557 448 c 1,11,-1
 1159 448 l 2,12,13
 1178 448 1178 448 1182.5 451.5 c 128,-1,14
 1187 455 1187 455 1196 476 c 1,15,16
 1201 521 1201 521 1201 555 c 0,17,18
 1201 705 1201 705 1138.5 825 c 128,-1,19
 1076 945 1076 945 949 1018.5 c 128,-1,20
 822 1092 822 1092 650 1092 c 0,21,22
 470 1092 470 1092 335.5 1017.5 c 128,-1,23
 201 943 201 943 132 814.5 c 128,-1,24
 63 686 63 686 63 521 c 0,25,26
 63 374 63 374 136 251 c 128,-1,27
 209 128 209 128 340.5 55 c 128,-1,28
 472 -18 472 -18 634 -18 c 0,0,1
559 656 m 2,29,30
 559 717 559 717 586 765.5 c 128,-1,31
 613 814 613 814 667 814 c 0,32,33
 704 814 704 814 728 796.5 c 128,-1,34
 752 779 752 779 761 746.5 c 128,-1,35
 770 714 770 714 772.5 688 c 128,-1,36
 775 662 775 662 774 627 c 1,37,-1
 559 627 l 1,38,-1
 559 656 l 2,29,30
EndSplineSet
EndChar

StartChar: eacute
Encoding: 368 233 112
Width: 1257
VWidth: 0
Flags: W
HStem: -18 240<623.715 842.585> 15 350<874 1050.12> 814 278<589.03 749.919>
VStem: 774 427<627 786.768>
LayerCount: 2
Fore
SplineSet
634 -18 m 0,0,1
 794 -18 794 -18 921.5 15 c 128,-1,2
 1049 48 1049 48 1181 127 c 1,3,-1
 1181 365 l 1,4,-1
 874 365 l 1,5,6
 872 292 872 292 839 257 c 128,-1,7
 806 222 806 222 734 222 c 0,8,9
 652 222 652 222 604.5 288.5 c 128,-1,10
 557 355 557 355 557 448 c 1,11,-1
 1159 448 l 2,12,13
 1178 448 1178 448 1182.5 451.5 c 128,-1,14
 1187 455 1187 455 1196 476 c 1,15,16
 1201 521 1201 521 1201 555 c 0,17,18
 1201 705 1201 705 1138.5 825 c 128,-1,19
 1076 945 1076 945 949 1018.5 c 128,-1,20
 822 1092 822 1092 650 1092 c 0,21,22
 470 1092 470 1092 335.5 1017.5 c 128,-1,23
 201 943 201 943 132 814.5 c 128,-1,24
 63 686 63 686 63 521 c 0,25,26
 63 374 63 374 136 251 c 128,-1,27
 209 128 209 128 340.5 55 c 128,-1,28
 472 -18 472 -18 634 -18 c 0,0,1
559 656 m 2,29,30
 559 717 559 717 586 765.5 c 128,-1,31
 613 814 613 814 667 814 c 0,32,33
 704 814 704 814 728 796.5 c 128,-1,34
 752 779 752 779 761 746.5 c 128,-1,35
 770 714 770 714 772.5 688 c 128,-1,36
 775 662 775 662 774 627 c 1,37,-1
 559 627 l 1,38,-1
 559 656 l 2,29,30
773 1708 m 1,39,-1
 299 1271 l 1,40,-1
 403 1130 l 1,41,-1
 957 1443 l 1,42,-1
 773 1708 l 1,39,-1
EndSplineSet
EndChar

StartChar: ecircumflex
Encoding: 369 234 113
Width: 1257
VWidth: 0
Flags: W
HStem: -18 240<623.715 842.585> 15 350<874 1050.12> 814 278<589.03 749.919> 1348 20G<607.184 648.816>
VStem: 774 427<627 786.768>
LayerCount: 2
Fore
SplineSet
634 -18 m 0,0,1
 794 -18 794 -18 921.5 15 c 128,-1,2
 1049 48 1049 48 1181 127 c 1,3,-1
 1181 365 l 1,4,-1
 874 365 l 1,5,6
 872 292 872 292 839 257 c 128,-1,7
 806 222 806 222 734 222 c 0,8,9
 652 222 652 222 604.5 288.5 c 128,-1,10
 557 355 557 355 557 448 c 1,11,-1
 1159 448 l 2,12,13
 1178 448 1178 448 1182.5 451.5 c 128,-1,14
 1187 455 1187 455 1196 476 c 1,15,16
 1201 521 1201 521 1201 555 c 0,17,18
 1201 705 1201 705 1138.5 825 c 128,-1,19
 1076 945 1076 945 949 1018.5 c 128,-1,20
 822 1092 822 1092 650 1092 c 0,21,22
 470 1092 470 1092 335.5 1017.5 c 128,-1,23
 201 943 201 943 132 814.5 c 128,-1,24
 63 686 63 686 63 521 c 0,25,26
 63 374 63 374 136 251 c 128,-1,27
 209 128 209 128 340.5 55 c 128,-1,28
 472 -18 472 -18 634 -18 c 0,0,1
559 656 m 2,29,30
 559 717 559 717 586 765.5 c 128,-1,31
 613 814 613 814 667 814 c 0,32,33
 704 814 704 814 728 796.5 c 128,-1,34
 752 779 752 779 761 746.5 c 128,-1,35
 770 714 770 714 772.5 688 c 128,-1,36
 775 662 775 662 774 627 c 1,37,-1
 559 627 l 1,38,-1
 559 656 l 2,29,30
492 1601 m 1,39,-1
 219 1224 l 1,40,-1
 373 1123 l 1,41,-1
 628 1368 l 1,42,-1
 883 1123 l 1,43,-1
 1037 1224 l 1,44,-1
 763 1600 l 1,45,-1
 492 1601 l 1,39,-1
EndSplineSet
EndChar

StartChar: edieresis
Encoding: 370 235 114
Width: 1257
VWidth: 0
Flags: W
HStem: -18 240<623.715 842.585> 15 350<874 1050.12> 814 278<589.03 749.919> 1112 460<183.216 458.121 800.216 1075.12>
VStem: 94 452<1199.72 1487.11> 711 452<1199.72 1487.11> 774 427<627 786.768>
LayerCount: 2
Fore
SplineSet
634 -18 m 0,0,1
 794 -18 794 -18 921.5 15 c 128,-1,2
 1049 48 1049 48 1181 127 c 1,3,-1
 1181 365 l 1,4,-1
 874 365 l 1,5,6
 872 292 872 292 839 257 c 128,-1,7
 806 222 806 222 734 222 c 0,8,9
 652 222 652 222 604.5 288.5 c 128,-1,10
 557 355 557 355 557 448 c 1,11,-1
 1159 448 l 2,12,13
 1178 448 1178 448 1182.5 451.5 c 128,-1,14
 1187 455 1187 455 1196 476 c 1,15,16
 1201 521 1201 521 1201 555 c 0,17,18
 1201 705 1201 705 1138.5 825 c 128,-1,19
 1076 945 1076 945 949 1018.5 c 128,-1,20
 822 1092 822 1092 650 1092 c 0,21,22
 470 1092 470 1092 335.5 1017.5 c 128,-1,23
 201 943 201 943 132 814.5 c 128,-1,24
 63 686 63 686 63 521 c 0,25,26
 63 374 63 374 136 251 c 128,-1,27
 209 128 209 128 340.5 55 c 128,-1,28
 472 -18 472 -18 634 -18 c 0,0,1
559 656 m 2,29,30
 559 717 559 717 586 765.5 c 128,-1,31
 613 814 613 814 667 814 c 0,32,33
 704 814 704 814 728 796.5 c 128,-1,34
 752 779 752 779 761 746.5 c 128,-1,35
 770 714 770 714 772.5 688 c 128,-1,36
 775 662 775 662 774 627 c 1,37,-1
 559 627 l 1,38,-1
 559 656 l 2,29,30
546 1342 m 0,39,40
 546 1234 546 1234 479.5 1173 c 128,-1,41
 413 1112 413 1112 322 1112 c 0,42,43
 229 1112 229 1112 161.5 1173.5 c 128,-1,44
 94 1235 94 1235 94 1345 c 0,45,46
 94 1452 94 1452 161 1512 c 128,-1,47
 228 1572 228 1572 320 1572 c 128,-1,48
 412 1572 412 1572 479 1511.5 c 128,-1,49
 546 1451 546 1451 546 1342 c 0,39,40
1163 1342 m 0,50,51
 1163 1234 1163 1234 1096.5 1173 c 128,-1,52
 1030 1112 1030 1112 939 1112 c 0,53,54
 846 1112 846 1112 778.5 1173.5 c 128,-1,55
 711 1235 711 1235 711 1345 c 0,56,57
 711 1452 711 1452 778 1512 c 128,-1,58
 845 1572 845 1572 937 1572 c 128,-1,59
 1029 1572 1029 1572 1096 1511.5 c 128,-1,60
 1163 1451 1163 1451 1163 1342 c 0,50,51
EndSplineSet
EndChar

StartChar: egrave
Encoding: 371 232 115
Width: 1257
VWidth: 0
Flags: W
HStem: -18 240<623.715 842.585> 15 350<874 1050.12> 814 278<589.03 749.919>
VStem: 774 427<627 786.768>
LayerCount: 2
Fore
SplineSet
634 -18 m 0,0,1
 794 -18 794 -18 921.5 15 c 128,-1,2
 1049 48 1049 48 1181 127 c 1,3,-1
 1181 365 l 1,4,-1
 874 365 l 1,5,6
 872 292 872 292 839 257 c 128,-1,7
 806 222 806 222 734 222 c 0,8,9
 652 222 652 222 604.5 288.5 c 128,-1,10
 557 355 557 355 557 448 c 1,11,-1
 1159 448 l 2,12,13
 1178 448 1178 448 1182.5 451.5 c 128,-1,14
 1187 455 1187 455 1196 476 c 1,15,16
 1201 521 1201 521 1201 555 c 0,17,18
 1201 705 1201 705 1138.5 825 c 128,-1,19
 1076 945 1076 945 949 1018.5 c 128,-1,20
 822 1092 822 1092 650 1092 c 0,21,22
 470 1092 470 1092 335.5 1017.5 c 128,-1,23
 201 943 201 943 132 814.5 c 128,-1,24
 63 686 63 686 63 521 c 0,25,26
 63 374 63 374 136 251 c 128,-1,27
 209 128 209 128 340.5 55 c 128,-1,28
 472 -18 472 -18 634 -18 c 0,0,1
559 656 m 2,29,30
 559 717 559 717 586 765.5 c 128,-1,31
 613 814 613 814 667 814 c 0,32,33
 704 814 704 814 728 796.5 c 128,-1,34
 752 779 752 779 761 746.5 c 128,-1,35
 770 714 770 714 772.5 688 c 128,-1,36
 775 662 775 662 774 627 c 1,37,-1
 559 627 l 1,38,-1
 559 656 l 2,29,30
483 1708 m 1,39,-1
 957 1271 l 1,40,-1
 853 1130 l 1,41,-1
 299 1443 l 1,42,-1
 483 1708 l 1,39,-1
EndSplineSet
EndChar

StartChar: eight
Encoding: 372 56 116
Width: 1337
VWidth: 0
Flags: W
HStem: -18 258<611.396 732.604> 578 246<612 732> 1121 256<604.212 739.788>
VStem: 72 520<251.268 558.044> 149 443<843.568 1113.19> 752 520<251.268 558.044> 752 443<843.568 1113.19>
LayerCount: 2
Fore
SplineSet
672 -18 m 128,-1,1
 591 -18 591 -18 515.5 -9 c 128,-1,2
 440 0 440 0 356.5 27 c 128,-1,3
 273 54 273 54 212.5 96 c 128,-1,4
 152 138 152 138 112 210 c 128,-1,5
 72 282 72 282 72 375 c 0,6,7
 72 630 72 630 333 730 c 1,8,9
 246 763 246 763 197.5 837 c 128,-1,10
 149 911 149 911 149 1010 c 0,11,12
 149 1096 149 1096 185 1163 c 128,-1,13
 221 1230 221 1230 275.5 1269.5 c 128,-1,14
 330 1309 330 1309 403 1334 c 128,-1,15
 476 1359 476 1359 541 1368 c 128,-1,16
 606 1377 606 1377 672 1377 c 128,-1,17
 738 1377 738 1377 803 1368 c 128,-1,18
 868 1359 868 1359 941 1334 c 128,-1,19
 1014 1309 1014 1309 1068.5 1269.5 c 128,-1,20
 1123 1230 1123 1230 1159 1163 c 128,-1,21
 1195 1096 1195 1096 1195 1010 c 0,22,23
 1195 911 1195 911 1146.5 837 c 128,-1,24
 1098 763 1098 763 1011 730 c 1,25,26
 1272 630 1272 630 1272 375 c 0,27,28
 1272 282 1272 282 1232 210 c 128,-1,29
 1192 138 1192 138 1131.5 96 c 128,-1,30
 1071 54 1071 54 987.5 27 c 128,-1,31
 904 0 904 0 828.5 -9 c 128,-1,0
 753 -18 753 -18 672 -18 c 128,-1,1
672 578 m 128,-1,33
 592 578 592 578 592 406 c 0,34,35
 592 240 592 240 672 240 c 128,-1,36
 752 240 752 240 752 406 c 0,37,32
 752 578 752 578 672 578 c 128,-1,33
672 1121 m 128,-1,39
 646 1121 646 1121 628.5 1109.5 c 128,-1,40
 611 1098 611 1098 604 1075.5 c 128,-1,41
 597 1053 597 1053 594.5 1033.5 c 128,-1,42
 592 1014 592 1014 592 986 c 0,43,44
 592 824 592 824 672 824 c 128,-1,45
 752 824 752 824 752 986 c 0,46,47
 752 1014 752 1014 749.5 1033.5 c 128,-1,48
 747 1053 747 1053 740 1075.5 c 128,-1,49
 733 1098 733 1098 715.5 1109.5 c 128,-1,38
 698 1121 698 1121 672 1121 c 128,-1,39
EndSplineSet
EndChar

StartChar: ellipsis
Encoding: 373 8230 117
Width: 2230
VWidth: 0
Flags: W
HStem: -27 495<203.82 542.174 943.82 1282.17 1684.82 2023.17>
VStem: 93 564<79.7108 366.062> 833 564<79.7108 366.062> 1574 564<79.7108 366.062>
LayerCount: 2
Fore
SplineSet
1851 -27 m 0,0,1
 1732 -27 1732 -27 1653 40.5 c 128,-1,2
 1574 108 1574 108 1574 223 c 0,3,4
 1574 336 1574 336 1651.5 402 c 128,-1,5
 1729 468 1729 468 1851 468 c 0,6,7
 1978 468 1978 468 2058 402 c 128,-1,8
 2138 336 2138 336 2138 223 c 0,9,10
 2138 108 2138 108 2055.5 40.5 c 128,-1,11
 1973 -27 1973 -27 1851 -27 c 0,0,1
1110 -27 m 0,12,13
 991 -27 991 -27 912 40.5 c 128,-1,14
 833 108 833 108 833 223 c 0,15,16
 833 336 833 336 910.5 402 c 128,-1,17
 988 468 988 468 1110 468 c 0,18,19
 1237 468 1237 468 1317 402 c 128,-1,20
 1397 336 1397 336 1397 223 c 0,21,22
 1397 108 1397 108 1314.5 40.5 c 128,-1,23
 1232 -27 1232 -27 1110 -27 c 0,12,13
370 -27 m 0,24,25
 251 -27 251 -27 172 40.5 c 128,-1,26
 93 108 93 108 93 223 c 0,27,28
 93 336 93 336 170.5 402 c 128,-1,29
 248 468 248 468 370 468 c 0,30,31
 497 468 497 468 577 402 c 128,-1,32
 657 336 657 336 657 223 c 0,33,34
 657 108 657 108 574.5 40.5 c 128,-1,35
 492 -27 492 -27 370 -27 c 0,24,25
EndSplineSet
EndChar

StartChar: emdash
Encoding: 374 8212 118
Width: 774
VWidth: 0
Flags: W
HStem: 537 299
LayerCount: 2
Fore
SplineSet
70 836 m 1,0,-1
 70 537 l 1,1,-1
 1240 537 l 1,2,-1
 1240 836 l 1,3,-1
 70 836 l 1,0,-1
EndSplineSet
EndChar

StartChar: endash
Encoding: 375 8211 119
Width: 774
VWidth: 0
Flags: W
HStem: 537 299
VStem: 70 647
LayerCount: 2
Fore
SplineSet
70 836 m 1,0,-1
 70 537 l 1,1,-1
 717 537 l 1,2,-1
 717 836 l 1,3,-1
 70 836 l 1,0,-1
EndSplineSet
EndChar

StartChar: equal
Encoding: 376 61 120
Width: 774
VWidth: 0
Flags: W
VStem: 70 647
LayerCount: 2
Fore
SplineSet
70 392 m 1,0,-1
 70 169 l 1,1,-1
 717 169 l 1,2,-1
 717 392 l 1,3,-1
 70 392 l 1,0,-1
70 761 m 1,4,-1
 70 538 l 1,5,-1
 717 538 l 1,6,-1
 717 761 l 1,7,-1
 70 761 l 1,4,-1
EndSplineSet
EndChar

StartChar: eth
Encoding: 377 240 121
Width: 1354
VWidth: 0
Flags: W
HStem: -18 356<609.857 747.986> 1321 333<237.158 676>
VStem: 55 519<369.38 742.896> 781 520<391.701 753.636>
DStem2: 325 1225 388 1068 0.928191 0.372103<0.0558155 193.866 798.36 967.473>
LayerCount: 2
Fore
SplineSet
1223 1585 m 1,0,-1
 1286 1428 l 1,1,-1
 1129 1365 l 1,2,3
 1281 1142 1281 1142 1300 751 c 0,4,5
 1301 731 1301 731 1301 691 c 0,6,7
 1301 574 1301 574 1278.5 470.5 c 128,-1,8
 1256 367 1256 367 1206.5 277 c 128,-1,9
 1157 187 1157 187 1084 122 c 128,-1,10
 1011 57 1011 57 903.5 19.5 c 128,-1,11
 796 -18 796 -18 663 -18 c 0,12,13
 521 -18 521 -18 403 30.5 c 128,-1,14
 285 79 285 79 210.5 159 c 128,-1,15
 136 239 136 239 95.5 337.5 c 128,-1,16
 55 436 55 436 55 540 c 0,17,18
 55 616 55 616 77.5 687 c 128,-1,19
 100 758 100 758 148 820.5 c 128,-1,20
 196 883 196 883 265.5 929 c 128,-1,21
 335 975 335 975 435 1002 c 128,-1,22
 535 1029 535 1029 654 1029 c 2,23,-1
 687 1029 l 1,24,25
 663 1121 663 1121 639 1169 c 1,26,-1
 388 1068 l 1,27,-1
 325 1225 l 1,28,-1
 505 1297 l 1,29,30
 443 1321 443 1321 359 1321 c 0,31,32
 281 1321 281 1321 234 1310 c 1,33,-1
 234 1621 l 1,34,35
 389 1654 389 1654 528 1654 c 0,36,37
 824 1654 824 1654 1009 1499 c 1,38,-1
 1223 1585 l 1,0,-1
574 568 m 0,39,40
 574 338 574 338 685 338 c 0,41,42
 715 338 715 338 736 364 c 128,-1,43
 757 390 757 390 765.5 430.5 c 128,-1,44
 774 471 774 471 777.5 502 c 128,-1,45
 781 533 781 533 781 560 c 0,46,47
 781 777 781 777 683 777 c 0,48,49
 574 777 574 777 574 568 c 0,39,40
EndSplineSet
EndChar

StartChar: exclam
Encoding: 378 33 122
Width: 774
VWidth: 0
Flags: W
HStem: -32 495<225.82 564.174> 1610 20G<100 687>
VStem: 100 587<1199.07 1630> 115 564<69.9375 356.289>
LayerCount: 2
Fore
SplineSet
603 558 m 1,0,-1
 182 556 l 1,1,-1
 100 1331 l 1,2,-1
 100 1630 l 1,3,-1
 687 1630 l 1,4,-1
 687 1331 l 1,5,-1
 603 558 l 1,0,-1
392 463 m 0,6,7
 273 463 273 463 194 395.5 c 128,-1,8
 115 328 115 328 115 213 c 0,9,10
 115 100 115 100 192.5 34 c 128,-1,11
 270 -32 270 -32 392 -32 c 0,12,13
 519 -32 519 -32 599 34 c 128,-1,14
 679 100 679 100 679 213 c 0,15,16
 679 328 679 328 596.5 395.5 c 128,-1,17
 514 463 514 463 392 463 c 0,6,7
EndSplineSet
EndChar

StartChar: exclamdown
Encoding: 379 161 123
Width: 760
VWidth: 0
Flags: W
HStem: 1158 495<211.82 550.174>
VStem: 101 564<1264.71 1551.06>
LayerCount: 2
Fore
SplineSet
589 1072 m 1,0,-1
 168 1074 l 1,1,-1
 86 299 l 1,2,-1
 86 0 l 1,3,-1
 673 0 l 1,4,-1
 673 299 l 1,5,-1
 589 1072 l 1,0,-1
378 1158 m 0,6,7
 259 1158 259 1158 180 1225.5 c 128,-1,8
 101 1293 101 1293 101 1408 c 0,9,10
 101 1521 101 1521 178.5 1587 c 128,-1,11
 256 1653 256 1653 378 1653 c 0,12,13
 505 1653 505 1653 585 1587 c 128,-1,14
 665 1521 665 1521 665 1408 c 0,15,16
 665 1293 665 1293 582.5 1225.5 c 128,-1,17
 500 1158 500 1158 378 1158 c 0,6,7
EndSplineSet
EndChar

StartChar: f
Encoding: 380 102 124
Width: 864
VWidth: 0
Flags: W
HStem: 1265 345<324 815.569>
LayerCount: 2
Fore
SplineSet
134 1207 m 1,0,1
 136 1075 136 1075 136 1072 c 1,2,-1
 53 1072 l 1,3,-1
 53 761 l 1,4,-1
 137 761 l 1,5,-1
 137 305 l 1,6,-1
 53 305 l 1,7,-1
 53 0 l 1,8,-1
 733 0 l 1,9,-1
 733 305 l 1,10,-1
 623 305 l 1,11,-1
 623 761 l 1,12,-1
 795 761 l 1,13,-1
 795 1072 l 1,14,-1
 616 1072 l 1,15,16
 610 1180 610 1180 636.5 1222.5 c 128,-1,17
 663 1265 663 1265 726 1265 c 0,18,19
 764 1265 764 1265 822 1252 c 1,20,-1
 822 1563 l 1,21,22
 808 1568 808 1568 781.5 1576 c 128,-1,23
 755 1584 755 1584 674.5 1597 c 128,-1,24
 594 1610 594 1610 514 1610 c 0,25,26
 134 1610 134 1610 134 1207 c 1,0,1
EndSplineSet
EndChar

StartChar: uniFB01
Encoding: 381 64257 125
Width: 1638
VWidth: 0
Flags: W
HStem: 1135 495<1049.82 1388.17> 1265 345<324 815.569>
VStem: 939 564<1241.71 1528.06>
LayerCount: 2
Fore
SplineSet
1497 1072 m 1,0,-1
 616 1072 l 1,1,2
 610 1180 610 1180 636.5 1222.5 c 128,-1,3
 663 1265 663 1265 726 1265 c 0,4,5
 764 1265 764 1265 822 1252 c 1,6,-1
 822 1563 l 1,7,8
 808 1568 808 1568 781.5 1576 c 128,-1,9
 755 1584 755 1584 674.5 1597 c 128,-1,10
 594 1610 594 1610 514 1610 c 0,11,12
 134 1610 134 1610 134 1207 c 1,13,14
 136 1075 136 1075 136 1072 c 1,15,-1
 53 1072 l 1,16,-1
 53 761 l 1,17,-1
 137 761 l 1,18,-1
 137 299 l 1,19,-1
 53 299 l 1,20,-1
 53 0 l 1,21,-1
 733 0 l 1,22,-1
 733 299 l 1,23,-1
 623 299 l 1,24,-1
 623 761 l 1,25,-1
 1016 761 l 1,26,-1
 1016 299 l 1,27,-1
 934 299 l 1,28,-1
 934 0 l 1,29,-1
 1581 0 l 1,30,-1
 1581 299 l 1,31,-1
 1497 299 l 1,32,-1
 1497 1072 l 1,0,-1
1216 1135 m 0,33,34
 1097 1135 1097 1135 1018 1202.5 c 128,-1,35
 939 1270 939 1270 939 1385 c 0,36,37
 939 1498 939 1498 1016.5 1564 c 128,-1,38
 1094 1630 1094 1630 1216 1630 c 0,39,40
 1343 1630 1343 1630 1423 1564 c 128,-1,41
 1503 1498 1503 1498 1503 1385 c 0,42,43
 1503 1270 1503 1270 1420.5 1202.5 c 128,-1,44
 1338 1135 1338 1135 1216 1135 c 0,33,34
EndSplineSet
EndChar

StartChar: five
Encoding: 382 53 126
Width: 1116
VWidth: 0
Flags: W
HStem: -18 299<151.903 444.343> 619 741<109.74 371.989>
VStem: 510 549<342.662 547.747>
LayerCount: 2
Fore
SplineSet
69 75 m 1,0,1
 115 30 115 30 225 6 c 128,-1,2
 335 -18 335 -18 434 -18 c 0,3,4
 536 -18 536 -18 627.5 1 c 128,-1,5
 719 20 719 20 798.5 62 c 128,-1,6
 878 104 878 104 935.5 165 c 128,-1,7
 993 226 993 226 1026 315 c 128,-1,8
 1059 404 1059 404 1059 513 c 0,9,10
 1059 697 1059 697 921.5 819 c 128,-1,11
 784 941 784 941 584 941 c 0,12,13
 528 941 528 941 475.5 936.5 c 128,-1,14
 423 932 423 932 398 928 c 2,15,-1
 373 924 l 1,16,-1
 373 1063 l 1,17,-1
 984 1063 l 1,18,-1
 984 1360 l 1,19,-1
 68 1360 l 1,20,-1
 68 566 l 1,21,-1
 80 555 l 1,22,23
 166 619 166 619 258 619 c 0,24,25
 317 619 317 619 372 603 c 128,-1,26
 427 587 427 587 468.5 546 c 128,-1,27
 510 505 510 505 510 446 c 0,28,29
 510 398 510 398 484 363 c 128,-1,30
 458 328 458 328 418.5 311.5 c 128,-1,31
 379 295 379 295 344.5 288 c 128,-1,32
 310 281 310 281 281 281 c 0,33,34
 247 281 247 281 194 297.5 c 128,-1,35
 141 314 141 314 105 330.5 c 2,36,-1
 69 347 l 1,37,-1
 69 75 l 1,0,1
EndSplineSet
EndChar

StartChar: uniFB02
Encoding: 383 64258 127
Width: 1655
VWidth: 0
Flags: W
LayerCount: 2
Fore
SplineSet
932 1630 m 2,0,1
 911 1630 911 1630 860 1631.5 c 128,-1,2
 809 1633 809 1633 769.5 1634 c 128,-1,3
 730 1635 730 1635 669.5 1632.5 c 128,-1,4
 609 1630 609 1630 561.5 1624 c 128,-1,5
 514 1618 514 1618 456.5 1604.5 c 128,-1,6
 399 1591 399 1591 355.5 1570.5 c 128,-1,7
 312 1550 312 1550 268.5 1517 c 128,-1,8
 225 1484 225 1484 197 1441.5 c 128,-1,9
 169 1399 169 1399 151.5 1339 c 128,-1,10
 134 1279 134 1279 134 1207 c 1,11,12
 136 1075 136 1075 136 1072 c 1,13,-1
 53 1072 l 1,14,-1
 53 761 l 1,15,-1
 137 761 l 1,16,-1
 137 299 l 1,17,-1
 53 299 l 1,18,-1
 53 0 l 1,19,-1
 733 0 l 1,20,-1
 733 299 l 1,21,-1
 623 299 l 1,22,-1
 623 761 l 1,23,-1
 795 761 l 1,24,-1
 795 1072 l 1,25,-1
 618 1072 l 1,26,27
 618 1145 618 1145 618 1176.5 c 128,-1,28
 618 1208 618 1208 636 1243 c 128,-1,29
 654 1278 654 1278 667.5 1287.5 c 128,-1,30
 681 1297 681 1297 740.5 1307 c 128,-1,31
 800 1317 800 1317 848 1317 c 128,-1,32
 896 1317 896 1317 1016 1317 c 1,33,-1
 1016 306 l 1,34,-1
 942 306 l 1,35,-1
 942 0 l 1,36,-1
 1589 0 l 1,37,-1
 1589 306 l 1,38,-1
 1511 306 l 1,39,-1
 1511 1630 l 1,40,-1
 932 1630 l 2,0,1
EndSplineSet
EndChar

StartChar: florin
Encoding: 384 402 128
Width: 864
VWidth: 0
Flags: W
HStem: -239 345<-62.5107 336.5> 1265 345<324 815.569>
VStem: 137 488<148.814 299 1072 1221.16>
LayerCount: 2
Fore
SplineSet
623 761 m 1,0,-1
 795 761 l 1,1,-1
 795 1072 l 1,2,-1
 616 1072 l 1,3,4
 610 1180 610 1180 636.5 1222.5 c 128,-1,5
 663 1265 663 1265 726 1265 c 0,6,7
 764 1265 764 1265 822 1252 c 1,8,-1
 822 1563 l 1,9,10
 808 1568 808 1568 781.5 1576 c 128,-1,11
 755 1584 755 1584 674.5 1597 c 128,-1,12
 594 1610 594 1610 514 1610 c 0,13,14
 134 1610 134 1610 134 1207 c 1,15,16
 136 1075 136 1075 136 1072 c 1,17,-1
 53 1072 l 1,18,-1
 53 761 l 1,19,-1
 137 761 l 1,20,-1
 137 299 l 2,21,22
 137 189 137 189 113 147.5 c 128,-1,23
 89 106 89 106 27 106 c 0,24,25
 -10 106 -10 106 -69 119 c 1,26,-1
 -69 -192 l 1,27,28
 -55 -197 -55 -197 -28.5 -205 c 128,-1,29
 -2 -213 -2 -213 78.5 -226 c 128,-1,30
 159 -239 159 -239 239 -239 c 0,31,32
 434 -239 434 -239 529.5 -135.5 c 128,-1,33
 625 -32 625 -32 625 164 c 1,34,35
 623 297 623 297 623 761 c 1,0,-1
EndSplineSet
EndChar

StartChar: four
Encoding: 385 52 129
Width: 1343
VWidth: 0
Flags: W
LayerCount: 2
Fore
SplineSet
1052 420 m 1,0,-1
 1280 420 l 1,1,-1
 1280 677 l 1,2,-1
 1053 675 l 1,3,-1
 1053 1341 l 1,4,-1
 614 1342 l 1,5,-1
 63 688 l 1,6,-1
 63 419 l 1,7,-1
 596 420 l 1,8,-1
 596 288 l 1,9,-1
 469 288 l 1,10,-1
 469 0 l 1,11,-1
 1174 0 l 1,12,-1
 1174 288 l 1,13,-1
 1052 288 l 1,14,-1
 1052 420 l 1,0,-1
407 678 m 1,15,-1
 596 911 l 1,16,-1
 596 677 l 1,17,-1
 407 678 l 1,15,-1
EndSplineSet
EndChar

StartChar: uni2074
Encoding: 386 8308 130
Width: 818
VWidth: 0
Flags: W
LayerCount: 2
Fore
SplineSet
619 532 m 1,0,-1
 753 532 l 1,1,-1
 753 683 l 1,2,-1
 620 682 l 1,3,-1
 620 1073 l 1,4,-1
 362 1074 l 1,5,-1
 38 690 l 1,6,-1
 38 532 l 1,7,-1
 351 532 l 1,8,-1
 351 455 l 1,9,-1
 277 455 l 1,10,-1
 277 286 l 1,11,-1
 691 286 l 1,12,-1
 691 455 l 1,13,-1
 619 455 l 1,14,-1
 619 532 l 1,0,-1
240 684 m 1,15,-1
 351 821 l 1,16,-1
 351 683 l 1,17,-1
 240 684 l 1,15,-1
EndSplineSet
EndChar

StartChar: fraction
Encoding: 387 8260 131
Width: 1012
VWidth: 0
Flags: W
VStem: 47 573<0 573> 388 574<1049 1623>
DStem2: 47 0 620 0 0.206193 0.978511<118.148 1658.44>
LayerCount: 2
Fore
SplineSet
620 0 m 1,0,-1
 962 1623 l 1,1,-1
 388 1623 l 1,2,-1
 47 0 l 1,3,-1
 620 0 l 1,0,-1
EndSplineSet
EndChar

StartChar: g
Encoding: 388 103 132
Width: 1432
VWidth: 0
Flags: W
HStem: -389 302<268.581 770.624> 28 271<489 754.831> 760 330<508.16 772.959>
VStem: 68 483<352.402 711.687> 831 450<-29.6455 117 350.615 700.13>
LayerCount: 2
Fore
SplineSet
587 -389 m 0,0,1
 1281 -389 1281 -389 1281 135 c 2,2,-1
 1281 761 l 1,3,-1
 1368 761 l 1,4,-1
 1368 1072 l 1,5,-1
 915 1072 l 1,6,-1
 882 997 l 1,7,8
 709 1090 709 1090 557 1090 c 0,9,10
 418 1090 418 1090 304.5 1011.5 c 128,-1,11
 191 933 191 933 129.5 809.5 c 128,-1,12
 68 686 68 686 68 548 c 0,13,14
 68 445 68 445 99.5 352 c 128,-1,15
 131 259 131 259 190 186.5 c 128,-1,16
 249 114 249 114 341 71 c 128,-1,17
 433 28 433 28 545 28 c 0,18,19
 622 28 622 28 698 51.5 c 128,-1,20
 774 75 774 75 832 117 c 1,21,22
 832 53 832 53 815 12 c 128,-1,23
 798 -29 798 -29 760.5 -50.5 c 128,-1,24
 723 -72 723 -72 677.5 -79.5 c 128,-1,25
 632 -87 632 -87 563 -87 c 0,26,27
 385 -87 385 -87 199 -19 c 1,28,-1
 199 -328 l 1,29,30
 212 -335 212 -335 239.5 -345 c 128,-1,31
 267 -355 267 -355 367.5 -372 c 128,-1,32
 468 -389 468 -389 587 -389 c 0,0,1
551 532 m 0,33,34
 551 593 551 593 562.5 641.5 c 128,-1,35
 574 690 574 690 606 725 c 128,-1,36
 638 760 638 760 688 760 c 0,37,38
 736 760 736 760 770 721.5 c 128,-1,39
 804 683 804 683 817.5 631.5 c 128,-1,40
 831 580 831 580 831 523 c 0,41,42
 831 486 831 486 823.5 449 c 128,-1,43
 816 412 816 412 801 377.5 c 128,-1,44
 786 343 786 343 758.5 321 c 128,-1,45
 731 299 731 299 696 299 c 0,46,47
 643 299 643 299 609 336 c 128,-1,48
 575 373 575 373 563 422.5 c 128,-1,49
 551 472 551 472 551 532 c 0,33,34
EndSplineSet
EndChar

StartChar: germandbls
Encoding: 389 223 133
Width: 1659
VWidth: 0
Flags: W
HStem: 750 151<842 961.438> 1275 348<802.884 1017.75>
VStem: 1054 453<1075 1236.91> 1199 484<426.82 612.003>
LayerCount: 2
Fore
SplineSet
877 1623 m 0,0,1
 757 1623 757 1623 662.5 1607 c 128,-1,2
 568 1591 568 1591 487 1553 c 128,-1,3
 406 1515 406 1515 352.5 1454.5 c 128,-1,4
 299 1394 299 1394 269.5 1303 c 128,-1,5
 240 1212 240 1212 240 1092 c 2,6,-1
 240 369 l 1,7,-1
 68 369 l 1,8,-1
 68 0 l 1,9,-1
 919 0 l 1,10,-1
 919 350 l 1,11,12
 894 349 894 349 768 349 c 1,13,-1
 767 1131 l 2,14,15
 767 1206 767 1206 807 1240.5 c 128,-1,16
 847 1275 847 1275 908 1275 c 0,17,18
 982 1275 982 1275 1018 1233.5 c 128,-1,19
 1054 1192 1054 1192 1054 1124 c 0,20,21
 1054 1045 1054 1045 990.5 973 c 128,-1,22
 927 901 927 901 839 901 c 1,23,-1
 842 750 l 1,24,25
 1017 750 1017 750 1108 687.5 c 128,-1,26
 1199 625 1199 625 1199 533 c 0,27,28
 1199 431 1199 431 1054 349 c 1,29,-1
 1055 -18 l 1,30,31
 1209 -18 1209 -18 1331 19 c 128,-1,32
 1453 56 1453 56 1528.5 118.5 c 128,-1,33
 1604 181 1604 181 1643.5 260.5 c 128,-1,34
 1683 340 1683 340 1683 429 c 0,35,36
 1683 577 1683 577 1577.5 707 c 128,-1,37
 1472 837 1472 837 1281 898 c 1,38,39
 1387 958 1387 958 1447 1049 c 128,-1,40
 1507 1140 1507 1140 1507 1236 c 0,41,42
 1507 1296 1507 1296 1484.5 1351.5 c 128,-1,43
 1462 1407 1462 1407 1413 1457 c 128,-1,44
 1364 1507 1364 1507 1291.5 1543.5 c 128,-1,45
 1219 1580 1219 1580 1112.5 1601.5 c 128,-1,46
 1006 1623 1006 1623 877 1623 c 0,0,1
EndSplineSet
EndChar

StartChar: grave
Encoding: 390 96 134
Width: 1016
VWidth: 0
Flags: W
HStem: 1130 578
VStem: 97 658
LayerCount: 2
Fore
SplineSet
281 1708 m 1,0,-1
 755 1271 l 1,1,-1
 651 1130 l 1,2,-1
 97 1443 l 1,3,-1
 281 1708 l 1,0,-1
EndSplineSet
EndChar

StartChar: greater
Encoding: 391 62 135
Width: 841
VWidth: 0
Flags: W
VStem: 446 382<385 1137>
LayerCount: 2
Fore
SplineSet
828 946 m 1,0,-1
 113 1542 l 1,1,-1
 113 1077 l 1,2,-1
 446 761 l 1,3,-1
 113 445 l 1,4,-1
 113 -20 l 1,5,-1
 828 576 l 1,6,-1
 828 946 l 1,0,-1
EndSplineSet
EndChar

StartChar: greaterequal
Encoding: 392 8805 136
Width: 456
VWidth: 0
Flags: W
VStem: 204 382<621 1373>
LayerCount: 2
Fore
SplineSet
586 1182 m 1,0,-1
 -129 1778 l 1,1,-1
 -129 1313 l 1,2,-1
 204 997 l 1,3,-1
 -129 681 l 1,4,-1
 -129 216 l 1,5,-1
 586 812 l 1,6,-1
 586 1182 l 1,0,-1
-95 224 m 1,7,-1
 -95 0 l 1,8,-1
 552 0 l 1,9,-1
 552 224 l 1,10,-1
 -95 224 l 1,7,-1
EndSplineSet
EndChar

StartChar: guillemotleft
Encoding: 393 171 137
Width: 1707
VWidth: 0
Flags: W
VStem: 183 302<248 820> 793 302<248 820>
DStem2: 183 669 485 534 0.725595 0.688123<126.233 571.554> 485 534 183 399 0.725595 -0.688123<0 445.321> 793 669 1095 534 0.725595 0.688123<126.233 571.554> 1095 534 793 399 0.725595 -0.688123<0 445.321>
LayerCount: 2
Fore
SplineSet
793 399 m 1,0,-1
 1219 -5 l 1,1,-1
 1410 219 l 1,2,-1
 1095 534 l 1,3,-1
 1410 849 l 1,4,-1
 1219 1073 l 1,5,-1
 793 669 l 1,6,-1
 793 399 l 1,0,-1
183 399 m 1,7,-1
 609 -5 l 1,8,-1
 800 219 l 1,9,-1
 485 534 l 1,10,-1
 800 849 l 1,11,-1
 609 1073 l 1,12,-1
 183 669 l 1,13,-1
 183 399 l 1,7,-1
EndSplineSet
EndChar

StartChar: guillemotright
Encoding: 394 187 138
Width: 1707
VWidth: 0
Flags: W
HStem: -5 21G<356.946 395.089 966.946 1005.09> 1053 20G<356.946 395.089 966.946 1005.09>
VStem: 498 302<248 820> 1108 302<248 820>
DStem2: 374 1073 183 849 0.725595 -0.688123<15.5509 460.872> 183 219 374 -5 0.725595 0.688123<0 445.321> 984 1073 793 849 0.725595 -0.688123<15.5509 460.872> 793 219 984 -5 0.725595 0.688123<0 445.321>
LayerCount: 2
Fore
SplineSet
800 399 m 1,0,-1
 374 -5 l 1,1,-1
 183 219 l 1,2,-1
 498 534 l 1,3,-1
 183 849 l 1,4,-1
 374 1073 l 1,5,-1
 800 669 l 1,6,-1
 800 399 l 1,0,-1
1410 399 m 1,7,-1
 984 -5 l 1,8,-1
 793 219 l 1,9,-1
 1108 534 l 1,10,-1
 793 849 l 1,11,-1
 984 1073 l 1,12,-1
 1410 669 l 1,13,-1
 1410 399 l 1,7,-1
EndSplineSet
EndChar

StartChar: guilsinglleft
Encoding: 395 8249 139
Width: 1707
VWidth: 0
Flags: W
VStem: 447 302<248 820>
DStem2: 447 669 749 534 0.725595 0.688123<126.233 571.554> 749 534 447 399 0.725595 -0.688123<0 445.321>
LayerCount: 2
Fore
SplineSet
447 399 m 1,0,-1
 873 -5 l 1,1,-1
 1064 219 l 1,2,-1
 749 534 l 1,3,-1
 1064 849 l 1,4,-1
 873 1073 l 1,5,-1
 447 669 l 1,6,-1
 447 399 l 1,0,-1
EndSplineSet
EndChar

StartChar: guilsinglright
Encoding: 396 8250 140
Width: 1707
VWidth: 0
Flags: W
HStem: -5 21G<620.946 659.089> 1053 20G<620.946 659.089>
VStem: 762 302<248 820>
DStem2: 638 1073 447 849 0.725595 -0.688123<15.5509 460.872> 447 219 638 -5 0.725595 0.688123<0 445.321>
LayerCount: 2
Fore
SplineSet
1064 399 m 1,0,-1
 638 -5 l 1,1,-1
 447 219 l 1,2,-1
 762 534 l 1,3,-1
 447 849 l 1,4,-1
 638 1073 l 1,5,-1
 1064 669 l 1,6,-1
 1064 399 l 1,0,-1
EndSplineSet
EndChar

StartChar: h
Encoding: 397 104 141
Width: 1448
VWidth: 0
Flags: W
HStem: 744 346<697.5 1048>
LayerCount: 2
Fore
SplineSet
74 0 m 1,0,-1
 727 0 l 1,1,-1
 727 305 l 1,2,-1
 647 305 l 1,3,-1
 647 626 l 2,4,5
 647 744 647 744 748 744 c 0,6,7
 830 744 830 744 831 619 c 1,8,-1
 831 0 l 1,9,-1
 1407 0 l 1,10,-1
 1407 305 l 1,11,-1
 1321 305 l 1,12,-1
 1321 702 l 2,13,14
 1321 891 1321 891 1227 990.5 c 128,-1,15
 1133 1090 1133 1090 963 1090 c 0,16,17
 928 1090 928 1090 895.5 1084 c 128,-1,18
 863 1078 863 1078 840.5 1071.5 c 128,-1,19
 818 1065 818 1065 790.5 1048 c 128,-1,20
 763 1031 763 1031 750 1022 c 128,-1,21
 737 1013 737 1013 711 987.5 c 128,-1,22
 685 962 685 962 677.5 954 c 128,-1,23
 670 946 670 946 643 916 c 1,24,-1
 643 1640 l 1,25,-1
 70 1640 l 1,26,-1
 70 1332 l 1,27,-1
 154 1332 l 1,28,-1
 154 305 l 1,29,-1
 75 305 l 1,30,-1
 74 0 l 1,0,-1
EndSplineSet
EndChar

StartChar: hungarumlaut
Encoding: 398 733 142
Width: 1478
VWidth: 0
Flags: W
LayerCount: 2
Fore
SplineSet
483 1814 m 1,0,-1
 330 1188 l 1,1,-1
 495 1128 l 1,2,-1
 783 1695 l 1,3,-1
 483 1814 l 1,0,-1
1083 1795 m 1,4,-1
 776 1228 l 1,5,-1
 920 1129 l 1,6,-1
 1343 1604 l 1,7,-1
 1083 1795 l 1,4,-1
EndSplineSet
EndChar

StartChar: hyphen
Encoding: 399 45 143
Width: 774
VWidth: 0
Flags: W
HStem: 537 299
VStem: 70 647
LayerCount: 2
Fore
SplineSet
70 836 m 1,0,-1
 70 537 l 1,1,-1
 717 537 l 1,2,-1
 717 836 l 1,3,-1
 70 836 l 1,0,-1
EndSplineSet
EndChar

StartChar: i
Encoding: 400 105 144
Width: 774
VWidth: 0
Flags: W
HStem: 1135 495<185.82 524.174>
VStem: 63 570<1257.15 1510.49>
LayerCount: 2
Fore
SplineSet
633 1072 m 1,0,-1
 63 1072 l 1,1,-1
 63 761 l 1,2,-1
 152 761 l 1,3,-1
 152 305 l 1,4,-1
 70 305 l 1,5,-1
 70 0 l 1,6,-1
 717 0 l 1,7,-1
 717 305 l 1,8,-1
 633 305 l 1,9,-1
 633 1072 l 1,0,-1
352 1135 m 0,10,11
 233 1135 233 1135 154 1202.5 c 128,-1,12
 75 1270 75 1270 75 1385 c 0,13,14
 75 1498 75 1498 152.5 1564 c 128,-1,15
 230 1630 230 1630 352 1630 c 0,16,17
 479 1630 479 1630 559 1564 c 128,-1,18
 639 1498 639 1498 639 1385 c 0,19,20
 639 1270 639 1270 556.5 1202.5 c 128,-1,21
 474 1135 474 1135 352 1135 c 0,10,11
EndSplineSet
EndChar

StartChar: iacute
Encoding: 401 237 145
Width: 774
VWidth: 0
Flags: W
LayerCount: 2
Fore
SplineSet
532 1708 m 1,0,-1
 58 1271 l 1,1,-1
 162 1130 l 1,2,-1
 716 1443 l 1,3,-1
 532 1708 l 1,0,-1
633 1072 m 1,4,-1
 63 1072 l 1,5,-1
 63 747 l 1,6,-1
 152 747 l 1,7,-1
 152 299 l 1,8,-1
 70 299 l 1,9,-1
 70 0 l 1,10,-1
 717 0 l 1,11,-1
 717 299 l 1,12,-1
 633 299 l 1,13,-1
 633 1072 l 1,4,-1
EndSplineSet
EndChar

StartChar: icircumflex
Encoding: 402 238 146
Width: 774
VWidth: 0
Flags: W
HStem: 1348 20G<366.184 407.816>
LayerCount: 2
Fore
SplineSet
251 1601 m 1,0,-1
 -22 1224 l 1,1,-1
 132 1123 l 1,2,-1
 387 1368 l 1,3,-1
 642 1123 l 1,4,-1
 796 1224 l 1,5,-1
 522 1600 l 1,6,-1
 251 1601 l 1,0,-1
633 1072 m 1,7,-1
 63 1072 l 1,8,-1
 63 747 l 1,9,-1
 152 747 l 1,10,-1
 152 299 l 1,11,-1
 70 299 l 1,12,-1
 70 0 l 1,13,-1
 717 0 l 1,14,-1
 717 299 l 1,15,-1
 633 299 l 1,16,-1
 633 1072 l 1,7,-1
EndSplineSet
EndChar

StartChar: idieresis
Encoding: 403 239 147
Width: 774
VWidth: 0
Flags: W
HStem: 1112 460<-57.7837 217.121 559.216 834.121>
VStem: -147 452<1199.72 1487.11> 470 452<1199.72 1487.11>
LayerCount: 2
Fore
SplineSet
305 1342 m 0,0,1
 305 1234 305 1234 238.5 1173 c 128,-1,2
 172 1112 172 1112 81 1112 c 0,3,4
 -12 1112 -12 1112 -79.5 1173.5 c 128,-1,5
 -147 1235 -147 1235 -147 1345 c 0,6,7
 -147 1452 -147 1452 -80 1512 c 128,-1,8
 -13 1572 -13 1572 79 1572 c 128,-1,9
 171 1572 171 1572 238 1511.5 c 128,-1,10
 305 1451 305 1451 305 1342 c 0,0,1
922 1342 m 0,11,12
 922 1234 922 1234 855.5 1173 c 128,-1,13
 789 1112 789 1112 698 1112 c 0,14,15
 605 1112 605 1112 537.5 1173.5 c 128,-1,16
 470 1235 470 1235 470 1345 c 0,17,18
 470 1452 470 1452 537 1512 c 128,-1,19
 604 1572 604 1572 696 1572 c 128,-1,20
 788 1572 788 1572 855 1511.5 c 128,-1,21
 922 1451 922 1451 922 1342 c 0,11,12
633 1072 m 1,22,-1
 63 1072 l 1,23,-1
 63 747 l 1,24,-1
 152 747 l 1,25,-1
 152 299 l 1,26,-1
 70 299 l 1,27,-1
 70 0 l 1,28,-1
 717 0 l 1,29,-1
 717 299 l 1,30,-1
 633 299 l 1,31,-1
 633 1072 l 1,22,-1
EndSplineSet
EndChar

StartChar: igrave
Encoding: 404 236 148
Width: 774
VWidth: 0
Flags: W
VStem: 58 658
LayerCount: 2
Fore
SplineSet
242 1708 m 1,0,-1
 716 1271 l 1,1,-1
 612 1130 l 1,2,-1
 58 1443 l 1,3,-1
 242 1708 l 1,0,-1
633 1072 m 1,4,-1
 63 1072 l 1,5,-1
 63 747 l 1,6,-1
 152 747 l 1,7,-1
 152 299 l 1,8,-1
 70 299 l 1,9,-1
 70 0 l 1,10,-1
 717 0 l 1,11,-1
 717 299 l 1,12,-1
 633 299 l 1,13,-1
 633 1072 l 1,4,-1
EndSplineSet
EndChar

StartChar: infinity
Encoding: 405 8734 149
Width: 1337
VWidth: 0
Flags: W
HStem: 267 323<236.098 468.508 772.173 1005.9> 750 323<236.098 469.912 772.905 1005.9>
VStem: -26 256<599.929 740.071> 1012 256<599.929 740.071>
LayerCount: 2
Fore
SplineSet
621 391 m 1,0,1
 617 386 617 386 609.5 377.5 c 128,-1,2
 602 369 602 369 575.5 347.5 c 128,-1,3
 549 326 549 326 519 310 c 128,-1,4
 489 294 489 294 441 280.5 c 128,-1,5
 393 267 393 267 341 267 c 0,6,7
 255 267 255 267 187.5 295 c 128,-1,8
 120 323 120 323 81 365.5 c 128,-1,9
 42 408 42 408 17 464.5 c 128,-1,10
 -8 521 -8 521 -17 570.5 c 128,-1,11
 -26 620 -26 620 -26 670 c 128,-1,12
 -26 720 -26 720 -17 769.5 c 128,-1,13
 -8 819 -8 819 17 875.5 c 128,-1,14
 42 932 42 932 81 974.5 c 128,-1,15
 120 1017 120 1017 187.5 1045 c 128,-1,16
 255 1073 255 1073 341 1073 c 0,17,18
 393 1073 393 1073 440.5 1059 c 128,-1,19
 488 1045 488 1045 519.5 1025.5 c 128,-1,20
 551 1006 551 1006 575 986.5 c 128,-1,21
 599 967 599 967 610 953 c 2,22,-1
 621 939 l 1,23,24
 625 944 625 944 633 953.5 c 128,-1,25
 641 963 641 963 668.5 986 c 128,-1,26
 696 1009 696 1009 726 1026.5 c 128,-1,27
 756 1044 756 1044 803.5 1058.5 c 128,-1,28
 851 1073 851 1073 901 1073 c 0,29,30
 987 1073 987 1073 1054.5 1045 c 128,-1,31
 1122 1017 1122 1017 1161 974.5 c 128,-1,32
 1200 932 1200 932 1225 875.5 c 128,-1,33
 1250 819 1250 819 1259 769.5 c 128,-1,34
 1268 720 1268 720 1268 670 c 128,-1,35
 1268 620 1268 620 1259 570.5 c 128,-1,36
 1250 521 1250 521 1225 464.5 c 128,-1,37
 1200 408 1200 408 1161 365.5 c 128,-1,38
 1122 323 1122 323 1054.5 295 c 128,-1,39
 987 267 987 267 901 267 c 0,40,41
 851 267 851 267 804 280 c 128,-1,42
 757 293 757 293 725.5 311 c 128,-1,43
 694 329 694 329 669 347 c 128,-1,44
 644 365 644 365 632.5 378 c 2,45,-1
 621 391 l 1,0,1
230 670 m 128,-1,47
 230 644 230 644 240 626.5 c 128,-1,48
 250 609 250 609 269 602 c 128,-1,49
 288 595 288 595 304.5 592.5 c 128,-1,50
 321 590 321 590 345 590 c 0,51,52
 372 590 372 590 417.5 610 c 128,-1,53
 463 630 463 630 495 650 c 2,54,-1
 527 670 l 1,55,56
 405 750 405 750 345 750 c 0,57,58
 321 750 321 750 304.5 747.5 c 128,-1,59
 288 745 288 745 269 738 c 128,-1,60
 250 731 250 731 240 713.5 c 128,-1,46
 230 696 230 696 230 670 c 128,-1,47
1012 670 m 128,-1,62
 1012 696 1012 696 1002 713.5 c 128,-1,63
 992 731 992 731 973 738 c 128,-1,64
 954 745 954 745 937.5 747.5 c 128,-1,65
 921 750 921 750 897 750 c 0,66,67
 870 750 870 750 824.5 730 c 128,-1,68
 779 710 779 710 747 690 c 2,69,-1
 715 670 l 1,70,71
 837 590 837 590 897 590 c 0,72,73
 921 590 921 590 937.5 592.5 c 128,-1,74
 954 595 954 595 973 602 c 128,-1,75
 992 609 992 609 1002 626.5 c 128,-1,61
 1012 644 1012 644 1012 670 c 128,-1,62
EndSplineSet
EndChar

StartChar: integral
Encoding: 406 8747 150
Width: 864
VWidth: 0
Flags: W
HStem: -239 345<-62.5107 427.5> 1265 345<324 815.569>
VStem: 134 482<148.298 299 1072 1221.16>
LayerCount: 2
Fore
SplineSet
616 1072 m 1,0,1
 610 1180 610 1180 636.5 1222.5 c 128,-1,2
 663 1265 663 1265 726 1265 c 0,3,4
 764 1265 764 1265 822 1252 c 1,5,-1
 822 1563 l 1,6,7
 808 1568 808 1568 781.5 1576 c 128,-1,8
 755 1584 755 1584 674.5 1597 c 128,-1,9
 594 1610 594 1610 514 1610 c 0,10,11
 134 1610 134 1610 134 1207 c 2,12,-1
 134 299 l 2,13,14
 134 188 134 188 111 147 c 128,-1,15
 88 106 88 106 27 106 c 0,16,17
 -10 106 -10 106 -69 119 c 1,18,-1
 -69 -192 l 1,19,20
 -55 -197 -55 -197 -28.5 -205 c 128,-1,21
 -2 -213 -2 -213 78.5 -226 c 128,-1,22
 159 -239 159 -239 239 -239 c 0,23,24
 616 -239 616 -239 616 164 c 1,25,26
 623 298 623 298 616 1072 c 1,0,1
EndSplineSet
EndChar

StartChar: invertedbreve
Encoding: 407 -1 151
Width: 1707
VWidth: 0
Flags: W
HStem: 1313 183<663.282 876.718>
VStem: 366 252<1152 1269.16> 922 252<1152 1269.16>
LayerCount: 2
Fore
SplineSet
770 1496 m 128,-1,1
 693 1496 693 1496 621.5 1474 c 128,-1,2
 550 1452 550 1452 492.5 1410.5 c 128,-1,3
 435 1369 435 1369 400.5 1302 c 128,-1,4
 366 1235 366 1235 366 1152 c 1,5,-1
 618 1152 l 1,6,7
 618 1228 618 1228 663 1270.5 c 128,-1,8
 708 1313 708 1313 770 1313 c 128,-1,9
 832 1313 832 1313 877 1270.5 c 128,-1,10
 922 1228 922 1228 922 1152 c 1,11,-1
 1174 1152 l 1,12,13
 1174 1235 1174 1235 1139.5 1302 c 128,-1,14
 1105 1369 1105 1369 1047.5 1410.5 c 128,-1,15
 990 1452 990 1452 918.5 1474 c 128,-1,0
 847 1496 847 1496 770 1496 c 128,-1,1
EndSplineSet
EndChar

StartChar: j
Encoding: 408 106 152
Width: 737
VWidth: 0
Flags: W
HStem: 1135 495<206.82 545.174>
VStem: 96 564<1241.71 1528.06>
LayerCount: 2
Fore
SplineSet
51 -72 m 1,0,-1
 53 -398 l 1,1,2
 226 -398 226 -398 343.5 -366 c 128,-1,3
 461 -334 461 -334 530 -266 c 128,-1,4
 599 -198 599 -198 628 -103 c 128,-1,5
 657 -8 657 -8 657 129 c 2,6,-1
 657 1072 l 1,7,-1
 68 1072 l 1,8,-1
 68 760 l 1,9,-1
 158 760 l 1,10,-1
 158 -9 l 2,11,12
 158 -46 158 -46 122.5 -61 c 128,-1,13
 87 -76 87 -76 51 -72 c 1,0,-1
373 1135 m 0,14,15
 254 1135 254 1135 175 1202.5 c 128,-1,16
 96 1270 96 1270 96 1385 c 0,17,18
 96 1498 96 1498 173.5 1564 c 128,-1,19
 251 1630 251 1630 373 1630 c 0,20,21
 500 1630 500 1630 580 1564 c 128,-1,22
 660 1498 660 1498 660 1385 c 0,23,24
 660 1270 660 1270 577.5 1202.5 c 128,-1,25
 495 1135 495 1135 373 1135 c 0,14,15
EndSplineSet
EndChar

StartChar: k
Encoding: 409 107 153
Width: 1427
VWidth: 0
Flags: W
LayerCount: 2
Fore
SplineSet
936 0 m 1,0,-1
 1389 0 l 1,1,-1
 1389 305 l 1,2,-1
 1274 305 l 1,3,-1
 1047 618 l 1,4,-1
 1047 644 l 1,5,-1
 1190 761 l 1,6,-1
 1341 761 l 1,7,-1
 1341 1072 l 1,8,-1
 757 1072 l 1,9,-1
 757 761 l 1,10,-1
 852 761 l 1,11,-1
 651 587 l 1,12,-1
 651 1634 l 1,13,-1
 73 1634 l 1,14,-1
 73 1330 l 1,15,-1
 157 1330 l 1,16,-1
 157 305 l 1,17,-1
 74 305 l 1,18,-1
 74 0 l 1,19,-1
 651 0 l 1,20,-1
 651 438 l 1,21,-1
 936 0 l 1,0,-1
EndSplineSet
EndChar

StartChar: l
Encoding: 410 108 154
Width: 791
VWidth: 0
Flags: W
LayerCount: 2
Fore
SplineSet
647 1630 m 1,0,-1
 68 1630 l 1,1,-1
 68 1317 l 1,2,-1
 152 1317 l 1,3,-1
 152 305 l 1,4,-1
 78 305 l 1,5,-1
 78 0 l 1,6,-1
 725 0 l 1,7,-1
 725 305 l 1,8,-1
 647 305 l 1,9,-1
 647 1630 l 1,0,-1
EndSplineSet
EndChar

StartChar: less
Encoding: 411 60 155
Width: 840
VWidth: 0
Flags: W
HStem: -20 21G<704.007 728>
VStem: 13 382<385 1137>
LayerCount: 2
Fore
SplineSet
13 946 m 1,0,-1
 728 1542 l 1,1,-1
 728 1077 l 1,2,-1
 395 761 l 1,3,-1
 728 445 l 1,4,-1
 728 -20 l 1,5,-1
 13 576 l 1,6,-1
 13 946 l 1,0,-1
EndSplineSet
EndChar

StartChar: lessequal
Encoding: 412 8804 156
Width: 456
VWidth: 0
Flags: W
VStem: -129 382<621 1373>
LayerCount: 2
Fore
SplineSet
-129 1182 m 1,0,-1
 586 1778 l 1,1,-1
 586 1313 l 1,2,-1
 253 997 l 1,3,-1
 586 681 l 1,4,-1
 586 216 l 1,5,-1
 -129 812 l 1,6,-1
 -129 1182 l 1,0,-1
-95 224 m 1,7,-1
 -95 0 l 1,8,-1
 552 0 l 1,9,-1
 552 224 l 1,10,-1
 -95 224 l 1,7,-1
EndSplineSet
EndChar

StartChar: logicalnot
Encoding: 413 172 157
Width: 1707
VWidth: 0
Flags: W
HStem: 761 331<321 1100>
VStem: 1100 231<542 761>
LayerCount: 2
Fore
SplineSet
320 1092 m 1,0,-1
 1331 1092 l 1,1,-1
 1331 542 l 1,2,-1
 1100 542 l 1,3,-1
 1100 761 l 1,4,-1
 321 761 l 1,5,-1
 320 1092 l 1,0,-1
EndSplineSet
EndChar

StartChar: lozenge
Encoding: 414 9674 158
Width: 1432
VWidth: 0
Flags: W
HStem: -1 21G<448.612 937.628>
VStem: 137 359<582.5 941.5> 876 345<589.5 934.5>
DStem2: 496 762 137 762 0.38676 -0.92218<0 537.312> 137 762 496 762 0.38676 0.92218<138.847 676.159> 705 267 930 -1 0.356352 0.934352<0 523.44>
LayerCount: 2
Fore
SplineSet
137 762 m 1,0,-1
 457 1525 l 1,1,-1
 930 1525 l 1,2,-1
 1221 762 l 1,3,-1
 930 -1 l 1,4,-1
 457 -1 l 1,5,-1
 137 762 l 1,0,-1
496 762 m 1,6,-1
 705 267 l 1,7,-1
 876 762 l 1,8,-1
 705 1257 l 1,9,-1
 496 762 l 1,6,-1
EndSplineSet
EndChar

StartChar: lslash
Encoding: 415 322 159
Width: 791
VWidth: 0
Flags: W
DStem2: -24 718 76 540 0.86561 0.500719<0 864.818>
LayerCount: 2
Fore
SplineSet
647 1630 m 1,0,-1
 68 1630 l 1,1,-1
 68 1317 l 1,2,-1
 152 1317 l 1,3,-1
 152 305 l 1,4,-1
 78 305 l 1,5,-1
 78 0 l 1,6,-1
 725 0 l 1,7,-1
 725 305 l 1,8,-1
 647 305 l 1,9,-1
 647 1630 l 1,0,-1
-24 718 m 1,10,-1
 76 540 l 1,11,-1
 827 974 l 1,12,-1
 728 1153 l 1,13,-1
 -24 718 l 1,10,-1
EndSplineSet
EndChar

StartChar: m
Encoding: 416 109 160
Width: 2054
VWidth: 0
Flags: W
HStem: 743 349<683.094 996 1342 1603>
LayerCount: 2
Fore
SplineSet
1354 0 m 1,0,-1
 1354 305 l 1,1,-1
 1269 305 l 1,2,-1
 1269 579 l 2,3,4
 1269 603 1269 603 1269.5 616 c 128,-1,5
 1270 629 1270 629 1272 652 c 128,-1,6
 1274 675 1274 675 1279.5 688 c 128,-1,7
 1285 701 1285 701 1293.5 715.5 c 128,-1,8
 1302 730 1302 730 1317 736.5 c 128,-1,9
 1332 743 1332 743 1352 743 c 0,10,11
 1388 743 1388 743 1408 716 c 128,-1,12
 1428 689 1428 689 1430 662 c 2,13,-1
 1432 635 l 1,14,-1
 1432 0 l 1,15,-1
 1991 0 l 1,16,-1
 1991 305 l 1,17,-1
 1917 305 l 1,18,-1
 1917 729 l 2,19,20
 1917 824 1917 824 1889 895.5 c 128,-1,21
 1861 967 1861 967 1811.5 1009 c 128,-1,22
 1762 1051 1762 1051 1700.5 1071.5 c 128,-1,23
 1639 1092 1639 1092 1567 1092 c 0,24,25
 1370 1092 1370 1092 1248 891 c 1,26,27
 1201 988 1201 988 1121.5 1040 c 128,-1,28
 1042 1092 1042 1092 950 1092 c 0,29,30
 861 1092 861 1092 776.5 1044 c 128,-1,31
 692 996 692 996 629 902 c 1,32,-1
 629 1072 l 1,33,-1
 69 1072 l 1,34,-1
 69 761 l 1,35,-1
 143 761 l 1,36,-1
 143 299 l 1,37,-1
 70 299 l 1,38,-1
 70 0 l 1,39,-1
 707 0 l 1,40,-1
 707 303 l 1,41,-1
 627 303 l 1,42,-1
 627 541 l 2,43,44
 627 638.728484779 627 638.728484779 635.515317958 671.007951345 c 0,45,46
 653.187809346 738 653.187809346 738 713 738 c 0,47,48
 791 738 791 738 791 638 c 2,49,-1
 791 0 l 1,50,-1
 1354 0 l 1,0,-1
EndSplineSet
EndChar

StartChar: macron
Encoding: 417 175 161
Width: 774
VWidth: 0
Flags: W
HStem: 1164 269
VStem: 70 647
LayerCount: 2
Fore
SplineSet
70 1433 m 1,0,-1
 70 1164 l 1,1,-1
 717 1164 l 1,2,-1
 717 1433 l 1,3,-1
 70 1433 l 1,0,-1
EndSplineSet
EndChar

StartChar: minus
Encoding: 418 8722 162
Width: 774
VWidth: 0
Flags: W
HStem: 315 224
VStem: 70 647
LayerCount: 2
Fore
SplineSet
70 539 m 1,0,-1
 70 315 l 1,1,-1
 717 315 l 1,2,-1
 717 539 l 1,3,-1
 70 539 l 1,0,-1
EndSplineSet
EndChar

StartChar: uni00B5
Encoding: 419 181 163
Width: 1468
VWidth: 0
Flags: W
LayerCount: 2
Fore
SplineSet
827 0 m 1,0,-1
 1397 0 l 1,1,-1
 1397 305 l 1,2,-1
 1321 305 l 1,3,-1
 1321 1072 l 1,4,-1
 746 1072 l 1,5,-1
 746 761 l 1,6,-1
 827 761 l 1,7,-1
 827 438 l 2,8,9
 827 387 827 387 798.5 352.5 c 128,-1,10
 770 318 770 318 723 318 c 0,11,12
 687 318 687 318 660 351.5 c 128,-1,13
 633 385 633 385 633 438 c 2,14,-1
 633 1072 l 1,15,-1
 59 1072 l 1,16,-1
 59 761 l 1,17,-1
 139 761 l 1,18,-1
 139 385 l 2,19,20
 139 -18 139 -18 469 -18 c 0,21,22
 587 -18 587 -18 679.5 26.5 c 128,-1,23
 772 71 772 71 827 156 c 1,24,-1
 827 0 l 1,0,-1
EndSplineSet
EndChar

StartChar: multiply
Encoding: 420 215 164
Width: 791
VWidth: 0
Flags: W
DStem2: 201 1024 21 844 0.697734 -0.716357<3.3521 283.59 536.464 805.464> 33 447 206 274 0.697734 0.716357<0 269 521.874 802.112>
LayerCount: 2
Fore
SplineSet
398 467 m 1,0,-1
 206 274 l 1,1,-1
 33 447 l 1,2,-1
 225 640 l 1,3,-1
 21 844 l 1,4,-1
 201 1024 l 1,5,-1
 398 820 l 1,6,-1
 595 1024 l 1,7,-1
 775 844 l 1,8,-1
 571 640 l 1,9,-1
 763 447 l 1,10,-1
 590 274 l 1,11,-1
 398 467 l 1,0,-1
EndSplineSet
EndChar

StartChar: n
Encoding: 421 110 165
Width: 1537
VWidth: 0
Flags: W
HStem: 737 355<757.5 1200>
LayerCount: 2
Fore
SplineSet
677 1072 m 1,0,-1
 114 1072 l 1,1,-1
 114 761 l 1,2,-1
 190 761 l 1,3,-1
 190 305 l 1,4,-1
 107 305 l 1,5,-1
 107 0 l 1,6,-1
 765 0 l 1,7,-1
 765 305 l 1,8,-1
 677 305 l 1,9,-1
 677 624 l 2,10,11
 677 671 677 671 705.5 704 c 128,-1,12
 734 737 734 737 781 737 c 0,13,14
 817 737 817 737 844 706 c 128,-1,15
 871 675 871 675 871 627 c 2,16,-1
 871 0 l 1,17,-1
 1445 0 l 1,18,-1
 1445 305 l 1,19,-1
 1365 305 l 1,20,-1
 1365 680 l 2,21,22
 1365 1092 1365 1092 1035 1092 c 0,23,24
 917 1092 917 1092 824.5 1046.5 c 128,-1,25
 732 1001 732 1001 677 916 c 1,26,-1
 677 1072 l 1,0,-1
EndSplineSet
EndChar

StartChar: nine
Encoding: 422 57 166
Width: 1354
VWidth: 0
Flags: W
HStem: 1012 356<605.418 740.196>
VStem: 45 522<600.934 980.153> 774 522<607.93 985.661>
LayerCount: 2
Fore
SplineSet
227 0 m 1,0,-1
 764 0 l 1,1,2
 786 23 786 23 834.5 72 c 128,-1,3
 883 121 883 121 919 157.5 c 128,-1,4
 955 194 955 194 1006 250 c 128,-1,5
 1057 306 1057 306 1094 353 c 128,-1,6
 1131 400 1131 400 1171.5 461 c 128,-1,7
 1212 522 1212 522 1237.5 576 c 128,-1,8
 1263 630 1263 630 1279.5 692.5 c 128,-1,9
 1296 755 1296 755 1296 813 c 0,10,11
 1296 971 1296 971 1216.5 1098 c 128,-1,12
 1137 1225 1137 1225 997.5 1296.5 c 128,-1,13
 858 1368 858 1368 686 1368 c 0,14,15
 404 1368 404 1368 224.5 1202 c 128,-1,16
 45 1036 45 1036 45 782 c 0,17,18
 45 586 45 586 184 453.5 c 128,-1,19
 323 321 323 321 530 321 c 1,20,21
 489 269 489 269 413 189 c 128,-1,22
 337 109 337 109 282 54.5 c 2,23,-1
 227 0 l 1,0,-1
567 782 m 0,24,25
 567 1012 567 1012 678 1012 c 0,26,27
 708 1012 708 1012 729 986 c 128,-1,28
 750 960 750 960 758.5 919.5 c 128,-1,29
 767 879 767 879 770.5 848 c 128,-1,30
 774 817 774 817 774 790 c 0,31,32
 774 573 774 573 676 573 c 0,33,34
 567 573 567 573 567 782 c 0,24,25
EndSplineSet
EndChar

StartChar: notequal
Encoding: 423 8800 167
Width: 774
VWidth: 0
Flags: W
VStem: 70 647
LayerCount: 2
Fore
SplineSet
70 392 m 1,0,-1
 70 169 l 1,1,-1
 717 169 l 1,2,-1
 717 392 l 1,3,-1
 70 392 l 1,0,-1
70 761 m 1,4,-1
 70 538 l 1,5,-1
 717 538 l 1,6,-1
 717 761 l 1,7,-1
 70 761 l 1,4,-1
EndSplineSet
EndChar

StartChar: ntilde
Encoding: 424 241 168
Width: 1464
VWidth: 0
Flags: W
HStem: 737 355<757.5 1200> 1145 253<472.831 687.417> 1266 257<779.09 994.864>
DStem2: 633 1417.5 681.5 1175.5 0.904739 0.425967<-82.3774 191.133>
LayerCount: 2
Fore
SplineSet
677 1072 m 1,0,-1
 114 1072 l 1,1,-1
 114 761 l 1,2,-1
 190 761 l 1,3,-1
 190 305 l 1,4,-1
 107 305 l 1,5,-1
 107 0 l 1,6,-1
 765 0 l 1,7,-1
 765 305 l 1,8,-1
 677 305 l 1,9,-1
 677 624 l 2,10,11
 677 671 677 671 705.5 704 c 128,-1,12
 734 737 734 737 781 737 c 0,13,14
 817 737 817 737 844 706 c 128,-1,15
 871 675 871 675 871 627 c 2,16,-1
 871 0 l 1,17,-1
 1445 0 l 1,18,-1
 1445 305 l 1,19,-1
 1365 305 l 1,20,-1
 1365 680 l 2,21,22
 1365 1092 1365 1092 1035 1092 c 0,23,24
 917 1092 917 1092 824.5 1046.5 c 128,-1,25
 732 1001 732 1001 677 916 c 1,26,-1
 677 1072 l 1,0,-1
905 1523 m 0,27,28
 949 1523 949 1523 985 1504 c 128,-1,29
 1021 1485 1021 1485 1047 1450.5 c 128,-1,30
 1073 1416 1073 1416 1092.5 1382 c 128,-1,31
 1112 1348 1112 1348 1135.5 1303 c 128,-1,32
 1159 1258 1159 1258 1177 1232 c 1,33,-1
 1064 1158 l 1,34,35
 991 1228 991 1228 963.5 1247 c 128,-1,36
 936 1266 936 1266 917 1266 c 0,37,38
 872 1266 872 1266 810 1236 c 128,-1,39
 748 1206 748 1206 681.5 1175.5 c 128,-1,40
 615 1145 615 1145 560 1145 c 0,41,42
 515 1145 515 1145 479 1163.5 c 128,-1,43
 443 1182 443 1182 416.5 1216.5 c 128,-1,44
 390 1251 390 1251 371 1284.5 c 128,-1,45
 352 1318 352 1318 328 1363.5 c 128,-1,46
 304 1409 304 1409 286 1435 c 1,47,-1
 400 1510 l 1,48,49
 476 1437 476 1437 504 1417.5 c 128,-1,50
 532 1398 532 1398 550 1398 c 0,51,52
 586 1398 586 1398 633 1417.5 c 128,-1,53
 680 1437 680 1437 719 1460.5 c 128,-1,54
 758 1484 758 1484 809 1503.5 c 128,-1,55
 860 1523 860 1523 905 1523 c 0,27,28
EndSplineSet
EndChar

StartChar: numbersign
Encoding: 425 35 169
Width: 1411
VWidth: 0
Flags: W
VStem: 493 324<1299 1623> 972 324<1299 1623>
DStem2: 132 0 445 0 0.223412 0.974724<69.9279 292.846 670.079 969.98 1348.11 1662.63> 611 0 924 0 0.223412 0.974724<69.9279 292.846 670.079 969.98 1348.11 1662.63>
LayerCount: 2
Fore
SplineSet
269 1246 m 1,0,-1
 206 947 l 1,1,-1
 342 947 l 1,2,-1
 262 585 l 1,3,-1
 122 585 l 1,4,-1
 59 286 l 1,5,-1
 195 286 l 1,6,-1
 132 0 l 1,7,-1
 445 0 l 1,8,-1
 510 286 l 1,9,-1
 674 286 l 1,10,-1
 611 0 l 1,11,-1
 924 0 l 1,12,-1
 989 286 l 1,13,-1
 1139 286 l 1,14,-1
 1202 585 l 1,15,-1
 1058 585 l 1,16,-1
 1141 947 l 1,17,-1
 1286 947 l 1,18,-1
 1349 1246 l 1,19,-1
 1209 1246 l 1,20,-1
 1296 1623 l 1,21,-1
 972 1623 l 1,22,-1
 888 1246 l 1,23,-1
 730 1246 l 1,24,-1
 817 1623 l 1,25,-1
 493 1623 l 1,26,-1
 409 1246 l 1,27,-1
 269 1246 l 1,0,-1
662 947 m 1,28,-1
 821 947 l 1,29,-1
 741 585 l 1,30,-1
 579 585 l 1,31,-1
 662 947 l 1,28,-1
EndSplineSet
EndChar

StartChar: o
Encoding: 426 111 170
Width: 1368
VWidth: 0
Flags: W
HStem: -18 312<595.223 772.777> 779 312<587.984 780.016>
VStem: 82 465<341.851 740.997> 821 465<341.851 740.997>
LayerCount: 2
Fore
SplineSet
684 -18 m 128,-1,1
 506 -18 506 -18 370.5 48 c 128,-1,2
 235 114 235 114 158.5 243 c 128,-1,3
 82 372 82 372 82 547 c 0,4,5
 82 807 82 807 243 949 c 128,-1,6
 404 1091 404 1091 684 1091 c 128,-1,7
 964 1091 964 1091 1125 949 c 128,-1,8
 1286 807 1286 807 1286 547 c 0,9,10
 1286 372 1286 372 1209.5 243 c 128,-1,11
 1133 114 1133 114 997.5 48 c 128,-1,0
 862 -18 862 -18 684 -18 c 128,-1,1
684 779 m 128,-1,13
 640 779 640 779 611 760 c 128,-1,14
 582 741 582 741 569 704 c 128,-1,15
 556 667 556 667 551.5 631.5 c 128,-1,16
 547 596 547 596 547 545 c 0,17,18
 547 294 547 294 684 294 c 128,-1,19
 821 294 821 294 821 545 c 0,20,21
 821 596 821 596 816.5 631.5 c 128,-1,22
 812 667 812 667 799 704 c 128,-1,23
 786 741 786 741 757 760 c 128,-1,12
 728 779 728 779 684 779 c 128,-1,13
EndSplineSet
EndChar

StartChar: oacute
Encoding: 427 243 171
Width: 1358
VWidth: 0
Flags: W
HStem: -18 312<595.223 772.777> 779 312<587.984 780.016>
VStem: 82 465<341.851 740.997> 821 465<341.851 740.997>
LayerCount: 2
Fore
SplineSet
684 -18 m 128,-1,1
 506 -18 506 -18 370.5 48 c 128,-1,2
 235 114 235 114 158.5 243 c 128,-1,3
 82 372 82 372 82 547 c 0,4,5
 82 807 82 807 243 949 c 128,-1,6
 404 1091 404 1091 684 1091 c 128,-1,7
 964 1091 964 1091 1125 949 c 128,-1,8
 1286 807 1286 807 1286 547 c 0,9,10
 1286 372 1286 372 1209.5 243 c 128,-1,11
 1133 114 1133 114 997.5 48 c 128,-1,0
 862 -18 862 -18 684 -18 c 128,-1,1
684 779 m 128,-1,13
 640 779 640 779 611 760 c 128,-1,14
 582 741 582 741 569 704 c 128,-1,15
 556 667 556 667 551.5 631.5 c 128,-1,16
 547 596 547 596 547 545 c 0,17,18
 547 294 547 294 684 294 c 128,-1,19
 821 294 821 294 821 545 c 0,20,21
 821 596 821 596 816.5 631.5 c 128,-1,22
 812 667 812 667 799 704 c 128,-1,23
 786 741 786 741 757 760 c 128,-1,12
 728 779 728 779 684 779 c 128,-1,13
824 1708 m 1,24,-1
 350 1271 l 1,25,-1
 454 1130 l 1,26,-1
 1008 1443 l 1,27,-1
 824 1708 l 1,24,-1
EndSplineSet
EndChar

StartChar: ocircumflex
Encoding: 428 244 172
Width: 1358
VWidth: 0
Flags: W
HStem: -18 312<595.223 772.777> 779 312<587.984 780.016> 1348 20G<658.184 699.816>
VStem: 82 465<341.851 740.997> 821 465<341.851 740.997>
LayerCount: 2
Fore
SplineSet
684 -18 m 128,-1,1
 506 -18 506 -18 370.5 48 c 128,-1,2
 235 114 235 114 158.5 243 c 128,-1,3
 82 372 82 372 82 547 c 0,4,5
 82 807 82 807 243 949 c 128,-1,6
 404 1091 404 1091 684 1091 c 128,-1,7
 964 1091 964 1091 1125 949 c 128,-1,8
 1286 807 1286 807 1286 547 c 0,9,10
 1286 372 1286 372 1209.5 243 c 128,-1,11
 1133 114 1133 114 997.5 48 c 128,-1,0
 862 -18 862 -18 684 -18 c 128,-1,1
684 779 m 128,-1,13
 640 779 640 779 611 760 c 128,-1,14
 582 741 582 741 569 704 c 128,-1,15
 556 667 556 667 551.5 631.5 c 128,-1,16
 547 596 547 596 547 545 c 0,17,18
 547 294 547 294 684 294 c 128,-1,19
 821 294 821 294 821 545 c 0,20,21
 821 596 821 596 816.5 631.5 c 128,-1,22
 812 667 812 667 799 704 c 128,-1,23
 786 741 786 741 757 760 c 128,-1,12
 728 779 728 779 684 779 c 128,-1,13
543 1601 m 1,24,-1
 270 1224 l 1,25,-1
 424 1123 l 1,26,-1
 679 1368 l 1,27,-1
 934 1123 l 1,28,-1
 1088 1224 l 1,29,-1
 814 1600 l 1,30,-1
 543 1601 l 1,24,-1
EndSplineSet
EndChar

StartChar: odieresis
Encoding: 429 246 173
Width: 1358
VWidth: 0
Flags: W
HStem: -18 312<595.223 772.777> 779 312<587.984 780.016> 1112 460<234.216 509.121 851.216 1126.12>
VStem: 82 465<341.851 740.997> 145 452<1199.72 1487.11> 762 452<1199.72 1487.11> 821 465<341.851 740.997>
LayerCount: 2
Fore
SplineSet
684 -18 m 128,-1,1
 506 -18 506 -18 370.5 48 c 128,-1,2
 235 114 235 114 158.5 243 c 128,-1,3
 82 372 82 372 82 547 c 0,4,5
 82 807 82 807 243 949 c 128,-1,6
 404 1091 404 1091 684 1091 c 128,-1,7
 964 1091 964 1091 1125 949 c 128,-1,8
 1286 807 1286 807 1286 547 c 0,9,10
 1286 372 1286 372 1209.5 243 c 128,-1,11
 1133 114 1133 114 997.5 48 c 128,-1,0
 862 -18 862 -18 684 -18 c 128,-1,1
684 779 m 128,-1,13
 640 779 640 779 611 760 c 128,-1,14
 582 741 582 741 569 704 c 128,-1,15
 556 667 556 667 551.5 631.5 c 128,-1,16
 547 596 547 596 547 545 c 0,17,18
 547 294 547 294 684 294 c 128,-1,19
 821 294 821 294 821 545 c 0,20,21
 821 596 821 596 816.5 631.5 c 128,-1,22
 812 667 812 667 799 704 c 128,-1,23
 786 741 786 741 757 760 c 128,-1,12
 728 779 728 779 684 779 c 128,-1,13
597 1342 m 0,24,25
 597 1234 597 1234 530.5 1173 c 128,-1,26
 464 1112 464 1112 373 1112 c 0,27,28
 280 1112 280 1112 212.5 1173.5 c 128,-1,29
 145 1235 145 1235 145 1345 c 0,30,31
 145 1452 145 1452 212 1512 c 128,-1,32
 279 1572 279 1572 371 1572 c 128,-1,33
 463 1572 463 1572 530 1511.5 c 128,-1,34
 597 1451 597 1451 597 1342 c 0,24,25
1214 1342 m 0,35,36
 1214 1234 1214 1234 1147.5 1173 c 128,-1,37
 1081 1112 1081 1112 990 1112 c 0,38,39
 897 1112 897 1112 829.5 1173.5 c 128,-1,40
 762 1235 762 1235 762 1345 c 0,41,42
 762 1452 762 1452 829 1512 c 128,-1,43
 896 1572 896 1572 988 1572 c 128,-1,44
 1080 1572 1080 1572 1147 1511.5 c 128,-1,45
 1214 1451 1214 1451 1214 1342 c 0,35,36
EndSplineSet
EndChar

StartChar: oe
Encoding: 430 339 174
Width: 2615
VWidth: 0
Flags: W
HStem: -27 240<1343.53 1557.96> -26 352<589.605 781.967> 439 179<1279 1494> 731 352<582.936 790.631> 805 278<1308.63 1469.92>
VStem: 84 465<366.216 698.941> 1494 427<618 777.768>
LayerCount: 2
Fore
SplineSet
686 -26 m 0,0,1
 508 -26 508 -26 372.5 40 c 128,-1,2
 237 106 237 106 160.5 235 c 128,-1,3
 84 364 84 364 84 539 c 0,4,5
 84 799 84 799 245 941 c 128,-1,6
 406 1083 406 1083 686 1083 c 0,7,8
 752 1083 752 1083 813 1070 c 128,-1,9
 874 1057 874 1057 913.5 1039 c 128,-1,10
 953 1021 953 1021 983.5 1003 c 128,-1,11
 1014 985 1014 985 1028 972 c 2,12,-1
 1042 959 l 1,13,14
 1046 964 1046 964 1054 972.5 c 128,-1,15
 1062 981 1062 981 1091 1002.5 c 128,-1,16
 1120 1024 1120 1024 1154.5 1040 c 128,-1,17
 1189 1056 1189 1056 1247 1069.5 c 128,-1,18
 1305 1083 1305 1083 1370 1083 c 0,19,20
 1542 1083 1542 1083 1669 1009.5 c 128,-1,21
 1796 936 1796 936 1858.5 816 c 128,-1,22
 1921 696 1921 696 1921 546 c 0,23,24
 1921 512 1921 512 1916 467 c 1,25,26
 1906.10075791 443.601791419 1906.10075791 443.601791419 1899.78925236 441.050816339 c 0,27,28
 1894.71521664 439 1894.71521664 439 1879 439 c 2,29,-1
 1277 439 l 1,30,31
 1277 346 1277 346 1324.5 279.5 c 128,-1,32
 1372 213 1372 213 1454 213 c 0,33,34
 1526 213 1526 213 1559 248 c 128,-1,35
 1592 283 1592 283 1594 356 c 1,36,-1
 1901 356 l 1,37,-1
 1901 118 l 1,38,39
 1768 38 1768 38 1641 5 c 128,-1,40
 1514 -28 1514 -28 1354 -27 c 0,41,42
 1295 -27 1295 -27 1240.5 -12.5 c 128,-1,43
 1186 2 1186 2 1150.5 22.5 c 128,-1,44
 1115 43 1115 43 1088 63.5 c 128,-1,45
 1061 84 1061 84 1048.5 98.5 c 2,46,-1
 1036 113 l 1,47,48
 1031 107 1031 107 1022 98 c 128,-1,49
 1013 89 1013 89 980.5 65 c 128,-1,50
 948 41 948 41 910.5 22.5 c 128,-1,51
 873 4 873 4 812.5 -11 c 128,-1,52
 752 -26 752 -26 686 -26 c 0,0,1
686 731 m 128,-1,54
 642 731 642 731 613 715 c 128,-1,55
 584 699 584 699 571 668.5 c 128,-1,56
 558 638 558 638 553.5 608.5 c 128,-1,57
 549 579 549 579 549 537 c 0,58,59
 549 326 549 326 686 326 c 128,-1,60
 823 326 823 326 823 537 c 0,61,62
 823 579 823 579 818.5 608.5 c 128,-1,63
 814 638 814 638 801 668.5 c 128,-1,64
 788 699 788 699 759 715 c 128,-1,53
 730 731 730 731 686 731 c 128,-1,54
1279 647 m 2,65,-1
 1279 618 l 1,66,-1
 1494 618 l 1,67,68
 1495 653 1495 653 1492.5 679 c 128,-1,69
 1490 705 1490 705 1481 737.5 c 128,-1,70
 1472 770 1472 770 1448 787.5 c 128,-1,71
 1424 805 1424 805 1387 805 c 0,72,73
 1333 805 1333 805 1306 756.5 c 128,-1,74
 1279 708 1279 708 1279 647 c 2,65,-1
EndSplineSet
EndChar

StartChar: ogonek
Encoding: 431 731 175
Width: 1707
VWidth: 0
Flags: W
HStem: -485 113<777.419 918> -20 20G<679 871>
VStem: 528 203<-341.544 -177.447>
LayerCount: 2
Fore
SplineSet
871 0 m 1,0,1
 842 -60 842 -60 804 -121 c 128,-1,2
 766 -182 766 -182 748.5 -214.5 c 128,-1,3
 731 -247 731 -247 731 -271 c 0,4,5
 731 -315 731 -315 776 -343 c 128,-1,6
 821 -371 821 -371 918 -372 c 1,7,-1
 918 -485 l 1,8,-1
 897 -485 l 2,9,10
 745 -485 745 -485 636.5 -426 c 128,-1,11
 528 -367 528 -367 528 -285 c 0,12,13
 528 -269 528 -269 533 -253 c 128,-1,14
 538 -237 538 -237 554 -209 c 128,-1,15
 570 -181 570 -181 583 -161 c 128,-1,16
 596 -141 596 -141 631.5 -89 c 128,-1,17
 667 -37 667 -37 691 0 c 1,18,-1
 871 0 l 1,0,1
EndSplineSet
EndChar

StartChar: ograve
Encoding: 432 242 176
Width: 1358
VWidth: 0
Flags: W
HStem: -18 312<595.223 772.777> 779 312<587.984 780.016>
VStem: 82 465<341.851 740.997> 821 465<341.851 740.997>
LayerCount: 2
Fore
SplineSet
684 -18 m 128,-1,1
 506 -18 506 -18 370.5 48 c 128,-1,2
 235 114 235 114 158.5 243 c 128,-1,3
 82 372 82 372 82 547 c 0,4,5
 82 807 82 807 243 949 c 128,-1,6
 404 1091 404 1091 684 1091 c 128,-1,7
 964 1091 964 1091 1125 949 c 128,-1,8
 1286 807 1286 807 1286 547 c 0,9,10
 1286 372 1286 372 1209.5 243 c 128,-1,11
 1133 114 1133 114 997.5 48 c 128,-1,0
 862 -18 862 -18 684 -18 c 128,-1,1
684 779 m 128,-1,13
 640 779 640 779 611 760 c 128,-1,14
 582 741 582 741 569 704 c 128,-1,15
 556 667 556 667 551.5 631.5 c 128,-1,16
 547 596 547 596 547 545 c 0,17,18
 547 294 547 294 684 294 c 128,-1,19
 821 294 821 294 821 545 c 0,20,21
 821 596 821 596 816.5 631.5 c 128,-1,22
 812 667 812 667 799 704 c 128,-1,23
 786 741 786 741 757 760 c 128,-1,12
 728 779 728 779 684 779 c 128,-1,13
534 1708 m 1,24,-1
 1008 1271 l 1,25,-1
 904 1130 l 1,26,-1
 350 1443 l 1,27,-1
 534 1708 l 1,24,-1
EndSplineSet
EndChar

StartChar: one
Encoding: 433 49 177
Width: 874
VWidth: 0
Flags: W
LayerCount: 2
Fore
SplineSet
817 0 m 1,0,-1
 817 324 l 1,1,-1
 721 324 l 1,2,-1
 715 1375 l 1,3,-1
 53 1208 l 1,4,-1
 53 950 l 1,5,-1
 217 951 l 1,6,-1
 217 324 l 1,7,-1
 127 325 l 1,8,-1
 128 0 l 1,9,-1
 817 0 l 1,0,-1
EndSplineSet
EndChar

